<svg xmlns="http://www.w3.org/2000/svg" width="66" height="66" viewBox="0 0 66 66">
    <path fill="#FFF" fill-rule="nonzero" d="M45.061 27.2a.837.837 0 0 0-.04-.1 1.162 1.162 0 0 0-.067-.161 1.11 1.11 0 0 0-.076-.101 1.048 1.048 0 0 0-.096-.125 1.24 1.24 0 0 0-.102-.081 1.245 1.245 0 0 0-.11-.09l-11-6.602a1.1 1.1 0 0 0-1.133 0l-11 6.603a.967.967 0 0 0-.116.089c-.036.025-.07.052-.103.081-.034.04-.066.08-.095.123a.976.976 0 0 0-.077.103 1.16 1.16 0 0 0-.066.157c-.015.034-.03.07-.041.105a1.062 1.062 0 0 0-.039.285V38.49c0 .386.203.744.534.943l11 6.602.012.006.012.009c.057.03.118.054.18.073.025.01.05.023.076.031.187.051.385.051.572 0 .026-.008.05-.022.076-.03.062-.02.123-.044.18-.074l.012-.01.012-.005 11-6.602a1.1 1.1 0 0 0 .534-.943V27.486c0-.097-.013-.193-.039-.286zM33 22.166l3.362 2.018-8.862 5.32-3.362-2.018L33 22.166zm-1.1 20.982l-8.8-5.282v-8.437l8.8 5.282v8.437zM33 32.805l-3.362-2.018 8.862-5.32 3.362 2.019L33 32.806zm9.9 5.062l-8.8 5.282V34.71l8.8-5.282v8.438zM33.88.416l3.3 4.401-1.76 1.32-1.32-1.76v8.803h-2.2V4.377l-1.32 1.76-1.76-1.32 3.3-4.401a1.14 1.14 0 0 1 1.76 0zm1.54 59.422l1.76 1.32-3.3 4.402a1.1 1.1 0 0 1-1.76 0l-3.3-4.402 1.76-1.32 1.32 1.76v-8.803h2.2v8.803l1.32-1.76zM31.9 15.38h2.2v2.201h-2.2v-2.2zm0 33.012h2.2v2.201h-2.2v-2.2zM13.2 31.887v2.201H4.4l1.76 1.32-1.32 1.761-4.4-3.3a1.1 1.1 0 0 1 0-1.76l4.4-3.303 1.32 1.76-1.76 1.321h8.8zm52.58.44a1.1 1.1 0 0 1-.22 1.541l-4.4 3.301-1.32-1.76 1.76-1.32h-8.8v-2.202h8.8l-1.76-1.32 1.32-1.76 4.4 3.3c.083.063.157.137.22.22zm-50.38-.44h2.2v2.201h-2.2v-2.2zm33 0h2.2v2.201h-2.2v-2.2zM19.777 18.204l-1.56 1.556-6.221-6.224.31 2.178-2.178.311-.778-5.446a1.1 1.1 0 0 1 1.25-1.25l5.444.782-.312 2.18-2.177-.311 6.222 6.224zm36.87 37.192a1.1 1.1 0 0 1-1.245 1.246l-5.443-.778.311-2.179 2.175.313-6.222-6.224 1.555-1.556L54 52.442l-.31-2.178 2.18-.314.778 5.446zm-36.87-34.08l1.556-1.555 1.556 1.556-1.556 1.556-1.556-1.556zM43.112 44.66l1.556-1.557 1.555 1.557-1.555 1.556-1.556-1.556zm-29.561 9.337l2.177-.31.311 2.178-5.444.778a1.079 1.079 0 0 1-.312 0 1.1 1.1 0 0 1-.933-1.246l.782-5.446 2.178.312L12 52.44l6.222-6.224 1.55 1.556-6.221 6.224zM56.334 9.645a1.1 1.1 0 0 1 .312.934l-.778 5.446-2.178-.314.31-2.175-6.222 6.224-1.555-1.556 6.222-6.224-2.177.31-.312-2.179 5.444-.778c.343-.05.69.065.934.312zM19.778 44.66l1.556-1.557 1.555 1.557-1.555 1.556-1.556-1.556zm23.335-23.347l1.555-1.556 1.556 1.556-1.556 1.556-1.555-1.556z"/>
</svg>
