<svg xmlns="http://www.w3.org/2000/svg" width="77" height="51" viewBox="0 0 77 51">
    <g fill="#FFF" fill-rule="evenodd" stroke="#BEDEF1">
        <path stroke-width="3" d="M21 48.897l1.955-1.92C36.771 34.958 40.5 30.497 40.5 24.359c0-5.568-4.363-9.859-10.05-9.859-3.122 0-6.28 1.453-8.313 3.815L21 19.637l-1.137-1.322C17.83 15.953 14.672 14.5 11.55 14.5c-5.687 0-10.05 4.29-10.05 9.859 0 6.137 3.73 10.6 17.612 22.68L21 48.897z"/>
        <path stroke-width="2" d="M63 23.607l1.309-1.268C73.514 14.436 76 11.501 76 7.473 76 3.82 73.094 1 69.3 1c-2.084 0-4.192.957-5.546 2.51L63 4.375l-.754-.865C60.892 1.957 58.784 1 56.7 1 52.906 1 50 3.82 50 7.473c0 4.028 2.486 6.963 11.736 14.907L63 23.607z"/>
    </g>
</svg>
