<svg xmlns="http://www.w3.org/2000/svg" width="74" height="74" viewBox="0 0 74 74">
    <path fill="#FFF" fill-rule="nonzero" stroke="#DFDFDF" stroke-width="3" d="M71.781 33.114c-.11-.984-1.258-1.724-2.25-1.724-3.208 0-6.054-1.883-7.248-4.796-1.22-2.983-.433-6.462 1.958-8.655.752-.688.844-1.839.213-2.639a34.634 34.634 0 0 0-5.545-5.6 1.948 1.948 0 0 0-2.66.215c-2.087 2.31-5.834 3.17-8.73 1.961a7.774 7.774 0 0 1-4.728-7.599 1.942 1.942 0 0 0-1.717-2.044 34.945 34.945 0 0 0-7.875-.02 1.948 1.948 0 0 0-1.733 2.002c.114 3.245-1.809 6.245-4.792 7.467-2.861 1.17-6.583.318-8.665-1.972a1.952 1.952 0 0 0-2.641-.222 34.765 34.765 0 0 0-5.662 5.598 1.947 1.947 0 0 0 .209 2.66 7.756 7.756 0 0 1 1.957 8.733c-1.209 2.877-4.196 4.73-7.616 4.73-1.11-.035-1.9.71-2.022 1.719a35.06 35.06 0 0 0-.015 7.96c.11.988 1.292 1.72 2.295 1.72 3.048-.077 5.974 1.81 7.202 4.797 1.224 2.983.437 6.46-1.957 8.655a1.945 1.945 0 0 0-.213 2.637 34.76 34.76 0 0 0 5.537 5.602 1.946 1.946 0 0 0 2.664-.211c2.094-2.316 5.841-3.174 8.726-1.963a7.762 7.762 0 0 1 4.735 7.597 1.944 1.944 0 0 0 1.718 2.044 34.79 34.79 0 0 0 7.874.021 1.948 1.948 0 0 0 1.733-2.004c-.118-3.244 1.81-6.244 4.789-7.464 2.88-1.176 6.586-.315 8.668 1.972a1.956 1.956 0 0 0 2.642.221 34.845 34.845 0 0 0 5.662-5.598 1.943 1.943 0 0 0-.21-2.66c-2.435-2.206-3.226-5.716-1.96-8.731 1.19-2.84 4.066-4.745 7.16-4.745l.433.011c1.003.082 1.927-.691 2.048-1.716a35.03 35.03 0 0 0 .016-7.96zm-34.288 16.21c-6.524 0-11.831-5.307-11.831-11.831 0-6.524 5.307-11.831 11.831-11.831 6.524 0 11.83 5.307 11.83 11.831 0 6.524-5.306 11.83-11.83 11.83z"/>
</svg>
