<svg xmlns="http://www.w3.org/2000/svg" width="75" height="75" viewBox="0 0 75 75">
    <path fill="#BAEAE5" fill-rule="nonzero" d="M35.915 63.27c-2.765-.69-4.761-3.15-4.761-6.155 0-3.553 2.792-6.346 6.346-6.346 3.554 0 6.346 2.793 6.346 6.346 0 3.005-1.996 5.466-4.761 6.154h12.712L37.383 39.808l-5.977 10.088c-.351.47-1.054.704-1.64.352-.47-.352-.703-1.056-.352-1.642l5.977-9.971H1.17C.47 38.635 0 38.165 0 37.462c0-.704.469-1.174 1.172-1.174h8.203v-2.346H4.687c-.351 0-.703-.117-.937-.469-.234-.235-.234-.586-.234-.938L7.03 11.419c.117-.469.586-.938 1.172-.938H22.266V5.788c0-.703.468-1.173 1.172-1.173.703 0 1.171.47 1.171 1.173v5.866c0 .704-.468 1.173-1.172 1.173h-4.453L23.32 32.3c.117.117.117.352.117.47 0 .703-.468 1.172-1.171 1.172h-5.86v2.346H57.422v-9.384c0-.704.469-1.173 1.172-1.173s1.172.469 1.172 1.173v9.384h2.343v-9.384c0-.704.47-1.173 1.172-1.173.703 0 1.172.469 1.172 1.173v9.384h9.375c.703 0 1.172.47 1.172 1.174 0 .703-.469 1.173-1.172 1.173H39.61l15 24.634h6.328c.47 0 .82.235 1.055.587l4.688 9.384c.234.352.234.822 0 1.173-.235.352-.703.587-1.055.587H9.375c-.352 0-.938-.117-1.055-.47-.117-.351-.234-.82 0-1.172l4.688-9.385c.234-.47.586-.704 1.055-.704h6.328l3.28-5.396c.352-.47 1.056-.704 1.642-.352.468.352.703 1.056.351 1.642l-2.46 4.106h3.75c.702 0 1.171.47 1.171 1.173 0 .704-.469 1.173-1.172 1.173H14.766l-3.516 7.039h52.5l-3.516-7.039H31.641c-.703 0-1.172-.469-1.172-1.173 0-.704.468-1.173 1.172-1.173h4.274zm-8.26-6.732c-.238 0-.357 0-.475-.116-.593-.348-.83-1.044-.474-1.624l1.185-2.32c.237-.464.949-.696 1.542-.464.474.232.711.928.474 1.508l-1.186 2.32c-.237.464-.593.696-1.067.696zM6.093 31.596h14.765l-4.218-18.77h-7.5l-3.047 18.77zm7.968 4.692v-2.346H11.72v2.346h2.344zm-1.37-27.057a4.629 4.629 0 0 1-4.615-4.616A4.629 4.629 0 0 1 12.692 0a4.629 4.629 0 0 1 4.616 4.615 4.629 4.629 0 0 1-4.616 4.616zm0-6.923a2.314 2.314 0 0 0-2.307 2.307 2.314 2.314 0 0 0 2.307 2.308A2.314 2.314 0 0 0 15 4.615a2.314 2.314 0 0 0-2.308-2.307zM61.154 9.23a4.629 4.629 0 0 1-4.616-4.616A4.629 4.629 0 0 1 61.154 0a4.629 4.629 0 0 1 4.615 4.615 4.629 4.629 0 0 1-4.615 4.616zm0-6.923a2.314 2.314 0 0 0-2.308 2.307 2.314 2.314 0 0 0 2.308 2.308 2.314 2.314 0 0 0 2.308-2.308 2.314 2.314 0 0 0-2.308-2.307zm-11.539 10.86c-.692 0-1.153-.49-1.153-1.222V5.837c0-.733.461-1.222 1.153-1.222.693 0 1.154.49 1.154 1.222v4.887h13.846c.693 0 1.154.489 1.154 1.222v12.217c0 .733-.461 1.222-1.154 1.222h-9.23c-.693 0-1.154-.49-1.154-1.222V13.167h-4.616zm6.923 0v9.773h6.924v-9.774h-6.924zM35.915 63.268a6.552 6.552 0 0 0 1.585.193c.549 0 1.08-.067 1.585-.193h-3.17zm.316-6.154c0-.761.507-1.269 1.269-1.269.762 0 1.27.508 1.27 1.27v3.553c1.522-.507 2.538-1.904 2.538-3.554 0-2.157-1.65-3.807-3.808-3.807s-3.808 1.65-3.808 3.807c0 1.65 1.016 3.047 2.539 3.554v-3.554zm14.538 12.116h-1.154c-.692 0-1.153-.462-1.153-1.154s.461-1.154 1.153-1.154h1.154c.693 0 1.154.462 1.154 1.154s-.461 1.154-1.154 1.154zm5.77 0h-1.154c-.693 0-1.154-.462-1.154-1.154s.461-1.154 1.154-1.154h1.153c.693 0 1.154.462 1.154 1.154s-.461 1.154-1.154 1.154zm-9.231 0h-1.154c-.692 0-1.154-.462-1.154-1.154s.462-1.154 1.154-1.154h1.154c.692 0 1.154.462 1.154 1.154S48 69.23 47.308 69.23z"/>
</svg>
