<svg xmlns="http://www.w3.org/2000/svg" width="785" height="219" viewBox="0 0 785 219">
    <path fill="#FFF" fill-rule="nonzero" d="M324.198 117.087a2.562 2.562 0 0 0-3.378-1.335 2.587 2.587 0 0 0-1.332 3.397l8.123 18.764c7.276 16.802-3.741 36.33-22.25 37.67v-29.229l10.262-7.817a2.59 2.59 0 0 0 .496-3.616 2.558 2.558 0 0 0-3.597-.498l-7.162 5.455v-21.219a2.574 2.574 0 0 0-2.567-2.581 2.574 2.574 0 0 0-2.567 2.581v35.936c-6.588-8.214-9.875-12.354-11.011-13.675a41.241 41.241 0 0 0-1.993-24.363v-.003l11.81-27.286c1.423-3.3 6.085-3.333 7.523 0l8.835 20.413a2.56 2.56 0 0 0 3.379 1.335 2.585 2.585 0 0 0 1.331-3.393l-8.835-20.416c-3.216-7.434-13.714-7.457-16.944 0l-9.893 22.856-11.94-27.589a2.56 2.56 0 0 0-3.378-1.335 2.587 2.587 0 0 0-1.331 3.397l.008.02.002.004.002.006v-.001l.016.038c-.006-.013-.01-.026-.015-.035l.02.048.007.014-.001-.002.003.006.002.005.006.014 14.227 32.871c5.724 13.219 2.986 27.9-5.522 37.93v.004c-6.112 7.224-15.013 11.846-24.985 12.328v-39.33l13.691-10.428a2.59 2.59 0 0 0 .496-3.616 2.558 2.558 0 0 0-3.597-.498l-10.59 8.066V92.734a2.574 2.574 0 0 0-2.567-2.581 2.574 2.574 0 0 0-2.567 2.58v49.112l-14.33-18.182a2.558 2.558 0 0 0-3.607-.42 2.59 2.59 0 0 0-.418 3.627c10.992 13.884 16.265 20.626 18.355 23.243v17.678a35.204 35.204 0 0 1-7.966-1.311 2.563 2.563 0 0 0-3.173 1.769 2.585 2.585 0 0 0 1.762 3.194 40.312 40.312 0 0 0 9.376 1.514v43.462a2.574 2.574 0 0 0 2.567 2.581 2.574 2.574 0 0 0 2.568-2.581v-43.466c8.513-.362 16.499-3.36 23.054-8.584 5.101 9.266 14.455 15.707 25.622 16.383v35.666a2.574 2.574 0 0 0 2.567 2.581 2.574 2.574 0 0 0 2.567-2.581v-35.666C322.395 179.72 335 165.26 335 148.72c.002-10.436-4.47-15.682-10.802-31.633zm-23.972 58.495c-9.605-.695-17.687-6.49-21.73-14.747 3.724-3.8 6.931-8.72 8.982-14.102 6.846 8.664 10.972 13.934 12.748 16.191v12.658zM268.162 72.73a2.577 2.577 0 0 1-1.336 3.39 2.57 2.57 0 0 1-3.386-1.332l-9.096-20.933c-2.157-4.95-9.121-4.945-11.275 0-29.547 67.98-28.677 65.236-29.74 70.204-3.223 14.984 3.59 30.27 16.1 38.084 2.192 1.37 1.214 4.765-1.365 4.765-.463 0-.934-.127-1.356-.392a39.686 39.686 0 0 1-4.031-2.878 32.23 32.23 0 0 1-7.803 9.556 2.575 2.575 0 0 1-3.277-3.975c3.037-2.51 5.473-5.684 7.158-9.216-9.898-10.462-10.922-22.53-10.943-22.598-.463.773-.188.293-10.939 8.53v29.168c1.064-.144 3.344-.218 6.599-1.329a2.572 2.572 0 0 1 3.267 1.605 2.576 2.576 0 0 1-1.606 3.27c-4.255 1.458-7.528 1.528-8.26 1.621v35.594a2.575 2.575 0 0 1-2.573 2.576 2.575 2.575 0 0 1-2.574-2.576v-35.594c-21.822-1.315-35.92-24.365-27.02-44.817l21.102-48.55c3.222-7.421 13.748-7.44 16.985 0l10.15 23.348L238.35 51.8c3.936-9.06 16.77-9.073 20.711 0l9.1 20.93zm-60.679 61.589c-.41-5.8.453-11.813 2.674-17.559l-12.085-27.8c-1.437-3.315-6.106-3.307-7.546 0l-21.102 48.551c-7.322 16.836 3.807 36.263 22.303 37.596V162.35c-.44-.352.376.543-13.98-17.554a2.578 2.578 0 0 1 .418-3.62 2.571 2.571 0 0 1 3.615.42l9.947 12.565v-35.866a2.575 2.575 0 0 1 2.573-2.577 2.575 2.575 0 0 1 2.573 2.577v21.177l7.18-5.444a2.571 2.571 0 0 1 3.43.29zM576.39 90.73c7.979 20.075 13.613 26.678 13.611 39.813 0 20.818-15.884 39.018-37.35 40.316v44.89a3.242 3.242 0 0 1-3.236 3.249 3.242 3.242 0 0 1-3.235-3.249v-44.89c-14.072-.851-25.858-8.958-32.286-20.62-8.26 6.576-18.324 10.35-29.051 10.804v54.707a3.242 3.242 0 0 1-3.235 3.249 3.242 3.242 0 0 1-3.235-3.249V161.05a50.853 50.853 0 0 1-11.815-1.906 3.253 3.253 0 0 1-2.221-4.02 3.23 3.23 0 0 1 3.998-2.227 44.41 44.41 0 0 0 10.038 1.65v-22.25c-2.633-3.293-9.277-11.779-23.129-29.254a3.258 3.258 0 0 1 .527-4.564 3.225 3.225 0 0 1 4.544.528l18.058 22.884V60.08a3.242 3.242 0 0 1 3.235-3.249 3.242 3.242 0 0 1 3.235 3.249v36.81l13.345-10.153a3.226 3.226 0 0 1 4.532.628 3.258 3.258 0 0 1-.625 4.551l-17.251 13.125v49.501c12.565-.606 23.78-6.424 31.484-15.516v-.004c10.72-12.626 14.17-31.103 6.957-47.74l-17.927-41.373-.008-.017-.003-.007-.003-.008.001.003-.007-.017-.027-.061.02.044-.022-.048v.001l-.002-.007-.002-.005-.01-.025a3.255 3.255 0 0 1 1.677-4.276 3.228 3.228 0 0 1 4.257 1.681l15.046 34.724 12.466-28.768c4.07-9.385 17.299-9.356 21.352 0l11.133 25.696a3.252 3.252 0 0 1-1.679 4.271 3.228 3.228 0 0 1-4.257-1.68l-11.133-25.692c-1.812-4.195-7.687-4.154-9.48 0l-14.882 34.342v.004c4.073 10.155 4.707 20.826 2.511 30.664 1.432 1.663 5.574 6.873 13.876 17.212v-45.23a3.242 3.242 0 0 1 3.235-3.249 3.242 3.242 0 0 1 3.235 3.249v26.706l9.025-6.866a3.226 3.226 0 0 1 4.532.628 3.258 3.258 0 0 1-.625 4.551l-12.932 9.839v36.786c23.323-1.686 37.207-26.264 28.038-47.41l-10.236-23.618a3.255 3.255 0 0 1 1.678-4.275 3.23 3.23 0 0 1 4.258 1.68zm-30.208 73.622v-15.93c-2.239-2.842-7.438-9.475-16.064-20.38-2.585 6.775-6.626 12.967-11.318 17.749 5.094 10.392 15.278 17.687 27.382 18.561zM505.776 34.901a3.242 3.242 0 0 1-1.683 4.266 3.24 3.24 0 0 1-4.267-1.677l-11.462-26.347c-2.719-6.23-11.493-6.223-14.208 0-37.232 85.562-36.136 82.108-37.474 88.361-4.063 18.86 4.523 38.099 20.287 47.934 2.761 1.723 1.529 5.996-1.721 5.996-.584 0-1.176-.16-1.708-.492a50.008 50.008 0 0 1-5.08-3.624c-2.465 4.574-5.794 8.69-9.833 12.028a3.248 3.248 0 0 1-4.566-.437 3.24 3.24 0 0 1 .437-4.565c3.827-3.16 6.897-7.155 9.02-11.6-12.473-13.168-13.763-28.357-13.79-28.442-.583.973-.237.368-13.784 10.737v36.71c1.34-.181 4.214-.274 8.316-1.672a3.242 3.242 0 1 1 2.092 6.135c-5.361 1.835-9.486 1.923-10.408 2.04v44.8a3.243 3.243 0 0 1-6.486 0v-44.8c-27.498-1.655-45.263-30.666-34.048-56.407L402 52.74c4.06-9.341 17.325-9.365 21.404 0l12.79 29.386L468.21 8.558c4.96-11.403 21.132-11.418 26.098 0l11.467 26.343zm-76.462 77.516c-.518-7.299.57-14.867 3.369-22.1L417.455 55.33c-1.81-4.174-7.694-4.163-9.509 0l-26.59 61.106c-9.228 21.19 4.796 45.641 28.103 47.32v-16.058c-.554-.442.474.684-17.617-22.093a3.242 3.242 0 1 1 5.083-4.028l12.534 15.815V92.249a3.243 3.243 0 0 1 6.485 0v26.655l9.047-6.853a3.243 3.243 0 0 1 4.323.366zm-287.742 17.556c5.527 13.933 9.43 18.516 9.428 27.633 0 14.45-11.002 27.08-25.871 27.982v31.156a2.248 2.248 0 0 1-2.241 2.255 2.248 2.248 0 0 1-2.241-2.255v-31.156c-9.747-.59-17.91-6.217-22.363-14.311-5.722 4.563-12.692 7.182-20.123 7.498v37.97a2.248 2.248 0 0 1-2.24 2.255 2.248 2.248 0 0 1-2.242-2.255V178.78a35.159 35.159 0 0 1-8.183-1.323 2.259 2.259 0 0 1-1.539-2.79 2.237 2.237 0 0 1 2.77-1.546 30.704 30.704 0 0 0 6.953 1.146v-15.443c-1.824-2.286-6.426-8.175-16.02-20.305a2.265 2.265 0 0 1 .364-3.167c.97-.774 2.38-.61 3.148.366L73.68 151.6V108.7a2.248 2.248 0 0 1 2.24-2.255c1.238 0 2.241 1.01 2.241 2.255v25.548l9.244-7.046a2.231 2.231 0 0 1 3.139.435 2.264 2.264 0 0 1-.433 3.159l-11.95 9.11v34.357c8.704-.421 16.473-4.46 21.808-10.77v-.003c7.426-8.763 9.816-21.587 4.82-33.135L92.37 101.64l-.005-.011-.002-.005-.003-.006.001.003-.005-.013-.018-.042.013.03-.014-.033v.001l-.002-.005-.002-.003-.007-.018a2.26 2.26 0 0 1 1.162-2.967 2.234 2.234 0 0 1 2.95 1.166l10.42 24.1 8.635-19.966c2.82-6.513 11.982-6.493 14.79 0l7.711 17.835a2.259 2.259 0 0 1-1.162 2.964 2.234 2.234 0 0 1-2.95-1.166l-7.71-17.832c-1.255-2.912-5.325-2.883-6.568 0l-10.307 23.836v.003a36.055 36.055 0 0 1 1.74 21.282c.991 1.154 3.86 4.77 9.61 11.946v-31.392a2.248 2.248 0 0 1 2.24-2.255c1.239 0 2.242 1.01 2.242 2.255v18.536l6.25-4.766a2.232 2.232 0 0 1 3.14.436 2.264 2.264 0 0 1-.433 3.159l-8.957 6.828v25.533c16.155-1.17 25.772-18.23 19.42-32.907l-7.09-16.391a2.26 2.26 0 0 1 1.163-2.968 2.235 2.235 0 0 1 2.949 1.167zm-20.924 51.099v-11.058c-1.55-1.971-5.152-6.575-11.127-14.144-1.79 4.702-4.59 9-7.84 12.319 3.53 7.212 10.583 12.276 18.967 12.883zM92.661 91.223a2.252 2.252 0 0 1-1.165 2.962 2.243 2.243 0 0 1-2.956-1.165L80.6 74.734c-1.882-4.324-7.96-4.32-9.84 0-25.79 59.386-25.03 56.988-25.958 61.328-2.814 13.09 3.133 26.443 14.052 33.27 1.913 1.195 1.06 4.161-1.192 4.161-.404 0-.814-.11-1.182-.342a34.64 34.64 0 0 1-3.52-2.514 28.15 28.15 0 0 1-6.81 8.347 2.247 2.247 0 0 1-3.162-.303 2.252 2.252 0 0 1 .302-3.168 23.688 23.688 0 0 0 6.247-8.051c-8.639-9.14-9.532-19.682-9.55-19.741-.405.675-.165.256-9.549 7.452v25.48c.929-.126 2.92-.191 5.76-1.161a2.244 2.244 0 0 1 2.851 1.401 2.251 2.251 0 0 1-1.401 2.857c-3.714 1.274-6.57 1.335-7.21 1.416v31.093a2.248 2.248 0 0 1-2.246 2.25 2.248 2.248 0 0 1-2.246-2.25v-31.093c-19.047-1.149-31.352-21.285-23.584-39.15l18.418-42.412c2.812-6.483 12-6.5 14.825 0L44.465 124l22.177-51.06c3.435-7.915 14.637-7.925 18.077 0l7.942 18.283zM39.7 145.025c-.358-5.066.396-10.32 2.334-15.339l-10.548-24.284c-1.254-2.897-5.33-2.89-6.586 0L6.48 147.813c-6.391 14.708 3.323 31.678 19.466 32.843v-11.145c-.383-.306.328.475-12.202-15.334a2.254 2.254 0 0 1 .365-3.162 2.243 2.243 0 0 1 3.156.366l8.681 10.977v-31.331a2.248 2.248 0 0 1 2.246-2.25 2.248 2.248 0 0 1 2.247 2.25v18.5l6.266-4.757a2.243 2.243 0 0 1 2.994.255zm735.873-15.052c5.527 13.933 9.43 18.516 9.428 27.633 0 14.45-11.002 27.08-25.871 27.982v31.156a2.248 2.248 0 0 1-2.241 2.255 2.248 2.248 0 0 1-2.241-2.255v-31.156c-9.747-.59-17.91-6.217-22.363-14.311-5.722 4.563-12.692 7.182-20.123 7.498v37.97a2.248 2.248 0 0 1-2.24 2.255 2.248 2.248 0 0 1-2.242-2.255V178.78a35.159 35.159 0 0 1-8.183-1.323 2.259 2.259 0 0 1-1.539-2.79 2.237 2.237 0 0 1 2.77-1.546 30.704 30.704 0 0 0 6.953 1.146v-15.443c-1.824-2.286-6.426-8.175-16.02-20.305a2.265 2.265 0 0 1 .364-3.167c.97-.774 2.38-.61 3.148.366L707.68 151.6V108.7a2.248 2.248 0 0 1 2.24-2.255c1.238 0 2.241 1.01 2.241 2.255v25.548l9.244-7.046a2.231 2.231 0 0 1 3.139.435 2.264 2.264 0 0 1-.433 3.159l-11.95 9.11v34.357c8.704-.421 16.473-4.46 21.808-10.77v-.003c7.426-8.763 9.816-21.587 4.82-33.135L726.37 101.64l-.005-.011-.002-.005-.003-.006.001.003-.005-.013-.018-.042.013.03-.014-.033v.001l-.002-.005-.002-.003-.007-.018a2.26 2.26 0 0 1 1.162-2.967 2.234 2.234 0 0 1 2.95 1.166l10.42 24.1 8.635-19.966c2.82-6.513 11.982-6.493 14.79 0l7.711 17.835a2.259 2.259 0 0 1-1.162 2.964 2.234 2.234 0 0 1-2.95-1.166l-7.71-17.832c-1.255-2.912-5.325-2.883-6.568 0l-10.307 23.836v.003a36.055 36.055 0 0 1 1.74 21.282c.991 1.154 3.86 4.77 9.61 11.946v-31.392a2.248 2.248 0 0 1 2.24-2.255c1.239 0 2.242 1.01 2.242 2.255v18.536l6.25-4.766a2.232 2.232 0 0 1 3.14.436 2.264 2.264 0 0 1-.433 3.159l-8.957 6.828v25.533c16.155-1.17 25.772-18.23 19.42-32.907l-7.09-16.391a2.26 2.26 0 0 1 1.163-2.968 2.235 2.235 0 0 1 2.949 1.167zm-20.924 51.099v-11.058c-1.55-1.971-5.152-6.575-11.127-14.144-1.79 4.702-4.59 9-7.84 12.319 3.53 7.212 10.583 12.276 18.967 12.883zm-27.987-89.849a2.252 2.252 0 0 1-1.165 2.962 2.243 2.243 0 0 1-2.956-1.165l-7.94-18.286c-1.882-4.324-7.96-4.32-9.84 0-25.79 59.386-25.03 56.988-25.958 61.328-2.814 13.09 3.133 26.443 14.052 33.27 1.913 1.195 1.06 4.161-1.192 4.161-.404 0-.814-.11-1.182-.342a34.64 34.64 0 0 1-3.52-2.514 28.15 28.15 0 0 1-6.81 8.347 2.247 2.247 0 0 1-3.162-.303 2.252 2.252 0 0 1 .302-3.168 23.688 23.688 0 0 0 6.247-8.051c-8.639-9.14-9.532-19.682-9.55-19.741-.405.675-.165.256-9.549 7.452v25.48c.929-.126 2.92-.191 5.76-1.161a2.244 2.244 0 0 1 2.851 1.401 2.251 2.251 0 0 1-1.401 2.857c-3.714 1.274-6.57 1.335-7.21 1.416v31.093a2.248 2.248 0 0 1-2.246 2.25 2.248 2.248 0 0 1-2.246-2.25v-31.093c-19.047-1.149-31.352-21.285-23.584-39.15l18.418-42.412c2.812-6.483 12-6.5 14.825 0l8.86 20.396 22.177-51.06c3.435-7.915 14.637-7.925 18.077 0l7.942 18.283zM673.7 145.025c-.358-5.066.396-10.32 2.334-15.339l-10.548-24.284c-1.254-2.897-5.33-2.89-6.586 0l-18.419 42.411c-6.391 14.708 3.323 31.678 19.466 32.843v-11.145c-.383-.306.328.475-12.202-15.334a2.254 2.254 0 0 1 .365-3.162 2.243 2.243 0 0 1 3.156.366l8.681 10.977v-31.331a2.248 2.248 0 0 1 2.246-2.25 2.248 2.248 0 0 1 2.247 2.25v18.5l6.266-4.757a2.243 2.243 0 0 1 2.994.255z"/>
</svg>
