<svg width="131" height="24" viewBox="0 0 131 24" xmlns="http://www.w3.org/2000/svg"><title>D3AD4D03-30BE-4D74-9B0E-E2F55D7821E1</title><path d="M27.791.023H24.01V7.57H3.898V.023H.115v10.062h27.653V.023h.023zM3.898 13.87h20.111v7.546h3.782V11.354H.115v10.061h3.783V13.87zM6.412.023H5.143v6.3h1.269v-6.3zm22.625 22.639h-5.028v1.269h6.296V.023h-1.268v22.639zm-23.894 0H.115v1.269h6.297v-7.546h16.352v-1.27H5.144v7.547zm30.19 0h-3.782v1.269h5.028V18.9H35.31v3.762h.023zM57.958.023H56.69v17.608h1.268V.023zm-7.541 3.785h-7.542v18.877h-5.028v1.269h6.296v-18.9h6.297V3.808h-.023zm-8.81-1.27h10.055v18.877h12.57V7.57h-3.783V18.9h-5.028V.023H37.824v21.392h3.782V2.538zM65.5 22.662H50.417v1.269h16.351V7.569H65.5v15.093zM79.315 3.808H60.449v1.269h18.866v-1.27zm1.268 3.761h-12.57v13.846h16.353V.023H60.472v2.515h20.111V7.57zm0 11.331h-8.81v-8.815h8.81V18.9zm5.028 3.762H68.014v1.269H86.88V.023H85.61v22.639zM75.556 12.6h3.782v-1.27H74.31v6.3h1.269V12.6h-.023zM91.908 2.538h7.541V12.6h8.81V2.538h7.52v18.877h3.782V.023h-15.084v10.062h-1.268V.023H88.125v21.392h3.783V2.538zm1.245 20.124h-5.028v1.269h6.296V5.054h3.783v-1.27h-5.028v18.878h-.023zm16.352-8.793H99.449v1.27h11.324V5.053h3.783v-1.27h-5.028V13.87h-.023zm11.301 8.793h-5.028v1.269h6.296V.023h-1.268v22.639zM34.065 18.9H31.55v2.515h2.514V18.9zm93.752-14.885a.53.53 0 0 0 .323-.207c.07-.116.115-.277.115-.508v-.646c0-.323-.069-.554-.23-.716-.162-.138-.392-.23-.692-.23h-1.5v4.2h.462V4.246h1.038c.161 0 .3.046.392.162.092.092.138.23.138.392v1.13h.462V4.778a.956.956 0 0 0-.139-.53.495.495 0 0 0-.369-.232zm-.092-.323a.456.456 0 0 1-.323.116h-1.084V2.192h1.038c.323 0 .484.185.484.554v.6a.567.567 0 0 1-.115.346zm2.86-1.338a4.384 4.384 0 0 0-.807-1.2 3.92 3.92 0 0 0-1.2-.808 3.52 3.52 0 0 0-1.476-.3c-.507 0-1.014.092-1.476.3a3.92 3.92 0 0 0-1.2.808 3.552 3.552 0 0 0-.806 1.2c-.208.461-.3.946-.3 1.477a3.6 3.6 0 0 0 .3 1.477c.207.461.461.854.807 1.2a3.55 3.55 0 0 0 1.2.807c.46.208.945.3 1.475.3a3.52 3.52 0 0 0 1.476-.3 3.92 3.92 0 0 0 1.2-.807c.346-.346.622-.739.807-1.2.207-.462.3-.946.3-1.477 0-.531-.116-1.016-.3-1.477zm-.6 2.7a3.01 3.01 0 0 1-.669.992 3.16 3.16 0 0 1-2.237.923c-.438 0-.853-.092-1.222-.254a3.008 3.008 0 0 1-.992-.669 3.27 3.27 0 0 1-.669-.992 3.137 3.137 0 0 1-.253-1.223c0-.439.092-.831.253-1.2a3.01 3.01 0 0 1 .67-.993c.276-.276.622-.507.99-.669a3.22 3.22 0 0 1 1.223-.254c.438 0 .854.07 1.246.254.369.162.715.393.991.67.277.276.508.6.67.992.16.369.253.784.253 1.2 0 .415-.092.83-.254 1.223z" fill-rule="nonzero" fill="#F75115"/></svg>