<svg width="139" height="139" viewBox="0 0 139 139" fill="none" xmlns="http://www.w3.org/2000/svg">
<path fill-rule="evenodd" clip-rule="evenodd" d="M4.63333 9.26667C7.19225 9.26667 9.26667 7.19225 9.26667 4.63333C9.26667 2.07441 7.19225 0 4.63333 0C2.07441 0 0 2.07441 0 4.63333C0 7.19225 2.07441 9.26667 4.63333 9.26667ZM4.63333 27.8C7.19225 27.8 9.26667 25.7256 9.26667 23.1667C9.26667 20.6077 7.19225 18.5333 4.63333 18.5333C2.07441 18.5333 0 20.6077 0 23.1667C0 25.7256 2.07441 27.8 4.63333 27.8ZM9.26667 41.7C9.26667 44.2589 7.19225 46.3333 4.63333 46.3333C2.07441 46.3333 0 44.2589 0 41.7C0 39.1411 2.07441 37.0667 4.63333 37.0667C7.19225 37.0667 9.26667 39.1411 9.26667 41.7ZM4.63333 64.8667C7.19225 64.8667 9.26667 62.7923 9.26667 60.2333C9.26667 57.6744 7.19225 55.6 4.63333 55.6C2.07441 55.6 0 57.6744 0 60.2333C0 62.7923 2.07441 64.8667 4.63333 64.8667ZM9.26667 78.7666C9.26667 81.3256 7.19225 83.4 4.63333 83.4C2.07441 83.4 0 81.3256 0 78.7666C0 76.2077 2.07441 74.1333 4.63333 74.1333C7.19225 74.1333 9.26667 76.2077 9.26667 78.7666ZM4.63333 120.467C7.19225 120.467 9.26667 118.392 9.26667 115.833C9.26667 113.274 7.19225 111.2 4.63333 111.2C2.07441 111.2 0 113.274 0 115.833C0 118.392 2.07441 120.467 4.63333 120.467ZM9.26667 97.3C9.26667 99.8589 7.19225 101.933 4.63333 101.933C2.07441 101.933 0 99.8589 0 97.3C0 94.7411 2.07441 92.6667 4.63333 92.6667C7.19225 92.6667 9.26667 94.7411 9.26667 97.3ZM4.63333 139C7.19225 139 9.26667 136.926 9.26667 134.367C9.26667 131.808 7.19225 129.733 4.63333 129.733C2.07441 129.733 0 131.808 0 134.367C0 136.926 2.07441 139 4.63333 139ZM46.3336 4.63333C46.3336 7.19225 44.2592 9.26667 41.7002 9.26667C39.1413 9.26667 37.0669 7.19225 37.0669 4.63333C37.0669 2.07441 39.1413 0 41.7002 0C44.2592 0 46.3336 2.07441 46.3336 4.63333ZM41.7002 27.8C44.2592 27.8 46.3336 25.7256 46.3336 23.1667C46.3336 20.6077 44.2592 18.5333 41.7002 18.5333C39.1413 18.5333 37.0669 20.6077 37.0669 23.1667C37.0669 25.7256 39.1413 27.8 41.7002 27.8ZM46.3336 41.7C46.3336 44.2589 44.2592 46.3333 41.7002 46.3333C39.1413 46.3333 37.0669 44.2589 37.0669 41.7C37.0669 39.1411 39.1413 37.0667 41.7002 37.0667C44.2592 37.0667 46.3336 39.1411 46.3336 41.7ZM41.7002 64.8667C44.2592 64.8667 46.3336 62.7923 46.3336 60.2333C46.3336 57.6744 44.2592 55.6 41.7002 55.6C39.1413 55.6 37.0669 57.6744 37.0669 60.2333C37.0669 62.7923 39.1413 64.8667 41.7002 64.8667ZM46.3336 78.7666C46.3336 81.3256 44.2592 83.4 41.7002 83.4C39.1413 83.4 37.0669 81.3256 37.0669 78.7666C37.0669 76.2077 39.1413 74.1333 41.7002 74.1333C44.2592 74.1333 46.3336 76.2077 46.3336 78.7666ZM41.7002 120.467C44.2592 120.467 46.3336 118.392 46.3336 115.833C46.3336 113.274 44.2592 111.2 41.7002 111.2C39.1413 111.2 37.0669 113.274 37.0669 115.833C37.0669 118.392 39.1413 120.467 41.7002 120.467ZM46.3336 97.3C46.3336 99.8589 44.2592 101.933 41.7002 101.933C39.1413 101.933 37.0669 99.8589 37.0669 97.3C37.0669 94.7411 39.1413 92.6667 41.7002 92.6667C44.2592 92.6667 46.3336 94.7411 46.3336 97.3ZM41.7002 139C44.2592 139 46.3336 136.926 46.3336 134.367C46.3336 131.808 44.2592 129.733 41.7002 129.733C39.1413 129.733 37.0669 131.808 37.0669 134.367C37.0669 136.926 39.1413 139 41.7002 139ZM83.4 4.63333C83.4 7.19225 81.3256 9.26667 78.7666 9.26667C76.2077 9.26667 74.1333 7.19225 74.1333 4.63333C74.1333 2.07441 76.2077 0 78.7666 0C81.3256 0 83.4 2.07441 83.4 4.63333ZM78.7666 27.8C81.3256 27.8 83.4 25.7256 83.4 23.1667C83.4 20.6077 81.3256 18.5333 78.7666 18.5333C76.2077 18.5333 74.1333 20.6077 74.1333 23.1667C74.1333 25.7256 76.2077 27.8 78.7666 27.8ZM83.4 41.7C83.4 44.2589 81.3256 46.3333 78.7666 46.3333C76.2077 46.3333 74.1333 44.2589 74.1333 41.7C74.1333 39.1411 76.2077 37.0667 78.7666 37.0667C81.3256 37.0667 83.4 39.1411 83.4 41.7ZM78.7666 64.8667C81.3256 64.8667 83.4 62.7923 83.4 60.2333C83.4 57.6744 81.3256 55.6 78.7666 55.6C76.2077 55.6 74.1333 57.6744 74.1333 60.2333C74.1333 62.7923 76.2077 64.8667 78.7666 64.8667ZM83.4 78.7666C83.4 81.3256 81.3256 83.4 78.7666 83.4C76.2077 83.4 74.1333 81.3256 74.1333 78.7666C74.1333 76.2077 76.2077 74.1333 78.7666 74.1333C81.3256 74.1333 83.4 76.2077 83.4 78.7666ZM78.7666 120.467C81.3256 120.467 83.4 118.392 83.4 115.833C83.4 113.274 81.3256 111.2 78.7666 111.2C76.2077 111.2 74.1333 113.274 74.1333 115.833C74.1333 118.392 76.2077 120.467 78.7666 120.467ZM83.4 97.3C83.4 99.8589 81.3256 101.933 78.7666 101.933C76.2077 101.933 74.1333 99.8589 74.1333 97.3C74.1333 94.7411 76.2077 92.6667 78.7666 92.6667C81.3256 92.6667 83.4 94.7411 83.4 97.3ZM78.7666 139C81.3256 139 83.4 136.926 83.4 134.367C83.4 131.808 81.3256 129.733 78.7666 129.733C76.2077 129.733 74.1333 131.808 74.1333 134.367C74.1333 136.926 76.2077 139 78.7666 139ZM27.7999 4.63333C27.7999 7.19225 25.7255 9.26667 23.1665 9.26667C20.6076 9.26667 18.5332 7.19225 18.5332 4.63333C18.5332 2.07441 20.6076 0 23.1665 0C25.7255 0 27.7999 2.07441 27.7999 4.63333ZM23.1665 27.8C25.7255 27.8 27.7999 25.7256 27.7999 23.1667C27.7999 20.6077 25.7255 18.5333 23.1665 18.5333C20.6076 18.5333 18.5332 20.6077 18.5332 23.1667C18.5332 25.7256 20.6076 27.8 23.1665 27.8ZM27.7999 41.7C27.7999 44.2589 25.7255 46.3333 23.1665 46.3333C20.6076 46.3333 18.5332 44.2589 18.5332 41.7C18.5332 39.1411 20.6076 37.0667 23.1665 37.0667C25.7255 37.0667 27.7999 39.1411 27.7999 41.7ZM23.1665 64.8667C25.7255 64.8667 27.7999 62.7923 27.7999 60.2333C27.7999 57.6744 25.7255 55.6 23.1665 55.6C20.6076 55.6 18.5332 57.6744 18.5332 60.2333C18.5332 62.7923 20.6076 64.8667 23.1665 64.8667ZM27.7999 78.7666C27.7999 81.3256 25.7255 83.4 23.1665 83.4C20.6076 83.4 18.5332 81.3256 18.5332 78.7666C18.5332 76.2077 20.6076 74.1333 23.1665 74.1333C25.7255 74.1333 27.7999 76.2077 27.7999 78.7666ZM23.1665 120.467C25.7255 120.467 27.7999 118.392 27.7999 115.833C27.7999 113.274 25.7255 111.2 23.1665 111.2C20.6076 111.2 18.5332 113.274 18.5332 115.833C18.5332 118.392 20.6076 120.467 23.1665 120.467ZM27.7999 97.3C27.7999 99.8589 25.7255 101.933 23.1665 101.933C20.6076 101.933 18.5332 99.8589 18.5332 97.3C18.5332 94.7411 20.6076 92.6667 23.1665 92.6667C25.7255 92.6667 27.7999 94.7411 27.7999 97.3ZM23.1665 139C25.7255 139 27.7999 136.926 27.7999 134.367C27.7999 131.808 25.7255 129.733 23.1665 129.733C20.6076 129.733 18.5332 131.808 18.5332 134.367C18.5332 136.926 20.6076 139 23.1665 139ZM64.8668 4.63333C64.8668 7.19225 62.7924 9.26667 60.2334 9.26667C57.6745 9.26667 55.6001 7.19225 55.6001 4.63333C55.6001 2.07441 57.6745 0 60.2334 0C62.7924 0 64.8668 2.07441 64.8668 4.63333ZM60.2334 27.8C62.7924 27.8 64.8668 25.7256 64.8668 23.1667C64.8668 20.6077 62.7924 18.5333 60.2334 18.5333C57.6745 18.5333 55.6001 20.6077 55.6001 23.1667C55.6001 25.7256 57.6745 27.8 60.2334 27.8ZM64.8668 41.7C64.8668 44.2589 62.7924 46.3333 60.2334 46.3333C57.6745 46.3333 55.6001 44.2589 55.6001 41.7C55.6001 39.1411 57.6745 37.0667 60.2334 37.0667C62.7924 37.0667 64.8668 39.1411 64.8668 41.7ZM60.2334 64.8667C62.7924 64.8667 64.8668 62.7923 64.8668 60.2333C64.8668 57.6744 62.7924 55.6 60.2334 55.6C57.6745 55.6 55.6001 57.6744 55.6001 60.2333C55.6001 62.7923 57.6745 64.8667 60.2334 64.8667ZM64.8668 78.7666C64.8668 81.3256 62.7924 83.4 60.2334 83.4C57.6745 83.4 55.6001 81.3256 55.6001 78.7666C55.6001 76.2077 57.6745 74.1333 60.2334 74.1333C62.7924 74.1333 64.8668 76.2077 64.8668 78.7666ZM60.2334 120.467C62.7924 120.467 64.8668 118.392 64.8668 115.833C64.8668 113.274 62.7924 111.2 60.2334 111.2C57.6745 111.2 55.6001 113.274 55.6001 115.833C55.6001 118.392 57.6745 120.467 60.2334 120.467ZM64.8668 97.3C64.8668 99.8589 62.7924 101.933 60.2334 101.933C57.6745 101.933 55.6001 99.8589 55.6001 97.3C55.6001 94.7411 57.6745 92.6667 60.2334 92.6667C62.7924 92.6667 64.8668 94.7411 64.8668 97.3ZM60.2334 139C62.7924 139 64.8668 136.926 64.8668 134.367C64.8668 131.808 62.7924 129.733 60.2334 129.733C57.6745 129.733 55.6001 131.808 55.6001 134.367C55.6001 136.926 57.6745 139 60.2334 139ZM101.933 4.63333C101.933 7.19225 99.8588 9.26667 97.2998 9.26667C94.7409 9.26667 92.6665 7.19225 92.6665 4.63333C92.6665 2.07441 94.7409 0 97.2998 0C99.8588 0 101.933 2.07441 101.933 4.63333ZM115.834 9.26667C118.392 9.26667 120.467 7.19225 120.467 4.63333C120.467 2.07441 118.392 0 115.834 0C113.275 0 111.2 2.07441 111.2 4.63333C111.2 7.19225 113.275 9.26667 115.834 9.26667ZM139 4.63333C139 7.19225 136.926 9.26667 134.367 9.26667C131.808 9.26667 129.733 7.19225 129.733 4.63333C129.733 2.07441 131.808 0 134.367 0C136.926 0 139 2.07441 139 4.63333ZM97.2998 27.8C99.8588 27.8 101.933 25.7256 101.933 23.1667C101.933 20.6077 99.8588 18.5333 97.2998 18.5333C94.7409 18.5333 92.6665 20.6077 92.6665 23.1667C92.6665 25.7256 94.7409 27.8 97.2998 27.8ZM120.467 23.1667C120.467 25.7256 118.392 27.8 115.834 27.8C113.275 27.8 111.2 25.7256 111.2 23.1667C111.2 20.6077 113.275 18.5333 115.834 18.5333C118.392 18.5333 120.467 20.6077 120.467 23.1667ZM134.367 27.8C136.926 27.8 139 25.7256 139 23.1667C139 20.6077 136.926 18.5333 134.367 18.5333C131.808 18.5333 129.733 20.6077 129.733 23.1667C129.733 25.7256 131.808 27.8 134.367 27.8ZM101.933 41.7C101.933 44.2589 99.8588 46.3333 97.2998 46.3333C94.7409 46.3333 92.6665 44.2589 92.6665 41.7C92.6665 39.1411 94.7409 37.0667 97.2998 37.0667C99.8588 37.0667 101.933 39.1411 101.933 41.7ZM115.834 46.3333C118.392 46.3333 120.467 44.2589 120.467 41.7C120.467 39.1411 118.392 37.0667 115.834 37.0667C113.275 37.0667 111.2 39.1411 111.2 41.7C111.2 44.2589 113.275 46.3333 115.834 46.3333ZM139 41.7C139 44.2589 136.926 46.3333 134.367 46.3333C131.808 46.3333 129.733 44.2589 129.733 41.7C129.733 39.1411 131.808 37.0667 134.367 37.0667C136.926 37.0667 139 39.1411 139 41.7ZM97.2998 64.8667C99.8588 64.8667 101.933 62.7923 101.933 60.2333C101.933 57.6744 99.8588 55.6 97.2998 55.6C94.7409 55.6 92.6665 57.6744 92.6665 60.2333C92.6665 62.7923 94.7409 64.8667 97.2998 64.8667ZM120.467 60.2333C120.467 62.7923 118.392 64.8667 115.834 64.8667C113.275 64.8667 111.2 62.7923 111.2 60.2333C111.2 57.6744 113.275 55.6 115.834 55.6C118.392 55.6 120.467 57.6744 120.467 60.2333ZM134.367 64.8667C136.926 64.8667 139 62.7923 139 60.2333C139 57.6744 136.926 55.6 134.367 55.6C131.808 55.6 129.733 57.6744 129.733 60.2333C129.733 62.7923 131.808 64.8667 134.367 64.8667ZM101.933 78.7666C101.933 81.3256 99.8588 83.4 97.2998 83.4C94.7409 83.4 92.6665 81.3256 92.6665 78.7666C92.6665 76.2077 94.7409 74.1333 97.2998 74.1333C99.8588 74.1333 101.933 76.2077 101.933 78.7666ZM97.2998 120.467C99.8588 120.467 101.933 118.392 101.933 115.833C101.933 113.274 99.8588 111.2 97.2998 111.2C94.7409 111.2 92.6665 113.274 92.6665 115.833C92.6665 118.392 94.7409 120.467 97.2998 120.467ZM120.467 78.7666C120.467 81.3256 118.392 83.4 115.834 83.4C113.275 83.4 111.2 81.3256 111.2 78.7666C111.2 76.2077 113.275 74.1333 115.834 74.1333C118.392 74.1333 120.467 76.2077 120.467 78.7666ZM115.834 120.467C118.392 120.467 120.467 118.392 120.467 115.833C120.467 113.274 118.392 111.2 115.834 111.2C113.275 111.2 111.2 113.274 111.2 115.833C111.2 118.392 113.275 120.467 115.834 120.467ZM139 78.7666C139 81.3256 136.926 83.4 134.367 83.4C131.808 83.4 129.733 81.3256 129.733 78.7666C129.733 76.2077 131.808 74.1333 134.367 74.1333C136.926 74.1333 139 76.2077 139 78.7666ZM134.367 120.467C136.926 120.467 139 118.392 139 115.833C139 113.274 136.926 111.2 134.367 111.2C131.808 111.2 129.733 113.274 129.733 115.833C129.733 118.392 131.808 120.467 134.367 120.467ZM101.933 97.3C101.933 99.8589 99.8588 101.933 97.2998 101.933C94.7409 101.933 92.6665 99.8589 92.6665 97.3C92.6665 94.7411 94.7409 92.6667 97.2998 92.6667C99.8588 92.6667 101.933 94.7411 101.933 97.3ZM97.2998 139C99.8588 139 101.933 136.926 101.933 134.367C101.933 131.808 99.8588 129.733 97.2998 129.733C94.7409 129.733 92.6665 131.808 92.6665 134.367C92.6665 136.926 94.7409 139 97.2998 139ZM120.467 97.3C120.467 99.8589 118.392 101.933 115.834 101.933C113.275 101.933 111.2 99.8589 111.2 97.3C111.2 94.7411 113.275 92.6667 115.834 92.6667C118.392 92.6667 120.467 94.7411 120.467 97.3ZM115.834 139C118.392 139 120.467 136.926 120.467 134.367C120.467 131.808 118.392 129.733 115.834 129.733C113.275 129.733 111.2 131.808 111.2 134.367C111.2 136.926 113.275 139 115.834 139ZM139 97.3C139 99.8589 136.926 101.933 134.367 101.933C131.808 101.933 129.733 99.8589 129.733 97.3C129.733 94.7411 131.808 92.6667 134.367 92.6667C136.926 92.6667 139 94.7411 139 97.3ZM134.367 139C136.926 139 139 136.926 139 134.367C139 131.808 136.926 129.733 134.367 129.733C131.808 129.733 129.733 131.808 129.733 134.367C129.733 136.926 131.808 139 134.367 139Z" fill="#F5F1ED"/>
</svg>
