<svg xmlns="http://www.w3.org/2000/svg" width="34" height="53" viewBox="0 0 34 53">
    <path fill="#B4CA4D" fill-rule="nonzero" d="M34 29.457c0-8.595-2.87-27.744-2.992-28.555a1.055 1.055 0 0 0-.517-.755 1.097 1.097 0 0 0-.924-.08c-.3.108-7.425 2.728-14.668 7.61-4.285 2.887-7.707 5.968-10.17 9.156C1.59 20.893 0 25.14 0 29.457c0 8.073 5.892 14.821 13.684 16.337.378 2.353.9 4.53 1.556 6.48.15.444.57.726 1.023.726.112 0 .226-.017.338-.053.565-.183.872-.78.686-1.333-.562-1.673-1.022-3.53-1.372-5.535.36.022.72.034 1.085.034 9.374 0 17-7.472 17-16.656zm-32 .237c0-8.63 7.655-15.47 14.076-19.69C20.29 7.238 24.54 5.204 27.316 4c-2.304 3.172-6.821 9.8-9.514 16.427-.217.534.061 1.136.622 1.343.13.048.262.07.393.07a1.09 1.09 0 0 0 1.015-.663c2.708-6.662 7.468-13.521 9.59-16.421C30.25 10.467 32 23.319 32 29.694 32 37.582 25.27 44 17 44 8.729 44 2 37.582 2 29.694zm15.947-4.676c-.703-.106-1.382.26-1.516.815-.267 1.108-.412 2.16-.43 3.127-.012.566.56 1.031 1.275 1.04h.02c.707 0 1.285-.448 1.295-1.009.017-.849.146-1.782.386-2.774.134-.556-.327-1.093-1.03-1.199z"/>
</svg>
