<svg xmlns="http://www.w3.org/2000/svg" width="26" height="41" viewBox="0 0 26 41">
    <path fill="#EAF1CA" fill-rule="nonzero" d="M26 22.787c0-6.648-2.194-21.462-2.288-22.09a.816.816 0 0 0-.396-.583.83.83 0 0 0-.706-.063c-.23.085-5.678 2.11-11.217 5.887-3.276 2.234-5.893 4.618-7.777 7.084C1.216 16.162 0 19.448 0 22.787c0 6.245 4.506 11.466 10.464 12.639.29 1.82.69 3.504 1.19 5.012a.824.824 0 0 0 1.04.52.815.815 0 0 0 .526-1.03 29.613 29.613 0 0 1-1.05-4.282c.275.017.551.027.83.027 7.168 0 13-5.78 13-12.886zm-25 .126c0-6.688 5.869-11.99 10.792-15.26C15.022 5.51 18.28 3.933 20.408 3c-1.766 2.459-5.229 7.595-7.293 12.73a.796.796 0 0 0 .477 1.042.86.86 0 0 0 .301.054c.335 0 .65-.195.778-.514 2.076-5.163 5.726-10.479 7.353-12.726C22.658 8.012 24 17.972 24 22.913 24 29.026 18.841 34 12.5 34S1 29.026 1 22.913zm12.298-2.898c-.469-.085-.921.207-1.01.651A13.92 13.92 0 0 0 12 23.168c-.007.452.374.825.85.832h.014c.471 0 .856-.359.864-.807.01-.68.097-1.426.257-2.22.089-.444-.218-.873-.687-.958z"/>
</svg>
