<svg xmlns="http://www.w3.org/2000/svg" width="30" height="23" viewBox="0 0 30 23">
    <path fill="#3F342A" fill-rule="nonzero" d="M29.464 0H.536A.536.536 0 0 0 0 .536v21.428c0 .296.24.536.536.536h28.928c.296 0 .536-.24.536-.536V.536A.536.536 0 0 0 29.464 0zM9.5 13.223l-7.5 8.035a.536.536 0 1 1-.783-.73l7.5-8.036a.536.536 0 1 1 .783.73zm19.26 8.061a.536.536 0 0 1-.758-.026l-7.5-8.035a.536.536 0 1 1 .783-.731l7.5 8.035a.536.536 0 0 1-.026.757zm-.022-19.266L16.378 12.399a2.138 2.138 0 0 1-2.756 0L1.262 2.018a.536.536 0 1 1 .69-.821L14.31 11.579c.398.335.98.335 1.379 0L28.048 1.197a.536.536 0 1 1 .69.82z"/>
</svg>
