<svg xmlns="http://www.w3.org/2000/svg" width="170" height="54" viewBox="0 0 170 54">
    <g fill="none" fill-rule="evenodd">
        <path fill="#19213D" d="M7.949 4v16.286c0 2.806 1.379 4.339 3.897 4.339 2.52 0 3.898-1.533 3.898-4.34V4h7.795v17.154c0 6.074-4.688 9.952-11.693 9.952-7.004 0-11.692-3.878-11.692-9.952V4h7.795zm20.716 0H40.78c5.902 0 9.873 3.785 9.873 9.712 0 5.872-4.21 9.657-10.406 9.657H36.46v7.275h-7.795V4zm7.795 5.89v7.7h2.188c2.592 0 4.136-1.311 4.136-3.86 0-2.529-1.544-3.84-4.081-3.84H36.46zm36.6 14.532v6.222H54.86V4h7.795v20.422H73.06zm12.185 6.222H77.45V4h7.795v26.644zm12.92 0H90.37V4h18.643v6.223H98.165v5.114h9.818v5.872h-9.818v9.435zm28.824 0h-7.795V10.223h-6.987V4h21.768v6.223h-6.986v20.421zM2.288 53.754H0V38.95h2.288v14.803zm8.886 0H8.948V38.95h2.073l7.64 10.915h.082V38.951h2.227v14.803h-2.064l-7.64-10.905h-.092v10.905zm23.125 0h-2.502l-5.26-14.803h2.482l4.014 12.218h.061l4.024-12.218h2.441L34.3 53.754zm20.183-1.99v1.99h-9.356V38.95h9.356v1.98h-7.068v4.33h6.69v1.907h-6.69v4.596h7.068zm5.639-2.134h2.257c.164 1.467 1.583 2.431 3.524 2.431 1.859 0 3.197-.964 3.197-2.287 0-1.15-.807-1.837-2.717-2.308l-1.91-.462c-2.707-.657-3.963-1.929-3.963-3.99 0-2.555 2.216-4.309 5.362-4.309 3.116 0 5.25 1.754 5.322 4.309h-2.227c-.133-1.478-1.348-2.37-3.125-2.37s-2.993.903-2.993 2.216c0 1.046.776 1.662 2.676 2.133l1.624.4c3.023.719 4.28 1.94 4.28 4.104 0 2.77-2.196 4.503-5.69 4.503-3.268 0-5.474-1.693-5.617-4.37zm23.247 4.124H81.08V40.93h-4.514v-1.98h11.307v1.98h-4.505v12.823zm12.594 0h-2.287V38.95h2.287v14.803zm8.887 0h-2.227V38.95h2.074l7.64 10.915h.082V38.951h2.226v14.803h-2.063l-7.64-10.905h-.092v10.905zM134 47.599c0 4.01-2.36 6.401-6.353 6.401-4.218 0-6.874-2.965-6.874-7.714 0-4.668 2.645-7.58 6.843-7.58 3.279 0 5.761 1.948 6.272 4.903h-2.35c-.551-1.837-1.991-2.893-3.911-2.893-2.82 0-4.515 2.072-4.515 5.55 0 3.538 1.747 5.723 4.555 5.723 2.39 0 4.045-1.538 4.076-3.785v-.256h-3.81V46.09H134v1.508z"/>
        <path fill="#BEDEF1" fill-rule="nonzero" d="M140.093 18.618c6.412-9.72 19.143-2.433 25.43-18.54 0 0 9.213 17.338-.024 31.342-9.237 14.004-20.1 7.319-21.35 6.496a3.625 3.625 0 0 1-.325-.248c8.517-5.304 15.095-15.23 15.095-15.23-3.817 4.81-13.418 8.78-18.823 10.726-2.185-3.629-3.714-8.92-.003-14.546z"/>
    </g>
</svg>
