<?xml version="1.0" encoding="UTF-8"?>
<svg width="180px" height="80px" viewBox="0 0 180 80" version="1.1" xmlns="http://www.w3.org/2000/svg" xmlns:xlink="http://www.w3.org/1999/xlink">
    <!-- Generator: sketchtool 40.3 (33839) - http://www.bohemiancoding.com/sketch -->
    <title>9CCAEE0C-4167-4FF8-B31B-D8046B6FFCFE</title>
    <desc>Created with sketchtool.</desc>
    <defs>
        <rect id="path-1" x="0" y="0" width="180" height="80" rx="2"></rect>
        <mask id="mask-2" maskContentUnits="userSpaceOnUse" maskUnits="objectBoundingBox" x="0" y="0" width="180" height="80" fill="white">
            <use xlink:href="#path-1"></use>
        </mask>
        <polygon id="path-3" points="37 24.9878923 37 0 0 0 0 24.9878923 0 49.9757846 37 49.9757846 37 24.9878923"></polygon>
    </defs>
    <g id="Page-1" stroke="none" stroke-width="1" fill="none" fill-rule="evenodd">
        <g id="01_TPi_Homepage" transform="translate(-970.000000, -2700.000000)">
            <g id="GIỚI-THIỆU-Copy" transform="translate(0.000000, 2393.000000)">
                <g id="Group-14" transform="translate(370.000000, 307.000000)">
                    <g id="Group-10">
                        <g id="Group-23" transform="translate(600.000000, 0.000000)">
                            <use id="Rectangle-5-Copy-6" stroke="#FFE0C1" mask="url(#mask-2)" stroke-width="2" fill="#FFFAF5" xlink:href="#path-1"></use>
                            <g id="Page-1" transform="translate(72.000000, 15.000000)">
                                <mask id="mask-4" fill="white">
                                    <use xlink:href="#path-3"></use>
                                </mask>
                                <g id="Clip-2"></g>
                                <path d="M30.1109131,44.7421022 L30.1109131,43.339765 L37,43.339765 L37,44.7421022 L34.3300668,44.7421022 L34.3300668,49.9758251 L32.6819599,49.9758251 L32.6819599,44.7421022 L30.1109131,44.7421022 Z M25.8587973,43.339765 L25.9,43.339765 C26.3532294,43.339765 26.732294,43.4065429 27.0536748,43.5234044 C27.3832962,43.6486131 27.6469933,43.8072107 27.8530067,43.9991974 C28.05902,44.1995313 28.2155902,44.4249069 28.3062361,44.6753242 C28.4051225,44.9340888 28.4463252,45.1928535 28.4463252,45.4683126 C28.4463252,45.7354244 28.4051225,45.994189 28.3062361,46.2529536 C28.2155902,46.5117182 28.05902,46.7370939 27.8612472,46.9374277 C27.6552339,47.1377616 27.3832962,47.2963593 27.0619154,47.4132207 C26.732294,47.5384294 26.3367483,47.5968601 25.8670379,47.5968601 L23.2383073,47.5968601 L23.2383073,49.9758251 L21.5902004,49.9758251 L21.5902004,43.339765 L25.8587973,43.339765 Z M25.4138085,46.469982 C25.6033408,46.469982 25.7846325,46.4532875 25.9576837,46.436593 C26.130735,46.4115513 26.2873051,46.3614678 26.4191537,46.2946899 C26.5510022,46.2195646 26.6581292,46.1193977 26.7405345,45.994189 C26.8229399,45.8606331 26.855902,45.6936882 26.855902,45.4766598 C26.855902,45.2679787 26.8229399,45.0926865 26.7405345,44.9591306 C26.6581292,44.8255747 26.5510022,44.7254077 26.4191537,44.6586298 C26.2873051,44.5835045 26.130735,44.5417683 25.9576837,44.5167266 C25.7846325,44.4916848 25.6033408,44.4833376 25.4138085,44.4833376 L23.2300668,44.4833376 L23.2300668,46.4783292 L25.4138085,46.469982 Z M12.1547884,43.339765 L16.1267261,47.797194 L16.1432071,47.797194 L16.1267261,43.339765 L17.667706,43.339765 L17.667706,49.9758251 L16.0195991,49.9758251 L11.9158129,45.4432708 L11.8993318,45.4432708 L11.8993318,49.9758251 L10.3501114,49.9758251 L10.3501114,43.339765 L12.1547884,43.339765 Z M3.23853007,49.9758251 L0,43.339765 L1.68106904,43.339765 L4.00489978,48.0058752 L4.02962138,48.0058752 L6.20512249,43.339765 L7.90267261,43.339765 L4.76302895,49.9758251 L3.23853007,49.9758251 Z M34.2064588,0.501701536 C35.8957684,1.88734427 35.8957684,4.78383843 33.6790646,10.7521189 C30.8690423,18.2980287 24.235412,25.6436047 20.9144766,29.1160588 C17.1732739,33.0142224 9.9298441,38.2145563 6.93853007,36.3865095 C4.19443207,34.6920187 6.13095768,29.600199 6.31224944,29.0659753 C7.82026726,24.4582959 11.8334076,18.4900154 12.4020045,14.4749904 C12.9953229,10.1177282 11.5944321,9.01589185 10.4407572,8.40654294 C9.73207127,8.0309169 6.29576837,6.95412224 3.4857461,12.763805 C0.675723831,18.5734878 3.21380846,24.9006999 3.21380846,24.9006999 C2.16726058,22.7053743 1.59042316,20.2429369 1.59042316,17.6385964 C1.59042316,8.43158468 8.90801782,0.952452789 17.9726058,0.952452789 C20.7826281,0.952452789 23.4525612,1.67866314 25.7599109,2.95579169 C25.7599109,2.96413893 31.8002227,-1.45990113 34.2064588,0.501701536 L34.2064588,0.501701536 Z M32.5501114,2.21288685 C31.0091314,0.510048782 26.7652561,3.5651406 26.7652561,3.5651406 C28.7100223,4.82557466 30.3581292,6.49502374 31.6271715,8.45662641 C31.635412,8.45662641 34.0004454,3.82390521 32.5501114,2.21288685 L32.5501114,2.21288685 Z M34.1240535,14.5835045 C34.2888641,15.551785 34.3465479,16.6285797 34.3465479,17.6469436 C34.3465479,26.7287466 27.2267261,34.1077116 18.3681514,34.3330872 C18.3681514,34.3330872 23.2547884,32.1127199 28.5699332,24.9925196 C33.7449889,18.0392641 34.1240535,14.5835045 34.1240535,14.5835045 L34.1240535,14.5835045 Z" id="Fill-1" fill="#0058AF" mask="url(#mask-4)"></path>
                            </g>
                        </g>
                    </g>
                </g>
            </g>
        </g>
    </g>
</svg>