<svg width="12" height="13" viewBox="0 0 12 13" fill="none" xmlns="http://www.w3.org/2000/svg">
<path d="M5.588 0.347323C2.40333 0.561323 0 3.35332 0 6.54532V11.6667C0 12.4033 0.596667 13 1.33333 13H2.66667C3.03467 13 3.33333 12.7013 3.33333 12.3333V8.99999C3.33333 8.63199 3.03467 8.33332 2.66667 8.33332H1.33333V6.49599C1.33333 4.12466 3.034 2.00799 5.386 1.70666C8.232 1.34132 10.6667 3.55799 10.6667 6.33332V8.33332H9.33333C8.96533 8.33332 8.66667 8.63199 8.66667 8.99999V12.3333C8.66667 12.7013 8.96533 13 9.33333 13H10.6667C11.4033 13 12 12.4033 12 11.6667V6.33332C12 2.88932 9.082 0.112656 5.588 0.347323Z" fill="#F15A25"/>
</svg>
