<svg width="14" height="12" viewBox="0 0 14 12" fill="none" xmlns="http://www.w3.org/2000/svg">
<path d="M1.33333 0C0.596667 0 0 0.596667 0 1.33333V10C0 11.1047 0.895333 12 2 12H11.3333C12.43 12 13.3333 11.0966 13.3333 10V3.33333C13.3346 3.24414 13.3179 3.15561 13.2843 3.07298C13.2506 2.99036 13.2008 2.91531 13.1377 2.8523C13.0745 2.78928 12.9994 2.73958 12.9167 2.70613C12.834 2.67268 12.7454 2.65616 12.6562 2.65755C12.4797 2.66031 12.3114 2.73302 12.1884 2.85972C12.0653 2.98641 11.9976 3.15675 12 3.33333V10C12 10.3767 11.71 10.6667 11.3333 10.6667C10.9653 10.6667 10.6667 10.3673 10.6667 10V1.33333C10.6667 0.596667 10.07 0 9.33333 0H1.33333ZM3.33333 2H7.33333C7.70133 2 8 2.29867 8 2.66667V3.33333C8 3.70133 7.70133 4 7.33333 4H3.33333C2.96533 4 2.66667 3.70133 2.66667 3.33333V2.66667C2.66667 2.29867 2.96533 2 3.33333 2ZM3.33333 6H7.33333C7.70133 6 8 6.29867 8 6.66667C8 7.03467 7.70133 7.33333 7.33333 7.33333H3.33333C2.96533 7.33333 2.66667 7.03467 2.66667 6.66667C2.66667 6.29867 2.96533 6 3.33333 6ZM3.33333 8.66667H7.33333C7.70133 8.66667 8 8.96533 8 9.33333C8 9.70133 7.70133 10 7.33333 10H3.33333C2.96533 10 2.66667 9.70133 2.66667 9.33333C2.66667 8.96533 2.96533 8.66667 3.33333 8.66667Z" fill="#F15A25"/>
</svg>
