<svg width="10" height="14" viewBox="0 0 10 14" fill="none" xmlns="http://www.w3.org/2000/svg">
<path d="M9.26671 3.26667L6.73337 0.733336C6.46671 0.466669 6.13337 0.333336 5.80004 0.333336H1.66671C0.933374 0.333336 0.333374 0.933336 0.333374 1.66667V12.3333C0.333374 13.0667 0.933374 13.6667 1.66671 13.6667H8.33337C9.06671 13.6667 9.66671 13.0667 9.66671 12.3333V4.2C9.66671 3.86667 9.53337 3.53334 9.26671 3.26667ZM7.00004 11.6667H3.00004C2.60004 11.6667 2.33337 11.4 2.33337 11V6.33334C2.33337 5.93334 2.60004 5.66667 3.00004 5.66667H7.00004C7.40004 5.66667 7.66671 5.93334 7.66671 6.33334V11C7.66671 11.4 7.40004 11.6667 7.00004 11.6667Z" fill="#F15A25"/>
</svg>
