<svg width="10" height="16" viewBox="0 0 10 16" fill="none" xmlns="http://www.w3.org/2000/svg">
<path d="M3.06254 0.666664C2.75987 0.666664 2.49534 0.870758 2.41801 1.16276L1.82296 3.40885C0.9715 3.63812 0.333374 4.41394 0.333374 5.33333V10.6667C0.333374 11.5861 0.9715 12.3619 1.82296 12.5911L2.41801 14.8372C2.49534 15.1292 2.75987 15.3333 3.06254 15.3333H6.27087C6.57354 15.3333 6.83807 15.1292 6.91541 14.8372L7.51046 12.5911C8.36191 12.3619 9.00004 11.5861 9.00004 10.6667V8C9.36804 8 9.66671 7.70133 9.66671 7.33333V6C9.66671 5.632 9.36804 5.33333 9.00004 5.33333C9.00004 4.41394 8.36191 3.63812 7.51046 3.40885L6.91671 1.16276C6.83937 0.870758 6.57484 0.666664 6.27218 0.666664H3.06254ZM2.33337 4.66666H7.00004C7.37673 4.66666 7.66671 4.95664 7.66671 5.33333V10.6667C7.66671 11.0434 7.37673 11.3333 7.00004 11.3333H2.33337C1.95669 11.3333 1.66671 11.0434 1.66671 10.6667V5.33333C1.66671 4.95664 1.95669 4.66666 2.33337 4.66666Z" fill="#F15A25"/>
</svg>
