<svg xmlns="http://www.w3.org/2000/svg" width="150" height="80" viewBox="0 0 150 80">
    <path fill="#DDF36F" fill-rule="nonzero" d="M74.302 33.384c2.88 7.296 4.912 9.696 4.911 14.47 0 7.565-5.73 14.18-13.477 14.65V78.82c0 .652-.522 1.18-1.167 1.18a1.174 1.174 0 0 1-1.167-1.18V62.505c-5.078-.31-9.33-3.256-11.65-7.494a17.886 17.886 0 0 1-10.483 3.927v19.881c0 .652-.522 1.181-1.167 1.181a1.174 1.174 0 0 1-1.167-1.18V58.94a18.23 18.23 0 0 1-4.263-.693 1.184 1.184 0 0 1-.802-1.461 1.165 1.165 0 0 1 1.443-.81 15.92 15.92 0 0 0 3.622.6V48.49c-.95-1.197-3.348-4.28-8.345-10.631a1.19 1.19 0 0 1 .19-1.659 1.158 1.158 0 0 1 1.64.192l6.515 8.317V22.245c0-.652.523-1.18 1.167-1.18.645 0 1.168.528 1.168 1.18v13.377l4.815-3.69a1.158 1.158 0 0 1 1.635.229c.39.52.289 1.26-.225 1.654l-6.225 4.77v17.99a15.8 15.8 0 0 0 11.36-5.64v-.001c3.868-4.589 5.113-11.304 2.51-17.35l-6.468-15.036-.003-.006v-.002l-.002-.003v.001l-.002-.006-.01-.023.007.016-.008-.017v-.002l-.001-.002-.004-.01a1.186 1.186 0 0 1 .605-1.553 1.161 1.161 0 0 1 1.537.61l5.428 12.62 4.498-10.454c1.47-3.411 6.242-3.4 7.705 0l4.017 9.338a1.185 1.185 0 0 1-.606 1.552 1.161 1.161 0 0 1-1.536-.61l-4.017-9.338c-.654-1.524-2.774-1.51-3.42 0L57.49 33.14v.002a18.97 18.97 0 0 1 .906 11.143c.516.605 2.01 2.498 5.006 6.256V34.103c0-.652.523-1.18 1.168-1.18.644 0 1.167.528 1.167 1.18v9.706l3.256-2.495a1.159 1.159 0 0 1 1.636.228c.389.52.288 1.26-.226 1.654l-4.666 3.575v13.37c8.416-.614 13.425-9.546 10.117-17.231l-3.693-8.583a1.186 1.186 0 0 1 .605-1.554c.59-.261 1.28.015 1.536.611zm-11.1 27.248V54.72c-.827-1.054-2.747-3.516-5.932-7.562-.955 2.514-2.447 4.812-4.18 6.586 1.881 3.856 5.642 6.563 10.112 6.888zM48.778 12.79a1.19 1.19 0 0 1-.613 1.564 1.18 1.18 0 0 1-1.556-.615l-4.18-9.655c-.99-2.284-4.19-2.281-5.18 0-13.576 31.357-13.176 30.09-13.664 32.382-1.482 6.912 1.649 13.963 7.397 17.567 1.007.631.557 2.197-.628 2.197-.212 0-.429-.058-.622-.18a18.236 18.236 0 0 1-1.853-1.328 14.855 14.855 0 0 1-3.585 4.408 1.18 1.18 0 0 1-1.665-.16 1.191 1.191 0 0 1 .16-1.673 12.503 12.503 0 0 0 3.288-4.251C21.53 48.22 21.06 42.653 21.05 42.622c-.212.357-.086.135-5.026 3.935v13.454c.489-.067 1.537-.101 3.032-.613a1.18 1.18 0 0 1 1.501.74 1.19 1.19 0 0 1-.738 1.508c-1.955.673-3.459.705-3.795.748v16.418c0 .656-.53 1.188-1.182 1.188a1.185 1.185 0 0 1-1.183-1.188V62.394C3.632 61.787-2.846 51.155 1.243 41.722l9.696-22.394c1.48-3.424 6.317-3.432 7.804 0l4.664 10.77L35.08 3.135c1.809-4.179 7.705-4.184 9.516 0l4.181 9.654zM20.705 41.187a18.801 18.801 0 0 1 1.205-8.007L16.464 20.5c-.647-1.512-2.752-1.508-3.4 0l-9.51 22.142c-3.3 7.679 1.715 16.538 10.05 17.146v-5.818c-.198-.16.17.248-6.3-8.005a1.185 1.185 0 0 1 .188-1.651 1.15 1.15 0 0 1 1.63.191l4.482 5.73V33.88c0-.649.52-1.175 1.16-1.175.64 0 1.16.526 1.16 1.175v9.659l3.235-2.483a1.149 1.149 0 0 1 1.546.132zm125.908 6.493c1.985 5.058 3.388 6.722 3.387 10.032 0 5.245-3.953 9.831-9.295 10.158v11.311c0 .452-.36.819-.805.819a.812.812 0 0 1-.805-.819V67.87c-3.501-.214-6.434-2.257-8.034-5.195a12.296 12.296 0 0 1-7.23 2.722V79.18c0 .452-.36.819-.804.819a.812.812 0 0 1-.805-.819V65.398a12.51 12.51 0 0 1-2.94-.48.821.821 0 0 1-.553-1.013.803.803 0 0 1 .995-.561c.805.234 1.644.373 2.498.416v-5.607c-.655-.83-2.309-2.968-5.756-7.371a.828.828 0 0 1 .131-1.15.796.796 0 0 1 1.131.133l4.494 5.766V39.956c0-.452.36-.818.805-.818.444 0 .805.366.805.818v9.275l3.32-2.558a.796.796 0 0 1 1.128.158.828.828 0 0 1-.155 1.147l-4.293 3.307v12.473a10.876 10.876 0 0 0 7.835-3.91c2.667-3.182 3.526-7.838 1.731-12.03l-4.461-10.425-.002-.004v-.001l-.002-.002-.001-.004-.007-.015.005.01-.005-.011v-.002l-.001-.001-.003-.007a.824.824 0 0 1 .418-1.077.8.8 0 0 1 1.059.424l3.744 8.749 3.102-7.249c1.013-2.364 4.305-2.357 5.313 0l2.77 6.475a.823.823 0 0 1-.417 1.076.8.8 0 0 1-1.06-.423l-2.77-6.474a1.276 1.276 0 0 0-2.359 0l-3.703 8.653v.002a13.218 13.218 0 0 1 .625 7.726c.356.419 1.387 1.732 3.453 4.337V48.178c0-.452.36-.818.805-.818.444 0 .805.366.805.818v6.73l2.246-1.73a.796.796 0 0 1 1.127.158.828.828 0 0 1-.155 1.146l-3.218 2.48v9.269c5.804-.425 9.259-6.618 6.977-11.947l-2.547-5.95a.824.824 0 0 1 .417-1.078.8.8 0 0 1 1.06.424zm-7.568 18.846v-4.064c-.551-.725-1.831-2.417-3.955-5.199-.636 1.728-1.631 3.308-2.787 4.528 1.255 2.651 3.762 4.512 6.742 4.735zm-10.18-33.219a.83.83 0 0 1-.423 1.086.811.811 0 0 1-1.073-.427l-2.883-6.708c-.683-1.586-2.89-1.584-3.573 0-9.362 21.785-9.086 20.905-9.423 22.498-1.022 4.801 1.137 9.7 5.101 12.204.695.438.385 1.526-.432 1.526a.8.8 0 0 1-.43-.125c-.447-.282-.873-.59-1.277-.923a10.306 10.306 0 0 1-2.473 3.063.81.81 0 0 1-1.148-.111.832.832 0 0 1 .11-1.163 8.678 8.678 0 0 0 2.268-2.953c-3.137-3.353-3.46-7.22-3.468-7.242-.146.248-.06.094-3.466 2.734v9.347c.337-.046 1.06-.07 2.091-.426a.813.813 0 0 1 1.035.514.828.828 0 0 1-.509 1.048c-1.348.467-2.385.49-2.617.52v11.405a.82.82 0 0 1-.815.826.82.82 0 0 1-.816-.826V67.768c-6.915-.421-11.382-7.808-8.562-14.361l6.687-15.558c1.02-2.379 4.356-2.385 5.382 0l3.216 7.482 8.052-18.73c1.247-2.904 5.314-2.908 6.562 0l2.884 6.706zm-19.31 20.043a13.54 13.54 0 0 1 .838-5.672l-3.788-8.98a1.273 1.273 0 0 0-2.366 0L97.623 54.38c-2.295 5.439 1.194 11.715 6.992 12.145v-4.121c-.137-.113.118.175-4.383-5.67a.85.85 0 0 1 .132-1.17.79.79 0 0 1 1.133.136l3.118 4.059V48.173a.82.82 0 0 1 .807-.832.82.82 0 0 1 .807.832v6.842l2.25-1.76a.789.789 0 0 1 1.076.095z"/>
</svg>
