<svg xmlns="http://www.w3.org/2000/svg" width="45" height="71" viewBox="0 0 45 71">
    <path fill="#E9F0C9" fill-rule="nonzero" d="M45 39.461c0-11.513-3.798-37.167-3.96-38.253a1.414 1.414 0 0 0-.685-1.01 1.437 1.437 0 0 0-1.222-.11c-.397.147-9.827 3.656-19.414 10.195-5.67 3.87-10.2 7.996-13.46 12.267C2.105 27.988 0 33.678 0 39.46c0 10.815 7.798 19.855 18.11 21.886.502 3.152 1.194 6.07 2.06 8.68a1.426 1.426 0 0 0 1.802.902 1.412 1.412 0 0 0 .908-1.786c-.744-2.24-1.352-4.73-1.816-7.415.475.03.954.047 1.436.047 12.407 0 22.5-10.01 22.5-22.314zm-42.148 0c0-11.752 10.027-21.07 18.438-26.816 5.518-3.77 11.085-6.54 14.721-8.178-3.017 4.32-8.934 13.346-12.46 22.372a1.41 1.41 0 0 0 .814 1.83 1.434 1.434 0 0 0 1.845-.807C29.756 18.787 35.99 9.446 38.77 5.496c1.083 7.779 3.377 25.283 3.377 33.965 0 10.744-8.814 19.485-19.648 19.485S2.852 50.205 2.852 39.46zm20.095-5.435c-.703-.15-1.382.362-1.516 1.14a28.261 28.261 0 0 0-.43 4.378c-.012.792.56 1.444 1.275 1.456h.02c.707 0 1.285-.628 1.295-1.413.017-1.188.146-2.494.386-3.883.134-.778-.327-1.53-1.03-1.678z"/>
</svg>
