<svg xmlns="http://www.w3.org/2000/svg" width="16" height="16" viewBox="0 0 16 16">
    <path fill="#0077B7" fill-rule="nonzero" d="M14.553 0H1.447C.648 0 0 .648 0 1.447v13.106C0 15.352.648 16 1.447 16h13.106c.799 0 1.447-.648 1.447-1.447V1.447C16 .648 15.352 0 14.553 0zM4.95 13.815a.421.421 0 0 1-.421.422H2.737a.421.421 0 0 1-.421-.422V6.3c0-.233.188-.422.421-.422H4.53c.233 0 .421.189.421.422v7.515zM3.633 5.17a1.703 1.703 0 1 1 0-3.407 1.703 1.703 0 0 1 0 3.407zm10.688 8.68a.387.387 0 0 1-.387.387H12.01a.387.387 0 0 1-.388-.388v-3.525c0-.526.155-2.305-1.374-2.305-1.186 0-1.426 1.218-1.475 1.764v4.066a.387.387 0 0 1-.387.388h-1.86a.387.387 0 0 1-.388-.388V6.266c0-.214.174-.388.387-.388h1.861c.214 0 .387.174.387.388v.655c.44-.66 1.094-1.169 2.485-1.169 3.08 0 3.063 2.878 3.063 4.46v3.637z"/>
</svg>
