<svg xmlns="http://www.w3.org/2000/svg" width="318" height="234" viewBox="0 0 318 234">
    <path fill="#FFF" fill-rule="nonzero" d="M270.3 0C296.8 0 318 21.273 318 47.864c0 26.59-21.2 47.863-47.7 47.863-10.126 0-19.473-3.114-27.164-8.436L201.4 135.08l-.076.087c9.913 10.475 15.976 24.658 15.976 40.332 0 32.441-25.97 58.5-58.3 58.5s-58.3-26.06-58.3-58.5c0-14.86 5.451-28.378 14.464-38.668l-.154-.155-56.28-58.47c-6.068 4.337-13.52 6.884-21.63 6.884C16.43 85.09 0 68.605 0 47.864c0-20.741 16.43-37.228 37.1-37.227 18.867 0 34.195 13.739 36.726 31.909h149.068C225.502 18.494 245.594 0 270.3 0zM39.75 34.244c3.408 0 5.68 2.283 5.679 5.708 0 3.424-2.272 5.707-5.679 5.707-3.407 0-5.679 2.283-5.679 5.707s-2.27 5.707-5.678 5.707c-3.407 0-5.679-2.283-5.679-5.707 0-9.703 7.382-17.122 17.037-17.122zM10.6 47.864c0 14.89 11.66 26.59 26.5 26.59 6.526 0 12.435-2.263 17.01-6.065.254-.49.588-.957 1.01-1.38 5.3-5.318 7.95-11.7 7.95-19.145 0-.836.15-1.525.44-2.145-1.058-13.853-12.29-24.446-26.41-24.446-14.84 0-26.5 11.7-26.5 26.59zm143.431 89.112c2.982 0 4.969 1.997 4.969 4.993 0 2.997-1.987 4.994-4.969 4.994-13.913 0-24.844 10.987-24.844 24.97 0 2.996-1.987 4.994-4.968 4.994-2.982 0-4.969-1.998-4.969-4.994 0-19.476 15.403-34.957 34.781-34.957zM159 223.364c26.5 0 47.7-21.273 47.7-47.864 0-13.771-5.695-26.105-14.857-34.807a5.627 5.627 0 0 1-1.573-.825c-7.863-6.962-16.937-11.087-26.87-12.024-.197-.019-.395-.03-.593-.045a47.334 47.334 0 0 0-1.525-.106 48.565 48.565 0 0 0-2.281-.057c-.774 0-1.541.022-2.305.058-11.349.563-22.115 5.267-30.556 13.238-.16.08-.32.16-.48.237-8.872 8.674-14.36 20.811-14.36 34.331 0 26.591 21.2 47.864 47.7 47.864zm34.45-95.727l41.269-47.781a47.61 47.61 0 0 1-4.345-5.683c-4.29-6.39-6.963-13.8-7.774-21.523H73.892c-.856 6.847-3.522 13.08-7.516 18.214l56.054 58.9c9.81-8.29 22.138-12.53 35.019-12.743l.136-.003c.295-.004.59-.018.885-.018.07 0 .14.004.21.004.108 0 .213-.004.32-.004 12.764 0 24.535 4.065 34.11 10.978l.34-.341zM270.3 85.09c20.67 0 37.1-16.486 37.1-37.227 0-20.741-16.43-37.227-37.1-37.227s-37.1 16.486-37.1 37.227c0 10.579 4.722 20.63 12.595 28.064 6.511 5.715 15.063 9.163 24.505 9.163zm2.272-62.262c3.407 0 5.678 2.284 5.678 5.708 0 3.424-2.271 5.707-5.678 5.707-9.654 0-17.037 7.42-17.037 17.122 0 3.424-2.27 5.707-5.678 5.707-3.407 0-5.678-2.283-5.678-5.707 0-15.98 12.493-28.537 28.393-28.537z"/>
</svg>
