<svg xmlns="http://www.w3.org/2000/svg" xmlns:xlink="http://www.w3.org/1999/xlink" width="1440" height="464" viewBox="0 0 1440 464">
    <defs>
        <path id="a" d="M0 0h1447v530H0z"/>
    </defs>
    <g fill="none" fill-rule="evenodd" transform="matrix(-1 0 0 1 1443 -66)">
        <mask id="b" fill="#fff">
            <use xlink:href="#a"/>
        </mask>
        <g mask="url(#b)">
            <path fill="#B8D432" fill-opacity=".363" d="M-98.288 471.255s129.777 13.846 221.522-30.064 288.812-216.72 390.12-184.207c101.309 32.513 207.244 249.452 344.75 173.029 137.507-76.423 194.983-273.374 265.466-273.374s182.647 342.556 304.664 355.355c122.017 12.8 182.21 17.562 182.21 17.562l-15.548 38.168H-98.034l-.254-96.469z" opacity=".174"/>
            <path fill="#DDF36F" fill-opacity=".37" d="M-524.432 519.408s233.935 9.897 321.508-131.596C-115.35 246.32-50.572-18.323 28.004 88.434 106.581 195.19 278.39 460.188 465.092 407.569c186.703-52.618 197.5-197.658 345.829-139.2 148.33 58.456 315.416 273.731 627.687 244.85 312.272-28.88-66.943 50.766-66.943 50.766l-1896.097 5.079v-49.656z"/>
        </g>
    </g>
</svg>
