<svg xmlns="http://www.w3.org/2000/svg" width="70" height="70" viewBox="0 0 70 70">
    <g fill="none" fill-rule="evenodd">
        <path fill="#B8D432" fill-rule="nonzero" d="M70 20v17.5c0 11.028-8.972 20-20 20h-2.226c-9.377 0-18.193 3.653-24.825 10.284l-1.699 1.698V52.5a1.25 1.25 0 1 0-2.5 0v4.936C8.305 56.786 0 48.106 0 37.5V20C0 8.973 8.973 0 20 0h30c11.028 0 20 8.973 20 20zm-19.14 4.874c-5.258.152-12.252.812-19.96 2.13-7.707 1.32-9.36-.814-10.106-3.195-.844-2.696.032-4.055.032-4.055 4.988-.806 5.424-3.965 5.299-5.763-.498.621-1.262 1.029-1.895 1.052-.453.017-1.845-1.393-4.09.87.125-1.24-.47-2.058-1.987-2.48-1.556-.434-2.749 1.655-5.12-.433-.498 6.569 4.738 6.754 4.738 6.754-2.133 11.665 6.75 17.602 6.902 18.313.154.71-2.399 1.42-1.94 2.131.46.71 3.574.559 5.412.202 8.932 2.334 10.867 2.789 21.54 2.539 8.59-.204 8.494-7.717 8.24-10.36-.499-5.195-1.807-7.857-7.065-7.705z"/>
    </g>
</svg>
