<svg xmlns="http://www.w3.org/2000/svg" width="59" height="70" viewBox="0 0 59 70">
    <path fill="#B8D432" fill-rule="nonzero" d="M34.095 49.297c.006-.012.007-.013 0 0zm-1.36-34.067c20.072 8.263 49.384 58.785-9.154 54.51-42.306-3.088-18.056-45.657-.803-54.137C16.996 11.856 13.3 3.253 15.452.888c2.648-2.91 7.365 2.31 11.696 1.787 3.054-.453 9.372-3.022 12.28-2.436 2.19.44-1.367 10.518-6.692 14.991zm1.095 31.267c.243.267.393.59.466.944.134.65.069 1.37-.26 1.954-.689 1.225-2.195 1.7-3.506 1.849v-6.262c.808.213 1.622.448 2.366.836.342.179.672.393.934.68zm.199 2.935l.02-.037a2.37 2.37 0 0 0-.02.037zm-9.651-12.944c.602-.88 1.702-1.338 2.708-1.553v5.666a13.845 13.845 0 0 1-1.096-.381 5.918 5.918 0 0 1-1.126-.581c-.312-.213-.614-.476-.758-.834-.151-.375-.173-.818-.134-1.216.039-.398.18-.772.406-1.101zm9.736 12.861c-.025.045-.052.091-.078.14l.078-.14zm3.65-.547c.135-1.251-.07-2.568-.695-3.67.12.211.235.412-.005-.01-.245-.429-.126-.22-.005-.006-.785-1.373-2.15-2.243-3.588-2.81-.953-.376-1.948-.636-2.942-.874v-6.52c.837.15 1.674.415 2.364.924.319.235.598.52.813.853.111.172.207.353.282.543.073.187.11.386.181.574a1.737 1.737 0 0 0 1.532 1.103 1.738 1.738 0 0 0 1.635-.992c.143-.304.194-.648.144-.981a3.826 3.826 0 0 0-.162-.614 6.57 6.57 0 0 0-1.62-2.608c-1.213-1.196-2.836-1.881-4.495-2.182a12.54 12.54 0 0 0-.673-.102V29.537c0-.666-.398-1.286-1.003-1.565a1.736 1.736 0 0 0-1.859.275c-.367.324-.581.799-.581 1.29V31.44c-1.69.24-3.375.89-4.643 2.058a6.085 6.085 0 0 0-1.413 1.938 5.873 5.873 0 0 0-.516 2.496c.007.847.16 1.7.532 2.465.353.725.89 1.337 1.525 1.83 1.304 1.015 2.935 1.543 4.514 1.952v6.813c-.808-.227-1.582-.608-2.19-1.194a4.389 4.389 0 0 1-.757-.968 3.836 3.836 0 0 1-.265-.565c-.073-.196-.118-.4-.183-.598a1.736 1.736 0 0 0-1.481-1.173 1.737 1.737 0 0 0-1.68.918 1.723 1.723 0 0 0-.186.97c.02.198.079.392.135.582a7.592 7.592 0 0 0 1.513 2.768c1.096 1.282 2.595 2.148 4.212 2.592.291.08.586.147.882.203v2.004c0 .666.398 1.287 1.003 1.565a1.736 1.736 0 0 0 1.86-.275c.366-.324.58-.799.58-1.29v-1.833c1.73-.14 3.472-.64 4.86-1.717 1.315-1.019 2.194-2.52 2.374-4.179zm-3.701.638l-.078.139.078-.14z"/>
</svg>
