<svg xmlns="http://www.w3.org/2000/svg" width="17" height="16" viewBox="0 0 17 16">
    <path fill="#495786" fill-rule="nonzero" d="M16.704 9.81v6.174h-3.581V10.22c0-1.45-.517-2.434-1.813-2.434-.99 0-1.576.667-1.836 1.309-.094.23-.123.554-.123.874v6.014H5.773s.048-9.758 0-10.769h3.579v1.527c-.005.012-.016.023-.02.037h.02V6.74c.478-.734 1.325-1.78 3.227-1.78 2.361 0 4.125 1.54 4.125 4.848zM2.026.021C.802.022 0 .825 0 1.885c0 1.03.778 1.86 1.98 1.86h.022c1.251 0 2.027-.83 2.027-1.86C4.004.825 3.253.022 2.026.022zM.214 15.984h3.58V5.214H.213v10.77z"/>
</svg>
