<svg width="12" height="12" viewBox="0 0 12 12" fill="none" xmlns="http://www.w3.org/2000/svg">
<path d="M11 6C11 8.76125 8.76125 11 6 11C3.23875 11 1 8.76125 1 6C1 3.23875 3.23875 1 6 1C8.76125 1 11 3.23875 11 6Z" fill="url(#paint0_linear)"/>
<path opacity="0.05" d="M8.043 4.04292L5.5 6.58592L4.207 5.29292C4.01175 5.09767 3.69525 5.09767 3.5 5.29292L3.1465 5.64642C2.95125 5.84167 2.95125 6.15817 3.1465 6.35342L5.1465 8.35342C5.34175 8.54867 5.65825 8.54867 5.8535 8.35342L9.1035 5.10342C9.29875 4.90817 9.29875 4.59167 9.1035 4.39642L8.75 4.04292C8.55475 3.84767 8.23825 3.84767 8.043 4.04292Z" fill="black"/>
<path opacity="0.07" d="M5.23474 8.26511L3.23474 6.26511C3.08824 6.11861 3.08824 5.88111 3.23474 5.73486L3.58824 5.38136C3.73474 5.23486 3.97224 5.23486 4.11849 5.38136L5.49999 6.76261L8.13124 4.13136C8.27774 3.98486 8.51524 3.98486 8.66149 4.13136L9.01499 4.48486C9.16149 4.63136 9.16149 4.86886 9.01499 5.01511L5.76499 8.26511C5.61874 8.41136 5.38124 8.41136 5.23474 8.26511Z" fill="black"/>
<path d="M5.32325 8.1768L3.32325 6.1768C3.2255 6.07905 3.2255 5.9208 3.32325 5.8233L3.67675 5.4698C3.7745 5.37205 3.93275 5.37205 4.03025 5.4698L5.5 6.93955L8.21975 4.2198C8.3175 4.12205 8.47575 4.12205 8.57325 4.2198L8.92675 4.5733C9.0245 4.67105 9.0245 4.8293 8.92675 4.9268L5.67675 8.1768C5.57925 8.27455 5.42075 8.27455 5.32325 8.1768Z" fill="white"/>
<defs>
<linearGradient id="paint0_linear" x1="2.4645" y1="2.4645" x2="9.5355" y2="9.5355" gradientUnits="userSpaceOnUse">
<stop stop-color="#21AD64"/>
<stop offset="1" stop-color="#088242"/>
</linearGradient>
</defs>
</svg>
