<svg width="24" height="24" viewBox="0 0 24 24" fill="none" xmlns="http://www.w3.org/2000/svg">
<path d="M21.5 14.7258H2.5V8.27676C2.5 7.93376 2.676 7.61426 2.966 7.43126L11.199 2.23126C11.6885 1.92226 12.3115 1.92226 12.801 2.23126L21.034 7.43126C21.324 7.61476 21.5 7.93376 21.5 8.27676V14.7258Z" fill="url(#paint0_linear)"/>
<path d="M19.5 16.5H4.5V8C4.5 7.724 4.724 7.5 5 7.5H19C19.276 7.5 19.5 7.724 19.5 8V16.5Z" fill="url(#paint1_linear)"/>
<path d="M21.5 8.5V19.128C21.5 19.6095 21.103 20 20.613 20H4.77997L7.18147 16.8365L21.5 8.5Z" fill="url(#paint2_linear)"/>
<path d="M2.5 8.5V19.128C2.5 19.6095 2.897 20 3.387 20H20.6135C20.8935 20 21.14 19.87 21.3025 19.671L2.5 8.5Z" fill="url(#paint3_linear)"/>
<defs>
<linearGradient id="paint0_linear" x1="12" y1="1.89726" x2="12" y2="14.6978" gradientUnits="userSpaceOnUse">
<stop stop-color="#D97218"/>
<stop offset="1" stop-color="#C76410"/>
</linearGradient>
<linearGradient id="paint1_linear" x1="12" y1="7.697" x2="12" y2="14.242" gradientUnits="userSpaceOnUse">
<stop stop-color="white"/>
<stop offset="0.24" stop-color="#F8F8F7"/>
<stop offset="1" stop-color="#E3E3E1"/>
</linearGradient>
<linearGradient id="paint2_linear" x1="12.943" y1="13.968" x2="18.9985" y2="22.6345" gradientUnits="userSpaceOnUse">
<stop stop-color="#F7AB40"/>
<stop offset="0.32" stop-color="#F4A73C"/>
<stop offset="0.671" stop-color="#ED992F"/>
<stop offset="1" stop-color="#E2861D"/>
</linearGradient>
<linearGradient id="paint3_linear" x1="1.537" y1="13.618" x2="19.981" y2="22.5625" gradientUnits="userSpaceOnUse">
<stop stop-color="#EBA84B"/>
<stop offset="1" stop-color="#D97218"/>
</linearGradient>
</defs>
</svg>
