<svg width="16" height="17" viewBox="0 0 16 17" fill="none" xmlns="http://www.w3.org/2000/svg">
<path d="M13.4444 1.5H2.55556C1.69611 1.5 1 2.19611 1 3.05556V13.9444C1 14.8039 1.69611 15.5 2.55556 15.5H8.483V10.0859H6.66067V7.96644H8.483V6.407C8.483 4.59944 9.58822 3.614 11.2013 3.614C11.745 3.61244 12.2879 3.64044 12.8284 3.69567V5.58567H11.7178C10.8389 5.58567 10.6678 6.001 10.6678 6.61389V7.96333H12.7678L12.4948 10.0828H10.6553V15.5H13.4444C14.3039 15.5 15 14.8039 15 13.9444V3.05556C15 2.19611 14.3039 1.5 13.4444 1.5Z" fill="url(#paint0_linear)"/>
<defs>
<linearGradient id="paint0_linear" x1="8" y1="1.5" x2="8" y2="15.5" gradientUnits="userSpaceOnUse">
<stop stop-color="#4968AD"/>
<stop offset="1" stop-color="#4968AD"/>
</linearGradient>
</defs>
</svg>
