<svg width="14" height="14" viewBox="0 0 14 14" fill="none" xmlns="http://www.w3.org/2000/svg">
<path d="M11.3698 2.45178C9.98179 1.06312 8.08845 0.362449 6.10045 0.522449C3.42779 0.737116 1.08512 2.59578 0.301118 5.15978C-0.258882 6.99178 -0.0235483 8.90445 0.888452 10.4844L0.0244517 13.3531C-0.0582149 13.6285 0.193118 13.8878 0.471118 13.8138L3.47379 13.0091C4.44645 13.5398 5.54112 13.8191 6.65578 13.8198H6.65845C9.45512 13.8198 12.0391 12.1091 12.9331 9.45912C13.8038 6.87512 13.1598 4.24378 11.3698 2.45178ZM9.91712 9.53578C9.77845 9.92445 9.09912 10.2991 8.79379 10.3264C8.48845 10.3544 8.20245 10.4644 6.79712 9.91045C5.10579 9.24378 4.03779 7.50978 3.95512 7.39912C3.87179 7.28778 3.27579 6.49712 3.27579 5.67845C3.27579 4.85978 3.70579 4.45712 3.85845 4.29112C4.01112 4.12445 4.19112 4.08312 4.30245 4.08312C4.41312 4.08312 4.52445 4.08312 4.62112 4.08712C4.73979 4.09178 4.87112 4.09778 4.99579 4.37445C5.14378 4.70378 5.46712 5.52645 5.50845 5.60978C5.54979 5.69312 5.57779 5.79045 5.52245 5.90112C5.46712 6.01178 5.43912 6.08112 5.35645 6.17845C5.27312 6.27578 5.18179 6.39512 5.10712 6.46978C5.02379 6.55245 4.93712 6.64312 5.03379 6.80912C5.13112 6.97578 5.46445 7.52045 5.95912 7.96112C6.59512 8.52778 7.13045 8.70312 7.29712 8.78712C7.46379 8.87045 7.56045 8.85645 7.65778 8.74512C7.75512 8.63445 8.07378 8.25978 8.18445 8.09312C8.29512 7.92645 8.40645 7.95445 8.55912 8.00978C8.71179 8.06512 9.52979 8.46778 9.69579 8.55112C9.86245 8.63445 9.97312 8.67578 10.0145 8.74512C10.0558 8.81378 10.0558 9.14712 9.91712 9.53578Z" fill="#F15A25"/>
</svg>
