<svg width="16" height="16" viewBox="0 0 16 16" fill="none" xmlns="http://www.w3.org/2000/svg">
<path d="M8.00004 1.33331C4.31804 1.33331 1.33337 4.31798 1.33337 7.99998C1.33337 11.682 4.31804 14.6666 8.00004 14.6666C11.682 14.6666 14.6667 11.682 14.6667 7.99998C14.6667 4.31798 11.682 1.33331 8.00004 1.33331ZM8.00004 11.3333C7.63204 11.3333 7.33337 11.0346 7.33337 10.6666V7.99998C7.33337 7.63198 7.63204 7.33331 8.00004 7.33331C8.36804 7.33331 8.66671 7.63198 8.66671 7.99998V10.6666C8.66671 11.0346 8.36804 11.3333 8.00004 11.3333ZM8.33337 5.99998H7.66671C7.48271 5.99998 7.33337 5.85065 7.33337 5.66665V4.99998C7.33337 4.81598 7.48271 4.66665 7.66671 4.66665H8.33337C8.51737 4.66665 8.66671 4.81598 8.66671 4.99998V5.66665C8.66671 5.85065 8.51737 5.99998 8.33337 5.99998Z" fill="#636B7B"/>
</svg>
