<svg width="14" height="14" viewBox="0 0 14 14" fill="none" xmlns="http://www.w3.org/2000/svg">
<path d="M6.99998 0.333328C3.31798 0.333328 0.333313 3.318 0.333313 7C0.333313 10.682 3.31798 13.6667 6.99998 13.6667C10.682 13.6667 13.6666 10.682 13.6666 7C13.6666 3.318 10.682 0.333328 6.99998 0.333328ZM6.99998 10.3333C6.63198 10.3333 6.33331 10.0347 6.33331 9.66666V7C6.33331 6.632 6.63198 6.33333 6.99998 6.33333C7.36798 6.33333 7.66665 6.632 7.66665 7V9.66666C7.66665 10.0347 7.36798 10.3333 6.99998 10.3333ZM7.33331 5H6.66665C6.48265 5 6.33331 4.85066 6.33331 4.66666V3.99999C6.33331 3.81599 6.48265 3.66666 6.66665 3.66666H7.33331C7.51731 3.66666 7.66665 3.81599 7.66665 3.99999V4.66666C7.66665 4.85066 7.51731 5 7.33331 5Z" fill="white"/>
</svg>
