<svg width="12" height="17" viewBox="0 0 12 17" fill="none" xmlns="http://www.w3.org/2000/svg">
<path d="M5.99996 0.666672C2.77829 0.666672 0.166626 3.27834 0.166626 6.50001C0.166626 9.80501 3.83663 14.6833 5.35496 16.5592C5.68829 16.9708 6.31163 16.9708 6.64496 16.5592C8.16329 14.6833 11.8333 9.80501 11.8333 6.50001C11.8333 3.27834 9.22163 0.666672 5.99996 0.666672ZM5.99996 8.58334C4.84913 8.58334 3.91663 7.65084 3.91663 6.50001C3.91663 5.34917 4.84913 4.41667 5.99996 4.41667C7.15079 4.41667 8.08329 5.34917 8.08329 6.50001C8.08329 7.65084 7.15079 8.58334 5.99996 8.58334Z" fill="white"/>
</svg>
