<svg width="16" height="16" viewBox="0 0 16 16" fill="none" xmlns="http://www.w3.org/2000/svg">
<path d="M12.7958 10.16L11.1158 9.96667C10.7091 9.92 10.3091 10.06 10.0224 10.3467L8.78912 11.58C7.84312 11.1 6.98512 10.474 6.24378 9.732C5.50178 8.99067 4.87578 8.13267 4.39578 7.18667L5.62912 5.95333C5.91578 5.66667 6.05578 5.26667 6.00912 4.86L5.81578 3.18C5.73578 2.50667 5.16912 2 4.48912 2H3.33578C2.58245 2 1.95578 2.62667 2.00245 3.38C2.17912 6.226 3.40512 8.78533 5.29778 10.678C7.19045 12.5707 9.74978 13.7967 12.5958 13.9733C13.3491 14.02 13.9758 13.3933 13.9758 12.64V11.4867C13.9758 10.8067 13.4691 10.24 12.7958 10.16Z" fill="#636B7B"/>
</svg>
