<svg width="14" height="12" viewBox="0 0 14 12" fill="none" xmlns="http://www.w3.org/2000/svg">
<path d="M0.99998 0C0.823169 0 0.653599 0.0702379 0.528575 0.195262C0.403551 0.320286 0.333313 0.489856 0.333313 0.666667V4.39714C0.333313 4.7398 0.592907 5.0259 0.933573 5.0599L10.3333 6L0.933573 6.9401C0.592907 6.9741 0.333313 7.2602 0.333313 7.60286V11.3333C0.333313 11.5101 0.403551 11.6797 0.528575 11.8047C0.653599 11.9298 0.823169 12 0.99998 12C1.12726 12.0003 1.25196 11.9641 1.35935 11.8958C1.35979 11.8954 1.36022 11.895 1.36066 11.8945L13.2265 6.62891L13.2252 6.6263C13.3543 6.57997 13.4659 6.49498 13.5449 6.3829C13.6239 6.27082 13.6664 6.13712 13.6666 6C13.6664 5.86288 13.6239 5.72918 13.5449 5.6171C13.4659 5.50502 13.3543 5.42003 13.2252 5.3737L13.2265 5.37109L1.35154 0.101562C1.24612 0.0355788 1.12435 0.000399263 0.99998 0Z" fill="#F15A25"/>
</svg>
