<svg width="12" height="13" viewBox="0 0 12 13" fill="none" xmlns="http://www.w3.org/2000/svg">
<path d="M4.83333 0.583313C4.51133 0.583313 4.25 0.844646 4.25 1.16665C4.25 1.48865 4.51133 1.74998 4.83333 1.74998H7.16667C7.48867 1.74998 7.75 1.48865 7.75 1.16665C7.75 0.844646 7.48867 0.583313 7.16667 0.583313H4.83333ZM10.0799 1.86961C9.93117 1.88179 9.78642 1.9516 9.68229 2.07469C9.47404 2.32027 9.50507 2.68844 9.75065 2.89728L10.5812 3.60138C10.8268 3.80963 11.195 3.7786 11.4038 3.53302C11.6121 3.28744 11.581 2.91926 11.3355 2.71043L10.5049 2.00633C10.3821 1.9022 10.2287 1.85743 10.0799 1.86961ZM6 2.33331C3.1055 2.33331 0.75 4.68881 0.75 7.58331C0.75 10.4778 3.1055 12.8333 6 12.8333C8.8945 12.8333 11.25 10.4778 11.25 7.58331C11.25 4.68881 8.8945 2.33331 6 2.33331ZM6 4.08331C6.322 4.08331 6.58333 4.34465 6.58333 4.66665V7.58331C6.58333 7.90531 6.322 8.16665 6 8.16665C5.678 8.16665 5.41667 7.90531 5.41667 7.58331V4.66665C5.41667 4.34465 5.678 4.08331 6 4.08331Z" fill="#F15A25"/>
</svg>
