<svg width="14" height="13" viewBox="0 0 14 13" fill="none" xmlns="http://www.w3.org/2000/svg">
<path d="M13.7074 2.4301C13.5464 1.8281 13.0718 1.3535 12.4698 1.1925C11.3778 0.899902 7 0.899902 7 0.899902C7 0.899902 2.6222 0.899902 1.5302 1.1925C0.9282 1.3535 0.4536 1.8281 0.2926 2.4301C-2.08616e-08 3.5221 0 6.4999 0 6.4999C0 6.4999 -2.08616e-08 9.4777 0.2926 10.5697C0.4536 11.1717 0.9282 11.6463 1.5302 11.8073C2.6222 12.0999 7 12.0999 7 12.0999C7 12.0999 11.3778 12.0999 12.4698 11.8073C13.0725 11.6463 13.5464 11.1717 13.7074 10.5697C14 9.4777 14 6.4999 14 6.4999C14 6.4999 14 3.5221 13.7074 2.4301ZM5.6 8.9247V4.0751L9.8 6.4999L5.6 8.9247Z" fill="#EB3223"/>
</svg>
