<svg xmlns="http://www.w3.org/2000/svg" width="25" height="20" viewBox="0 0 25 20">
    <path fill="#000" fill-rule="evenodd" d="M9.096 19.954a20.92 20.92 0 0 1-3.231-.256c-1.923-.302-3.87-1.308-4.42-1.609L0 17.3l1.564-.514c1.71-.562 2.75-.91 4.037-1.457-1.29-.624-2.283-1.747-2.76-3.199l-.365-1.104.299.045a5.426 5.426 0 0 1-.68-.837c-.616-.936-.942-2.079-.872-3.059l.068-.964.577.224c-.243-.46-.42-.95-.523-1.466-.252-1.255-.04-2.588.595-3.754L2.442.29l.673.807c2.126 2.555 4.82 4.07 8.017 4.514-.13-.9-.033-1.769.291-2.547.377-.907 1.048-1.676 1.94-2.224a5.825 5.825 0 0 1 3.38-.83c1.262.078 2.408.55 3.319 1.369.444-.116.772-.239 1.215-.406.266-.1.568-.214.946-.344l1.393-.48-.908 2.594c.06-.005.121-.01.186-.012l1.487-.067-.879 1.201-.081.116c-.07.106-.16.24-1.366 1.85a2.273 2.273 0 0 0-.425 1.48c.107 2.094-.15 3.988-.764 5.63a9.963 9.963 0 0 1-2.674 3.962c-1.477 1.33-3.361 2.242-5.6 2.707a17.237 17.237 0 0 1-3.496.343z"/>
</svg>
