<?xml version="1.0" encoding="UTF-8"?>
<svg width="80px" height="80px" viewBox="0 0 80 80" version="1.1" xmlns="http://www.w3.org/2000/svg" xmlns:xlink="http://www.w3.org/1999/xlink">
    <!-- Generator: sketchtool 40.3 (33839) - http://www.bohemiancoding.com/sketch -->
    <title>849EB4C5-DB53-41EE-B284-94518932E356</title>
    <desc>Created with sketchtool.</desc>
    <defs>
        <linearGradient x1="96.7733578%" y1="3.22664222%" x2="0%" y2="100%" id="linearGradient-1">
            <stop stop-color="#F58221" offset="0%"></stop>
            <stop stop-color="#EF6423" offset="100%"></stop>
        </linearGradient>
    </defs>
    <g id="Page-1" stroke="none" stroke-width="1" fill="none" fill-rule="evenodd">
        <g id="01_TPi_Homepage" transform="translate(-470.000000, -1960.000000)">
            <g id="DỊCH-VỤ" transform="translate(0.000000, 1643.000000)">
                <g id="Group-9" transform="translate(371.000000, 317.000000)">
                    <g id="analytics" transform="translate(99.000000, 0.000000)">
                        <g id="Layer_1">
                            <g id="Group">
                                <path d="M69.6774194,7.74193548 L69.6774194,36.1290323 L80,36.1290323 L80,7.74193548 L69.6774194,7.74193548 L69.6774194,7.74193548 Z M77.4193548,33.5483871 L72.2580645,33.5483871 L72.2580645,10.3225806 L77.4193548,10.3225806 L77.4193548,33.5483871 L77.4193548,33.5483871 Z" id="Shape" fill="#333333"></path>
                                <path d="M56.7741935,20.7948387 C55.9483871,20.0567742 55.0877419,19.3651613 54.1935484,18.723871 L54.1935484,18.0645161 L53.2219355,18.0645161 C48.1935484,14.7380645 42.2490323,12.9032258 36.1290323,12.9032258 L34.8387097,12.9032258 L34.8387097,45.1612903 L67.0967742,45.1612903 L67.0967742,43.8709677 C67.0967742,41.2490323 66.7496774,38.6554839 66.0980645,36.1290323 L67.0967742,36.1290323 L67.0967742,12.9032258 L56.7741935,12.9032258 L56.7741935,20.7948387 L56.7741935,20.7948387 Z M37.4193548,42.5806452 L37.4193548,15.5122581 C41.0709677,15.68 44.6283871,16.5664516 47.9083871,18.0645161 L43.8709677,18.0645161 L43.8709677,36.1290323 L54.1935484,36.1290323 L54.1935484,22.0219355 C55.0967742,22.7677419 55.963871,23.5587097 56.7741935,24.4180645 L56.7741935,36.1290323 L63.4270968,36.1290323 C64.0232258,38.2335484 64.3883871,40.3935484 64.4877419,42.5806452 L37.4193548,42.5806452 L37.4193548,42.5806452 Z M51.6129032,20.6451613 L51.6129032,33.5483871 L46.4516129,33.5483871 L46.4516129,20.6451613 L51.6129032,20.6451613 L51.6129032,20.6451613 Z M59.3548387,15.483871 L64.516129,15.483871 L64.516129,33.5483871 L59.3548387,33.5483871 L59.3548387,15.483871 L59.3548387,15.483871 Z" id="Shape" fill="#333333"></path>
                                <rect id="Rectangle-path" fill="#333333" transform="translate(16.451134, 45.483410) rotate(-45.000000) translate(-16.451134, -45.483410) " x="8.69645054" y="44.1930994" width="15.5093674" height="2.58062041"></rect>
                                <path d="M15.483871,40 C15.483871,37.8658065 13.7470968,36.1290323 11.6129032,36.1290323 C9.47870968,36.1290323 7.74193548,37.8658065 7.74193548,40 C7.74193548,42.1341935 9.47870968,43.8709677 11.6129032,43.8709677 C13.7470968,43.8709677 15.483871,42.1341935 15.483871,40 L15.483871,40 Z M10.3225806,40 C10.3225806,39.2877419 10.9006452,38.7096774 11.6129032,38.7096774 C12.3251613,38.7096774 12.9032258,39.2877419 12.9032258,40 C12.9032258,40.7122581 12.3251613,41.2903226 11.6129032,41.2903226 C10.9006452,41.2903226 10.3225806,40.7122581 10.3225806,40 L10.3225806,40 Z" id="Shape" fill="#333333"></path>
                                <path d="M21.9354839,46.4516129 C19.8012903,46.4516129 18.0645161,48.1883871 18.0645161,50.3225806 C18.0645161,52.4567742 19.8012903,54.1935484 21.9354839,54.1935484 C24.0696774,54.1935484 25.8064516,52.4567742 25.8064516,50.3225806 C25.8064516,48.1883871 24.0696774,46.4516129 21.9354839,46.4516129 L21.9354839,46.4516129 Z M21.9354839,51.6129032 C21.2232258,51.6129032 20.6451613,51.0348387 20.6451613,50.3225806 C20.6451613,49.6103226 21.2232258,49.0322581 21.9354839,49.0322581 C22.6477419,49.0322581 23.2258065,49.6103226 23.2258065,50.3225806 C23.2258065,51.0348387 22.6477419,51.6129032 21.9354839,51.6129032 L21.9354839,51.6129032 Z" id="Shape" fill="#333333"></path>
                                <path d="M56.5896774,66.3780645 C60.076129,61.2412903 61.9354839,55.276129 61.9354839,49.0322581 L61.9354839,47.7419355 L32.2580645,47.7419355 L32.2580645,18.0645161 L30.9677419,18.0645161 C29.6929032,18.0645161 28.396129,18.1767742 27.0967742,18.3406452 L27.0967742,0 L0,0 L0,18.0645161 L16.24,18.0645161 L18.76,20.5845161 C7.46451613,25.4348387 0,36.6167742 0,49.0322581 C0,66.1070968 13.8929032,80 30.9677419,80 C38.4554839,80 45.5883871,77.2929032 51.2245161,72.403871 L55.2167742,76.396129 C56.0012903,77.1806452 57.0335484,77.5741935 58.0645161,77.5741935 C59.0954839,77.5741935 60.1277419,77.1806452 60.9122581,76.396129 C62.4825806,74.8258065 62.4825806,72.2709677 60.9122581,70.7006452 L56.5896774,66.3780645 L56.5896774,66.3780645 Z M17.3083871,15.483871 L2.58064516,15.483871 L2.58064516,2.58064516 L24.516129,2.58064516 L24.516129,22.6916129 L17.3083871,15.483871 L17.3083871,15.483871 Z M30.9677419,77.4193548 C15.3148387,77.4193548 2.58064516,64.6851613 2.58064516,49.0322581 C2.58064516,37.3019355 9.85290323,26.7780645 20.7445161,22.5690323 L27.0967742,28.9212903 L27.0967742,20.9290323 C27.96,20.8103226 28.8232258,20.7148387 29.6774194,20.6748387 L29.6774194,50.3225806 L59.3264516,50.3225806 C59.1006452,55.4129032 57.52,60.2683871 54.7354839,64.523871 L52.6774194,62.4658065 C52.8193548,61.8812903 52.9032258,61.2735484 52.9032258,60.6451613 C52.9032258,56.3754839 49.4309677,52.9032258 45.1612903,52.9032258 C40.8916129,52.9032258 37.4193548,56.3754839 37.4193548,60.6451613 C37.4193548,64.9148387 40.8916129,68.3870968 45.1612903,68.3870968 C45.7896774,68.3870968 46.3974194,68.3032258 46.9819355,68.1612903 L49.3948387,70.5741935 C44.2516129,74.9819355 37.7703226,77.4193548 30.9677419,77.4193548 L30.9677419,77.4193548 Z M50.3225806,60.6451613 C50.3225806,63.4916129 48.0077419,65.8064516 45.1612903,65.8064516 C42.3148387,65.8064516 40,63.4916129 40,60.6451613 C40,57.7987097 42.3148387,55.483871 45.1612903,55.483871 C48.0077419,55.483871 50.3225806,57.7987097 50.3225806,60.6451613 L50.3225806,60.6451613 Z M59.0877419,74.5716129 C58.5225806,75.1367742 57.6064516,75.1367742 57.0412903,74.5716129 L49.5135484,67.043871 C50.3174194,66.4954839 51.0116129,65.8012903 51.56,64.9974194 L59.0877419,72.5251613 C59.6516129,73.0903226 59.6516129,74.0064516 59.0877419,74.5716129 Z M32.2580645,59.3548387 L34.8387097,59.3548387 L34.8387097,61.9354839 L32.2580645,61.9354839 L32.2580645,59.3548387 Z M27.0967742,59.3548387 L29.6774194,59.3548387 L29.6774194,61.9354839 L27.0967742,61.9354839 L27.0967742,59.3548387 Z M21.9354839,59.3548387 L24.516129,59.3548387 L24.516129,61.9354839 L21.9354839,61.9354839 L21.9354839,59.3548387 Z" id="Combined-Shape" fill="#333333"></path>
                                <rect id="Rectangle-path" fill="#000000" x="5.16129032" y="5.16129032" width="16.7741935" height="2.58064516"></rect>
                                <rect id="Rectangle-path" fill="#000000" x="5.16129032" y="10.3225806" width="16.7741935" height="2.58064516"></rect>
                                <rect id="Rectangle-path" fill="#000000" x="43.8709677" y="59.3548387" width="2.58064516" height="2.58064516"></rect>
                            </g>
                        </g>
                    </g>
                </g>
            </g>
        </g>
    </g>
</svg>