<?xml version="1.0" encoding="UTF-8"?>
<svg width="80px" height="80px" viewBox="0 0 80 80" version="1.1" xmlns="http://www.w3.org/2000/svg" xmlns:xlink="http://www.w3.org/1999/xlink">
    <!-- Generator: sketchtool 40.3 (33839) - http://www.bohemiancoding.com/sketch -->
    <title>C771CDF4-E7C9-4707-B951-A56A29912469</title>
    <desc>Created with sketchtool.</desc>
    <defs>
        <linearGradient x1="96.7733578%" y1="3.22664222%" x2="0%" y2="100%" id="linearGradient-1">
            <stop stop-color="#F58221" offset="0%"></stop>
            <stop stop-color="#EF6423" offset="100%"></stop>
        </linearGradient>
    </defs>
    <g id="Page-1" stroke="none" stroke-width="1" fill="none" fill-rule="evenodd">
        <g id="01_TPi_Homepage" transform="translate(-770.000000, -1960.000000)" fill="#333333">
            <g id="DỊCH-VỤ" transform="translate(0.000000, 1643.000000)">
                <g id="Group-9" transform="translate(371.000000, 317.000000)">
                    <g id="Page-1" transform="translate(399.000000, 0.000000)">
                        <path d="M69.3952542,54.8189831 L61.8074576,65.720678 L56.4528814,61.3261017 C55.8752542,60.8488136 55.019661,60.9355932 54.5450847,61.5132203 C54.0691525,62.0922034 54.1532203,62.9477966 54.7335593,63.4210169 L61.2230508,68.7484746 C61.4671186,68.9491525 61.7708475,69.0576271 62.0827119,69.0576271 C62.1437288,69.0576271 62.2061017,69.0535593 62.2684746,69.0440678 C62.6427119,68.9925424 62.9789831,68.7864407 63.1959322,68.4759322 L71.6216949,56.3688136 C72.0488136,55.7545763 71.8983051,54.9098305 71.2827119,54.4813559 C70.6657627,54.0488136 69.8223729,54.2033898 69.3952542,54.8189831" id="Fill-1"></path>
                        <path d="M62.3728814,77.2881356 C59.3111864,77.2881356 56.4623729,76.3579661 54.0922034,74.7688136 C53.6298305,74.459661 53.1932203,74.1233898 52.7742373,73.7708475 C52.6277966,73.6461017 52.4894915,73.5132203 52.3484746,73.3830508 C52.0813559,73.140339 51.8223729,72.8908475 51.5755932,72.6318644 C51.4169492,72.4650847 51.2637288,72.2955932 51.1132203,72.1233898 C50.8908475,71.8671186 50.6820339,71.6027119 50.4786441,71.3328814 C50.3484746,71.160678 50.2142373,70.9938983 50.0908475,70.8162712 C49.7911864,70.3810169 49.5091525,69.9335593 49.2569492,69.4698305 C49.1986441,69.3613559 49.1525424,69.2474576 49.0969492,69.1376271 C48.8989831,68.7498305 48.7145763,68.3566102 48.5505085,67.9525424 C48.48,67.7762712 48.4189831,67.5959322 48.3538983,67.4169492 C48.2264407,67.0616949 48.1098305,66.7010169 48.0081356,66.3362712 C47.9850847,66.2522034 47.9647458,66.1681356 47.9430508,66.0840678 C47.7898305,65.4874576 47.6772881,64.8949153 47.5972881,64.3050847 C47.5918644,64.2630508 47.5837288,64.2210169 47.5783051,64.1776271 C47.499661,63.5688136 47.4576271,62.9654237 47.4576271,62.3728814 C47.4576271,61.8589831 47.4833898,61.3491525 47.5362712,60.8433898 C47.540339,60.8013559 47.5511864,60.760678 47.5552542,60.7186441 C47.6067797,60.2562712 47.6745763,59.7952542 47.7694915,59.3410169 C47.7789831,59.2976271 47.7938983,59.2555932 47.8033898,59.2122034 C47.9010169,58.7620339 48.0162712,58.3145763 48.1559322,57.8725424 C48.1722034,57.8210169 48.1952542,57.7708475 48.2115254,57.719322 C48.3511864,57.2962712 48.5057627,56.8759322 48.6847458,56.4637288 C48.8528814,56.0759322 49.0345763,55.6949153 49.2338983,55.3247458 L49.3681356,55.0928814 C49.4223729,54.9952542 49.4861017,54.9030508 49.5430508,54.8067797 C49.7789831,54.4094915 50.0311864,54.0244068 50.2983051,53.6528814 C50.3647458,53.560678 50.4338983,53.4698305 50.5030508,53.3789831 C50.7471186,53.0562712 51.0047458,52.7457627 51.2732203,52.4461017 C51.3667797,52.3416949 51.460339,52.2359322 51.5566102,52.1342373 C51.8223729,51.8522034 52.1016949,51.5850847 52.3877966,51.3261017 C52.4894915,51.2338983 52.5884746,51.1389831 52.6928814,51.0494915 C53.0291525,50.7620339 53.3776271,50.4922034 53.7369492,50.2359322 C53.7938983,50.1952542 53.8481356,50.1505085 53.9050847,50.1098305 C55.6745763,48.8867797 57.7071186,48.0488136 59.8874576,47.6827119 L59.9159322,47.6786441 C60.7159322,47.5444068 61.5335593,47.4576271 62.3728814,47.4576271 C62.900339,47.4576271 63.4250847,47.4861017 63.9457627,47.5430508 C64.0271186,47.5511864 64.1057627,47.5701695 64.1871186,47.579661 C64.6318644,47.6352542 65.0752542,47.7016949 65.5132203,47.7966102 C65.5674576,47.8088136 65.6189831,47.8250847 65.6718644,47.8372881 C66.1383051,47.9444068 66.600678,48.0691525 67.0576271,48.2223729 C67.0888136,48.2332203 67.1186441,48.2454237 67.1498305,48.2562712 C67.6176271,48.4162712 68.0786441,48.599322 68.5355932,48.8067797 C73.6908475,51.1579661 77.2881356,56.3484746 77.2881356,62.3728814 C77.2881356,70.5966102 70.5966102,77.2881356 62.3728814,77.2881356 L62.3728814,77.2881356 Z M24.4067797,65.0847458 L33.8983051,65.0847458 L33.8983051,55.5932203 L24.4067797,55.5932203 L24.4067797,65.0847458 Z M12.2033898,40.6779661 L21.6949153,40.6779661 L21.6949153,31.1864407 L12.2033898,31.1864407 L12.2033898,40.6779661 Z M24.4067797,40.6779661 L33.8983051,40.6779661 L33.8983051,31.1864407 L24.4067797,31.1864407 L24.4067797,40.6779661 Z M24.4067797,52.8813559 L33.8983051,52.8813559 L33.8983051,43.3898305 L24.4067797,43.3898305 L24.4067797,52.8813559 Z M36.6101695,52.8813559 L46.1016949,52.8813559 L46.1016949,43.3898305 L36.6101695,43.3898305 L36.6101695,52.8813559 Z M36.6101695,40.6779661 L46.1016949,40.6779661 L46.1016949,31.1864407 L36.6101695,31.1864407 L36.6101695,40.6779661 Z M48.8135593,40.6779661 L58.3050847,40.6779661 L58.3050847,31.1864407 L48.8135593,31.1864407 L48.8135593,40.6779661 Z M12.2033898,52.8813559 L21.6949153,52.8813559 L21.6949153,43.3898305 L12.2033898,43.3898305 L12.2033898,52.8813559 Z M12.2033898,65.0847458 L21.6949153,65.0847458 L21.6949153,55.5932203 L12.2033898,55.5932203 L12.2033898,65.0847458 Z M45.5186441,57.2189831 C45.4711864,57.3749153 45.44,57.5349153 45.3966102,57.6922034 C45.2881356,58.0854237 45.1769492,58.4786441 45.0955932,58.8840678 C45.0318644,59.1972881 44.9966102,59.5172881 44.9505085,59.8345763 C44.9138983,60.0908475 44.8623729,60.3430508 44.8352542,60.6033898 C44.7769492,61.1877966 44.7457627,61.7789831 44.7457627,62.3728814 C44.7457627,62.8623729 44.7728814,63.3572881 44.8176271,63.8535593 C44.8257627,63.9444068 44.8257627,64.0366102 44.8352542,64.1274576 C44.8569492,64.3471186 44.900339,64.56 44.9301695,64.7769492 L44.9301695,64.7783051 C44.9450847,64.8813559 44.9505085,64.9830508 44.9667797,65.0847458 L36.6101695,65.0847458 L36.6101695,55.5932203 L46.1016949,55.5932203 L46.1016949,55.6027119 C46.0881356,55.6352542 46.08,55.6691525 46.0664407,55.7016949 C45.8630508,56.1966102 45.6772881,56.7023729 45.5186441,57.2189831 L45.5186441,57.2189831 Z M54.6616949,46.5464407 C54.5152542,46.6169492 54.3661017,46.6833898 54.2223729,46.7579661 C53.9674576,46.8908475 53.720678,47.0372881 53.4738983,47.1823729 C53.2583051,47.3084746 53.0427119,47.4372881 52.8325424,47.5715254 C52.619661,47.7098305 52.4122034,47.8508475 52.2061017,47.9972881 C51.9715254,48.1627119 51.7437288,48.3362712 51.5172881,48.5125424 C51.3355932,48.6549153 51.1538983,48.7959322 50.9789831,48.9464407 C50.7416949,49.1471186 50.5152542,49.36 50.2888136,49.5728814 C50.1328814,49.720678 49.9715254,49.8630508 49.8210169,50.0149153 C49.5755932,50.2644068 49.3437288,50.5288136 49.1132203,50.7932203 C49.0155932,50.9057627 48.9084746,51.0088136 48.8122034,51.1240678 L48.8122034,43.3898305 L58.3037288,43.3898305 L58.3037288,45.2366102 C58.280678,45.2420339 58.2589831,45.2501695 58.2372881,45.2555932 C56.9884746,45.5579661 55.7925424,45.9932203 54.6616949,46.5464407 L54.6616949,46.5464407 Z M2.71186441,74.5762712 L2.71186441,21.6949153 L67.7966102,21.6949153 L67.7966102,45.6081356 C67.5308475,45.5227119 67.259661,45.4535593 66.9884746,45.3789831 C66.7376271,45.3098305 66.4867797,45.2420339 66.2332203,45.1837288 C66.0040678,45.1322034 65.7722034,45.0874576 65.540339,45.0454237 C65.2094915,44.9844068 64.8772881,44.9342373 64.5437288,44.8922034 C64.3579661,44.8691525 64.1735593,44.8433898 63.9864407,44.8257627 C63.4522034,44.7783051 62.9138983,44.7457627 62.3728814,44.7457627 C61.9145763,44.7457627 61.4657627,44.779661 61.0169492,44.8149153 L61.0169492,43.3898305 L61.0169492,40.6779661 L61.0169492,28.4745763 L48.8135593,28.4745763 L46.1016949,28.4745763 L36.6101695,28.4745763 L33.8983051,28.4745763 L24.4067797,28.4745763 L21.6949153,28.4745763 L9.49152542,28.4745763 L9.49152542,40.6779661 L9.49152542,43.3898305 L9.49152542,52.8813559 L9.49152542,55.5932203 L9.49152542,67.7966102 L21.6949153,67.7966102 L24.4067797,67.7966102 L33.8983051,67.7966102 L36.6101695,67.7966102 L45.6081356,67.7966102 C45.6474576,67.9159322 45.6962712,68.0311864 45.7369492,68.1491525 C45.8508475,68.4786441 45.9633898,68.8094915 46.0976271,69.1308475 C46.1722034,69.3111864 46.260339,69.4833898 46.3416949,69.659661 C46.4976271,70.0040678 46.6562712,70.3471186 46.8338983,70.680678 C46.9125424,70.8257627 47.000678,70.9654237 47.0833898,71.1091525 C47.2840678,71.460339 47.4874576,71.8074576 47.7125424,72.1437288 C47.7952542,72.2671186 47.8861017,72.3837288 47.9715254,72.5057627 C48.2101695,72.8447458 48.4542373,73.1810169 48.7186441,73.5037288 C48.8162712,73.6230508 48.9220339,73.7342373 49.0223729,73.8508475 C49.2325424,74.0949153 49.4332203,74.3444068 49.6569492,74.5776271 L2.71186441,74.5776271 L2.71186441,74.5762712 Z M2.71186441,8.13559322 L8.13559322,8.13559322 L8.13559322,12.2033898 C8.13559322,12.9532203 8.74305085,13.559322 9.49152542,13.559322 L18.9830508,13.559322 C19.7315254,13.559322 20.3389831,12.9532203 20.3389831,12.2033898 L20.3389831,8.13559322 L50.1694915,8.13559322 L50.1694915,12.2033898 C50.1694915,12.9532203 50.7769492,13.559322 51.5254237,13.559322 L61.0169492,13.559322 C61.7654237,13.559322 62.3728814,12.9532203 62.3728814,12.2033898 L62.3728814,8.13559322 L67.7966102,8.13559322 L67.7966102,18.9830508 L2.71186441,18.9830508 L2.71186441,8.13559322 Z M10.8474576,2.71186441 L17.6271186,2.71186441 L17.6271186,6.77966102 L17.6271186,10.8474576 L10.8474576,10.8474576 L10.8474576,6.77966102 L10.8474576,2.71186441 Z M52.8813559,2.71186441 L59.6610169,2.71186441 L59.6610169,6.77966102 L59.6610169,10.8474576 L52.8813559,10.8474576 L52.8813559,6.77966102 L52.8813559,2.71186441 Z M70.5084746,46.7511864 L70.5084746,20.3389831 L70.5084746,6.77966102 C70.5084746,6.02983051 69.9010169,5.42372881 69.1525424,5.42372881 L62.3728814,5.42372881 L62.3728814,1.3559322 C62.3728814,0.606101695 61.7654237,0 61.0169492,0 L51.5254237,0 C50.7769492,0 50.1694915,0.606101695 50.1694915,1.3559322 L50.1694915,5.42372881 L20.3389831,5.42372881 L20.3389831,1.3559322 C20.3389831,0.606101695 19.7315254,0 18.9830508,0 L9.49152542,0 C8.74305085,0 8.13559322,0.606101695 8.13559322,1.3559322 L8.13559322,5.42372881 L1.3559322,5.42372881 C0.607457627,5.42372881 0,6.02983051 0,6.77966102 L0,20.3389831 L0,75.9322034 C0,76.6820339 0.607457627,77.2881356 1.3559322,77.2881356 L53.0223729,77.2881356 C55.7369492,78.9966102 58.9369492,80 62.3728814,80 C72.0922034,80 80,72.0922034 80,62.3728814 C80,55.5891525 76.1410169,49.6962712 70.5084746,46.7511864 L70.5084746,46.7511864 Z" id="Fill-3"></path>
                    </g>
                </g>
            </g>
        </g>
    </g>
</svg>