<?xml version="1.0" encoding="UTF-8"?>
<svg width="80px" height="80px" viewBox="0 0 80 80" version="1.1" xmlns="http://www.w3.org/2000/svg" xmlns:xlink="http://www.w3.org/1999/xlink">
    <!-- Generator: sketchtool 40.3 (33839) - http://www.bohemiancoding.com/sketch -->
    <title>27517BB5-6700-445C-9CAF-C8104F4D0195</title>
    <desc>Created with sketchtool.</desc>
    <defs>
        <linearGradient x1="96.7733578%" y1="3.22664222%" x2="0%" y2="100%" id="linearGradient-1">
            <stop stop-color="#F58221" offset="0%"></stop>
            <stop stop-color="#EF6423" offset="100%"></stop>
        </linearGradient>
    </defs>
    <g id="Page-1" stroke="none" stroke-width="1" fill="none" fill-rule="evenodd">
        <g id="01_TPi_Homepage" transform="translate(-1370.000000, -1960.000000)" fill="#333333">
            <g id="DỊCH-VỤ" transform="translate(0.000000, 1643.000000)">
                <g id="Group-9" transform="translate(371.000000, 317.000000)">
                    <g id="Page-1" transform="translate(999.000000, 0.000000)">
                        <path d="M70.2037447,15.212605 L65.9351489,15.8706476 L70.7933617,11.0124348 L75.0617872,10.3543922 L70.2037447,15.212605 Z M64.7875745,9.79626458 L69.6457872,4.93822202 L68.9877447,9.20698798 L64.1295319,14.0652007 L64.7875745,9.79626458 Z M79.8621277,7.92103054 C79.6124255,7.42843479 79.0730213,7.15149862 78.5290213,7.236605 L71.7128511,8.28732841 L72.7635745,1.47115819 C72.8476596,0.92562628 72.5715745,0.38775394 72.0791489,0.138051812 C71.5865532,-0.111650316 70.9894468,-0.0165013796 70.5991489,0.373966706 L62.6869787,8.28613692 C62.4951489,8.47813692 62.3693617,8.72613692 62.3281702,8.99439224 L61.0757447,17.1191582 L56.5465532,21.6483497 C50.3075745,15.8560093 42.2313191,12.6791582 33.660766,12.6791582 C24.6626383,12.6791582 16.2078298,16.1785625 9.85378723,22.532605 C3.49940426,28.8868178 0,37.3416263 0,46.3397539 C0,55.3378816 3.49940426,63.7925199 9.85344681,70.1467327 C16.2076596,76.5007752 24.6624681,80.0000093 33.6604255,80.0000093 C42.658383,80.0000093 51.1133617,76.500605 57.4674043,70.1465625 C63.8214468,63.7923497 67.3208511,55.3375412 67.3208511,46.3395837 C67.3208511,39.1819667 65.108766,32.3499667 60.9237447,26.5819667 C60.509617,26.0110731 59.7109787,25.8840944 59.140766,26.2983922 C58.5700426,26.7125199 58.4430638,27.5106476 58.8571915,28.081371 C62.7239149,33.4107327 64.7676596,39.7242646 64.7676596,46.3397539 C64.7676596,63.4922646 50.8129362,77.4468178 33.6604255,77.4468178 C16.5079149,77.4468178 2.55319149,63.4922646 2.55319149,46.3397539 C2.55319149,29.1872433 16.5079149,15.2325199 33.6604255,15.2325199 C41.5489362,15.2325199 48.984,18.1440093 54.7395745,23.4551582 L48.904,29.2907327 C44.7077447,25.5331156 39.3329362,23.4740518 33.6602553,23.4740518 C21.0519149,23.4740518 10.794383,33.7317539 10.794383,46.3399242 C10.794383,58.9480944 21.0519149,69.2057965 33.6602553,69.2057965 C46.2685957,69.2057965 56.5259574,58.9480944 56.5259574,46.3399242 C56.5259574,42.1317539 55.3753191,38.0195837 53.1986383,34.447839 C52.8316596,33.8457965 52.0461277,33.654988 51.4440851,34.0221369 C50.8420426,34.3889454 50.6515745,35.1746476 51.018383,35.7766901 C52.9509787,38.9480944 53.9725957,42.6008603 53.9725957,46.3400944 C53.9725957,57.540605 44.8604255,66.6527752 33.6600851,66.6527752 C22.4595745,66.6527752 13.3474043,57.540605 13.3474043,46.3400944 C13.3474043,35.1395837 22.4595745,26.0274135 33.6600851,26.0274135 C38.6519149,26.0274135 43.3845106,27.8211156 47.0961702,31.0985625 L41.2468085,36.9479242 C39.106383,35.2129454 36.4568511,34.2687752 33.6600851,34.2687752 C27.0040851,34.2687752 21.5889362,39.6839242 21.5889362,46.3400944 C21.5889362,52.9962646 27.0040851,58.4112433 33.6600851,58.4112433 C40.3162553,58.4112433 45.731234,52.9962646 45.731234,46.3400944 C45.731234,45.154222 45.5596596,43.9821369 45.2214468,42.8561795 C45.0185532,42.1809454 44.3067234,41.7976263 43.6314894,42.0010305 C42.9562553,42.2037539 42.5732766,42.9155837 42.7763404,43.590988 C43.0428936,44.4784773 43.1780426,45.4032433 43.1780426,46.3400944 C43.1780426,51.5882646 38.9082553,55.8580518 33.6600851,55.8580518 C28.4119149,55.8580518 24.1421277,51.5882646 24.1421277,46.3400944 C24.1421277,41.0917539 28.4119149,36.8219667 33.6600851,36.8219667 C35.7734468,36.8219667 37.779234,37.5063922 39.4279149,38.7668178 L32.7572766,45.4374561 C32.2587234,45.9361795 32.2587234,46.7443497 32.7572766,47.2429029 C33.0064681,47.4920944 33.3332766,47.6166901 33.6599149,47.6166901 C33.9865532,47.6166901 34.3133617,47.4920944 34.5625532,47.2429029 L57.4628085,24.3426476 C57.4706383,24.3348178 62.8803404,18.9251156 62.8803404,18.9251156 L71.0051064,17.6725199 C71.2733617,17.6313284 71.5213617,17.5055412 71.7133617,17.3137114 L79.6255319,9.40154117 C80.0165106,9.01056245 80.1116596,8.41345607 79.8621277,7.92103054 L79.8621277,7.92103054 Z" id="Fill-1"></path>
                    </g>
                </g>
            </g>
        </g>
    </g>
</svg>