<?xml version="1.0" encoding="UTF-8"?>
<svg width="18px" height="14px" viewBox="0 0 18 14" version="1.1" xmlns="http://www.w3.org/2000/svg" xmlns:xlink="http://www.w3.org/1999/xlink">
    <!-- Generator: sketchtool 40.1 (33804) - http://www.bohemiancoding.com/sketch -->
    <title>19D24EEE-30D3-4BBD-843C-0CA6B3C67EBB</title>
    <desc>Created with sketchtool.</desc>
    <defs></defs>
    <g id="Page-1" stroke="none" stroke-width="1" fill="none" fill-rule="evenodd">
        <g id="01_TPi_Homepage" transform="translate(-1532.000000, -3442.000000)" fill="#F58221">
            <g id="FOOTER" transform="translate(0.000000, 3333.000000)">
                <g id="Group-3" transform="translate(1370.000000, 47.000000)">
                    <g id="ic-email-24-px-copy" transform="translate(162.000000, 62.000000)">
                        <path d="M16.2,0 L1.8,0 C0.81,0 0.009,0.7875 0.009,1.75 L0,12.25 C0,13.2125 0.81,14 1.8,14 L16.2,14 C17.19,14 18,13.2125 18,12.25 L18,1.75 C18,0.7875 17.19,0 16.2,0 L16.2,0 Z M16,3.71428571 L9,8 L2,3.71428571 L2,2 L9,6.28571429 L16,2 L16,3.71428571 L16,3.71428571 Z" id="Shape-Copy"></path>
                    </g>
                </g>
            </g>
        </g>
    </g>
</svg>