<?xml version="1.0" encoding="UTF-8"?>
<svg width="80px" height="79px" viewBox="0 0 80 79" version="1.1" xmlns="http://www.w3.org/2000/svg" xmlns:xlink="http://www.w3.org/1999/xlink">
    <!-- Generator: sketchtool 40.3 (33839) - http://www.bohemiancoding.com/sketch -->
    <title>342394CC-7E08-4998-A4DD-371CC8FC15E3</title>
    <desc>Created with sketchtool.</desc>
    <defs>
        <linearGradient x1="96.7733578%" y1="3.22664222%" x2="0%" y2="100%" id="linearGradient-1">
            <stop stop-color="#F58221" offset="0%"></stop>
            <stop stop-color="#EF6423" offset="100%"></stop>
        </linearGradient>
    </defs>
    <g id="Page-1" stroke="none" stroke-width="1" fill="none" fill-rule="evenodd">
        <g id="01_TPi_Homepage" transform="translate(-1070.000000, -1961.000000)" fill="#F58221">
            <g id="DỊCH-VỤ" transform="translate(0.000000, 1643.000000)">
                <g id="Group-9" transform="translate(371.000000, 317.000000)">
                    <path d="M756.469725,13.4460409 L761.476453,13.4460409 L761.476453,10.9568327 L756.469725,10.9568327 L756.469725,13.4460409 Z M768.986544,13.4460409 L773.993272,13.4460409 L773.993272,10.9568327 L768.986544,10.9568327 L768.986544,13.4460409 Z M763.979817,20.9136654 L766.483181,20.9136654 L766.483181,15.9352491 L763.979817,15.9352491 L763.979817,20.9136654 Z M763.979817,13.4460409 L766.483181,13.4460409 L766.483181,10.9568327 L763.979817,10.9568327 L763.979817,13.4460409 Z M763.979817,8.46762454 L766.483181,8.46762454 L766.483181,3.48920818 L763.979817,3.48920818 L763.979817,8.46762454 Z M734.546516,8.64560292 L740.803674,4.91054605 L742.091654,7.04504206 L735.833245,10.7800989 L734.546516,8.64560292 Z M716.482242,2.63914359 L718.855431,1.8525538 L720.107113,5.58636607 L717.733924,6.37295586 L716.482242,2.63914359 Z M709.514128,7.04628667 L710.802109,4.91179065 L717.060519,8.64560292 L715.772538,10.7800989 L709.514128,7.04628667 Z M740.19786,33.3597063 L742.701224,33.3597063 L742.701224,30.8704982 L740.19786,30.8704982 L740.19786,33.3597063 Z M736.442814,29.6258941 L738.946178,29.6258941 L738.946178,27.1366859 L736.442814,27.1366859 L736.442814,29.6258941 Z M721.42263,28.38129 L723.925994,28.38129 L723.925994,25.8920818 L721.42263,25.8920818 L721.42263,28.38129 Z M747.707951,30.8704982 C747.017023,30.8704982 746.456269,30.3129155 746.456269,29.6258941 C746.456269,28.9388726 747.017023,28.38129 747.707951,28.38129 C748.39888,28.38129 748.959633,28.9388726 748.959633,29.6258941 C748.959633,30.3129155 748.39888,30.8704982 747.707951,30.8704982 L747.707951,30.8704982 Z M751.462997,29.6258941 C751.462997,27.5673189 749.778233,25.8920818 747.707951,25.8920818 C745.637669,25.8920818 743.952905,27.5673189 743.952905,29.6258941 C743.952905,31.6844692 745.637669,33.3597063 747.707951,33.3597063 C749.778233,33.3597063 751.462997,31.6844692 751.462997,29.6258941 L751.462997,29.6258941 Z M716.415903,34.6043104 C715.724974,34.6043104 715.164221,34.0467278 715.164221,33.3597063 C715.164221,32.6726849 715.724974,32.1151022 716.415903,32.1151022 C717.106831,32.1151022 717.667585,32.6726849 717.667585,33.3597063 C717.667585,34.0467278 717.106831,34.6043104 716.415903,34.6043104 L716.415903,34.6043104 Z M716.415903,29.6258941 C714.345621,29.6258941 712.660857,31.3011312 712.660857,33.3597063 C712.660857,35.4182815 714.345621,37.0935186 716.415903,37.0935186 C718.486185,37.0935186 720.170948,35.4182815 720.170948,33.3597063 C720.170948,31.3011312 718.486185,29.6258941 716.415903,29.6258941 L716.415903,29.6258941 Z M727.68104,4.97651007 C728.296868,5.84897753 729.062897,6.61067524 729.940326,7.22302045 C729.062897,7.83536566 728.298119,8.59581876 727.68104,9.46953083 C727.065213,8.59581876 726.300435,7.83536566 725.421754,7.22302045 C726.300435,6.61067524 727.065213,5.84897753 727.68104,4.97651007 L727.68104,4.97651007 Z M722.278781,8.40290513 C724.25769,9.05881148 725.834809,10.6270126 726.494446,12.5947317 C726.664674,13.1037748 727.141565,13.4460409 727.68104,13.4460409 C728.220515,13.4460409 728.697406,13.1037748 728.867635,12.5947317 C729.527271,10.6270126 731.10439,9.05881148 733.083299,8.40290513 C733.595237,8.23363897 733.93945,7.75944481 733.93945,7.22302045 C733.93945,6.68659609 733.595237,6.21240193 733.083299,6.04313577 C731.10439,5.38722942 729.527271,3.81902826 728.867635,1.8513092 C728.698658,1.34226612 728.220515,1 727.68104,1 C727.141565,1 726.663423,1.34226612 726.494446,1.8513092 C725.834809,3.81902826 724.25769,5.38722942 722.278781,6.04313577 C721.766843,6.21115732 721.42263,6.68659609 721.42263,7.22302045 C721.42263,7.75944481 721.766843,8.23363897 722.278781,8.40290513 L722.278781,8.40290513 Z M728.946491,71.2516779 C728.846356,71.3512462 728.72244,71.4022749 728.608536,71.474462 L728.524674,71.3873397 L728.213005,71.6823109 C727.559627,71.9001166 726.812373,71.7694332 726.290422,71.2504332 C725.559439,70.5223399 725.559439,69.3387214 726.290422,68.610628 L728.055293,66.8557362 C728.057796,66.853247 728.0603,66.8520024 728.061551,66.8507578 L733.372438,61.568658 C733.726664,61.2176797 734.198548,61.0235214 734.697969,61.0235214 C735.198642,61.0235214 735.670526,61.2176797 736.026004,61.5711472 C736.758238,62.2992406 736.758238,63.4841037 736.026004,64.2121971 L728.946491,71.2516779 Z M723.635604,62.4510823 L730.716369,55.4116016 C731.070595,55.0593786 731.542479,54.8639758 732.044403,54.8639758 C732.545076,54.8639758 733.01696,55.058134 733.371186,55.4116016 C733.725412,55.7638246 733.921926,56.2330403 733.921926,56.7308819 C733.921926,57.2287236 733.726664,57.6979393 733.371186,58.0514069 L731.60256,59.8100325 L731.601308,59.8112771 L726.287918,65.0946214 C725.555684,65.8164918 724.366586,65.818981 723.635604,65.0921322 C722.90337,64.3640388 722.90337,63.1791757 723.635604,62.4510823 L723.635604,62.4510823 Z M720.430047,57.610817 C720.430047,57.1129754 720.625309,56.6437596 720.979535,56.2902921 L722.749413,54.5304219 L728.0603,49.2495668 C728.414526,48.8973438 728.88641,48.7031856 729.388334,48.7031856 C729.889007,48.7031856 730.360891,48.8973438 730.716369,49.2495668 C731.448603,49.9776601 731.448603,51.1625232 730.716369,51.8906166 L723.635604,58.9300974 C722.927152,59.6345433 721.689239,59.6345433 720.980787,58.9300974 C720.625309,58.579119 720.430047,58.1099033 720.430047,57.610817 L720.430047,57.610817 Z M718.324718,50.1307464 L725.404231,43.0912657 C725.770973,42.7278413 726.251619,42.5461291 726.733517,42.5461291 C727.214163,42.5461291 727.693557,42.7278413 728.061551,43.0912657 C728.792534,43.8193591 728.792534,45.0029776 728.061551,45.731071 L726.291673,47.4909412 L720.980787,52.7717963 C720.248553,53.4986451 719.0557,53.4974005 718.325969,52.7717963 C717.592484,52.0437029 717.592484,50.8588398 718.324718,50.1307464 L718.324718,50.1307464 Z M715.477141,39.3885685 C713.279188,38.5148565 711.556873,36.8421086 710.62437,34.6802313 L705.25841,22.229212 C706.755421,22.3885213 707.671653,22.8091975 708.685515,23.2846362 C710.0511,23.9231181 711.598179,24.6474777 714.53838,24.6474777 C717.478581,24.6474777 719.025659,23.9231181 720.391244,23.2846362 C721.554057,22.7394996 722.58294,22.2665501 724.513033,22.1769386 L726.911256,27.7378297 C728.835091,32.2034691 726.747285,37.3922236 722.257502,39.3051801 C720.080827,40.2311655 717.675095,40.261036 715.477141,39.3885685 L715.477141,39.3885685 Z M723.474137,19.7661405 C721.591607,19.981457 720.397503,20.5303274 719.324811,21.0306582 C718.034327,21.6367804 716.917827,22.1582695 714.53838,22.1582695 C712.158932,22.1582695 711.042432,21.6367804 709.751948,21.0319028 C708.741841,20.5601979 707.629095,20.0424426 705.931815,19.8047232 L720.765497,13.483379 L723.474137,19.7661405 Z M738.011171,71.8192173 L736.182464,67.576362 L737.795882,65.9720673 C739.504428,64.2744273 739.504428,61.508917 737.795882,59.8112771 C737.266421,59.2835649 736.604281,58.9450326 735.900835,58.7558528 C736.230028,58.13604 736.424039,57.4515077 736.424039,56.7321265 C736.424039,55.5684217 735.968426,54.4744147 735.141065,53.6517314 C734.610351,53.1240193 733.94696,52.7842424 733.244766,52.5950625 C734.115937,50.9509405 733.876866,48.8712071 732.486247,47.4896966 C731.955534,46.9619844 731.292143,46.6222075 730.588697,46.4330277 C731.458616,44.7889057 731.219545,42.7104169 729.83143,41.3301509 C728.683637,40.188849 727.058954,39.8341368 725.594486,40.2249425 C729.676221,37.1694395 731.312169,31.6321959 729.211847,26.7583262 L722.572926,11.3575952 C722.300059,10.7228472 721.560315,10.4291206 720.930719,10.7041781 L702.343242,18.6248385 C702.037832,18.7542773 701.797509,19.000709 701.673593,19.3068816 C701.549676,19.6130542 701.554683,19.9553203 701.686109,20.2590037 L708.325031,35.6597347 C709.520387,38.4339572 711.730857,40.5784101 714.548393,41.6997983 C715.913978,42.2436903 717.343399,42.5137694 718.770316,42.5137694 C720.029508,42.5137694 721.284945,42.2909853 722.497825,41.8690645 L722.646775,42.3146328 L716.556091,48.3708763 C716.404637,48.5214734 716.283224,48.6894949 716.158056,48.8550273 L712.571987,45.2904811 C709.158651,41.8952012 703.599931,41.8939566 700.181588,45.2904811 C699.946272,45.5244667 699.814845,45.8393515 699.814845,46.1704162 C699.814845,46.5014809 699.946272,46.8176104 700.181588,47.0503513 L704.607535,51.4500268 C707.047063,53.8770048 707.047063,57.8248889 704.607535,60.2506223 L699,65.8264486 L700.769878,67.5863188 L706.376162,62.0117371 C709.792002,58.6152125 709.792002,53.0879258 706.376162,49.6914012 L702.924023,46.2600277 C705.352286,44.6632007 708.664236,44.9258121 710.800857,47.0515959 L715.226805,51.4512714 L715.276872,51.4002426 C715.263104,52.5328323 715.686172,53.6704005 716.553588,54.5316665 C717.094314,55.0693355 717.746441,55.41658 718.433614,55.6132275 C718.113183,56.2255727 717.925431,56.9001481 717.925431,57.610817 C717.925431,58.7745219 718.381043,59.8672842 719.208405,60.6912121 C719.739118,61.2189243 720.388741,61.5748811 721.089683,61.7765069 C720.237288,63.4168951 720.481366,65.4792041 721.863222,66.8520024 C722.405201,67.3896714 723.058579,67.7369159 723.747004,67.9335633 C722.893357,69.5739515 723.137435,71.6375051 724.51804,73.011548 C724.916075,73.4073321 725.375442,73.7010587 725.861095,73.9113968 L722.691836,76.9208495 L719.652752,76.9208495 C719.288513,76.9208495 718.941797,77.0789142 718.703977,77.3539717 L717.819038,78.3757917 L719.716588,80 L720.227274,79.4100577 L723.192509,79.4100577 C723.514191,79.4100577 723.823356,79.2868419 724.056169,79.0665469 L729.634916,73.7757349 C730.021685,73.5753537 730.392183,73.3351451 730.716369,73.0127926 L734.276152,69.471894 L735.71058,72.7999653 L730.666302,74.9506412 L731.651375,77.2382235 L744.041775,71.9573684 L743.056701,69.6697861 L738.011171,71.8192173 Z M762.728135,50.1618615 C762.728135,51.1911491 761.885753,52.0287677 760.850612,52.0287677 L753.34052,52.0287677 L750.837156,52.0287677 C749.802015,52.0287677 748.959633,51.1911491 748.959633,50.1618615 C748.959633,49.132574 749.802015,48.2949554 750.837156,48.2949554 L758.347248,48.2949554 L760.850612,48.2949554 C761.885753,48.2949554 762.728135,49.132574 762.728135,50.1618615 L762.728135,50.1618615 Z M765.231499,56.384882 C765.231499,57.4141696 764.389117,58.2517881 763.353976,58.2517881 L755.843884,58.2517881 L753.34052,58.2517881 C752.305379,58.2517881 751.462997,57.4141696 751.462997,56.384882 C751.462997,55.3555944 752.305379,54.5179759 753.34052,54.5179759 L760.850612,54.5179759 L763.353976,54.5179759 C764.389117,54.5179759 765.231499,55.3555944 765.231499,56.384882 L765.231499,56.384882 Z M767.734862,62.6079024 C767.734862,63.63719 766.892481,64.4748086 765.85734,64.4748086 L755.843884,64.4748086 C754.808743,64.4748086 753.966361,63.63719 753.966361,62.6079024 C753.966361,61.5786149 754.808743,60.7409963 755.843884,60.7409963 L763.353976,60.7409963 L765.85734,60.7409963 C766.892481,60.7409963 767.734862,61.5786149 767.734862,62.6079024 L767.734862,62.6079024 Z M746.456269,43.9388411 C746.456269,42.9095535 747.298651,42.071935 748.333792,42.071935 L758.347248,42.071935 C759.382389,42.071935 760.224771,42.9095535 760.224771,43.9388411 C760.224771,44.9681287 759.382389,45.8057472 758.347248,45.8057472 L750.837156,45.8057472 L748.333792,45.8057472 C747.298651,45.8057472 746.456269,44.9681287 746.456269,43.9388411 L746.456269,43.9388411 Z M736.353944,32.2756562 L732.351065,22.3250465 C733.551428,22.5266723 734.392559,22.8913413 735.30879,23.2958377 C736.741966,23.9293411 738.367901,24.6474777 741.449542,24.6474777 C744.531183,24.6474777 746.157117,23.9293411 747.590293,23.2958377 C748.705542,22.8029744 749.708139,22.3698522 751.3904,22.2192551 L752.803549,25.7315279 C754.618487,30.2419731 752.404262,35.3784542 747.869418,37.1818855 C743.33082,38.9865614 738.167632,36.7836122 736.353944,32.2756562 L736.353944,32.2756562 Z M747.010764,11.3302139 L750.429108,19.8283707 C748.738086,20.0735577 747.601558,20.5676655 746.573927,21.0207014 C745.192071,21.6305574 744.000469,22.1582695 741.449542,22.1582695 C738.898614,22.1582695 737.707013,21.6305574 736.325156,21.0207014 C735.074725,20.4680972 733.676597,19.8520181 731.295898,19.7039103 L730.559909,17.8730976 L747.010764,11.3302139 Z M775.244954,42.071935 L779,42.071935 L779,39.5827268 L775.244954,39.5827268 C771.794067,39.5827268 768.986544,36.7910798 768.986544,33.3597063 L768.986544,27.1366859 C768.986544,26.4484198 768.427043,25.8920818 767.734862,25.8920818 C762.904622,25.8920818 758.973089,29.8013832 758.973089,34.6043104 L758.973089,39.6462016 C758.766561,39.6163311 758.561285,39.5827268 758.347248,39.5827268 L749.733173,39.5827268 L749.521638,39.1632952 C754.841287,36.6068784 757.354664,30.3440306 755.127922,24.8080316 L748.869512,9.25048051 C748.612917,8.61075401 747.87818,8.30084759 747.242326,8.55599143 L728.467096,16.023616 C727.824984,16.2787598 727.512063,17.0031194 727.768658,17.6416013 L734.027068,33.1991524 C735.803204,37.6125185 740.080202,40.3021079 744.590012,40.3021079 C745.10946,40.3021079 745.632663,40.2535684 746.155866,40.1801367 C744.845355,40.9343668 743.950402,42.3270788 743.950402,43.9388411 C743.950402,45.8816681 745.244641,47.5120994 747.01452,48.0721713 C746.667804,48.6957179 746.453766,49.4014085 746.453766,50.1618615 C746.453766,52.1046885 747.748005,53.7351199 749.517883,54.2951917 C749.171168,54.9187384 748.95713,55.6244289 748.95713,56.384882 C748.95713,58.327709 750.251369,59.9581403 752.021247,60.5182122 C751.674531,61.1417588 751.460494,61.8474493 751.460494,62.6079024 C751.460494,65.0099883 753.425634,66.9640168 755.841381,66.9640168 L758.123197,66.9640168 L759.846763,71.2491886 L754.751166,73.2754041 L755.679914,75.5866339 L768.196733,70.6082175 L767.267985,68.2969877 L762.17364,70.3244478 L760.821823,66.9640168 L765.85734,66.9640168 C766.071377,66.9640168 766.276653,66.9304125 766.483181,66.900542 L766.483181,66.9640168 L775.244954,66.9640168 C775.577902,66.9640168 775.894577,66.8320887 776.129893,66.5993478 L778.266514,64.4748086 L779,64.4748086 L779,61.9856004 L777.748318,61.9856004 C777.415371,61.9856004 777.097443,62.1162838 776.863379,62.3502694 L774.726758,64.4748086 L769.798886,64.4748086 C770.071753,63.9072691 770.238226,63.2787441 770.238226,62.6079024 C770.238226,60.6650755 768.943987,59.0346441 767.172857,58.4745723 C767.519573,57.8510256 767.734862,57.1453351 767.734862,56.384882 C767.734862,54.442055 766.440623,52.8116237 764.669493,52.2515518 C765.016209,51.6280052 765.231499,50.9223146 765.231499,50.1618615 C765.231499,48.2190346 763.937259,46.5886032 762.166129,46.0285314 C762.512845,45.4049847 762.728135,44.6992942 762.728135,43.9388411 C762.728135,42.7191291 762.2187,41.6188991 761.403855,40.8273309 L761.476453,40.8273309 L761.476453,34.6043104 C761.476453,31.5985915 763.630597,29.0844913 766.483181,28.506995 L766.483181,33.3597063 C766.483181,38.1626335 770.414714,42.071935 775.244954,42.071935 L775.244954,42.071935 Z" id="Page-1"></path>
                </g>
            </g>
        </g>
    </g>
</svg>