<?xml version="1.0" encoding="UTF-8"?>
<svg width="30px" height="30px" viewBox="0 0 30 30" version="1.1" xmlns="http://www.w3.org/2000/svg" xmlns:xlink="http://www.w3.org/1999/xlink">
    <!-- Generator: sketchtool 41.2 (35397) - http://www.bohemiancoding.com/sketch -->
    <title>E3EC2526-F3BE-494B-91A3-4D777A026E62</title>
    <desc>Created with sketchtool.</desc>
    <defs></defs>
    <g id="06-Search" stroke="none" stroke-width="1" fill="none" fill-rule="evenodd">
        <g id="04_TPi_Search_04" transform="translate(-1517.000000, -169.000000)">
            <g id="ic-cancel-36-px" transform="translate(1514.000000, 166.000000)">
                <g id="Group">
                    <polygon id="Shape" points="0 0 36 0 36 36 0 36"></polygon>
                    <path d="M18,3 C9.71,3 3,9.71 3,18 C3,26.29 9.71,33 18,33 C26.29,33 33,26.29 33,18 C33,9.71 26.29,3 18,3 L18,3 Z M25.5,23.38 L23.38,25.5 L18,20.12 L12.62,25.5 L10.5,23.38 L15.88,18 L10.5,12.62 L12.62,10.5 L18,15.88 L23.38,10.5 L25.5,12.62 L20.12,18 L25.5,23.38 L25.5,23.38 Z" id="Shape" fill="#333333"></path>
                </g>
            </g>
        </g>
    </g>
</svg>