<?xml version="1.0" encoding="UTF-8"?>
<svg width="14px" height="20px" viewBox="0 0 14 20" version="1.1" xmlns="http://www.w3.org/2000/svg" xmlns:xlink="http://www.w3.org/1999/xlink">
    <!-- Generator: sketchtool 41.2 (35397) - http://www.bohemiancoding.com/sketch -->
    <title>05AECE49-ACE3-4545-894F-55A1CACFF641</title>
    <desc>Created with sketchtool.</desc>
    <defs></defs>
    <g id="05-Liên-Hệ" stroke="none" stroke-width="1" fill="none" fill-rule="evenodd">
        <g id="05_TPi_Lien_he_02" transform="translate(-911.000000, -560.000000)">
            <g id="Group-2" transform="translate(370.000000, 535.000000)">
                <g id="ic-pin-drop-24-px" transform="translate(536.000000, 23.000000)">
                    <g id="Group">
                        <polygon id="Shape" points="0 0 24 0 24 24 0 24"></polygon>
                        <path d="M18,8 C18,4.69 15.31,2 12,2 C8.69,2 6,4.69 6,8 C6,12.5 12,19 12,19 C12,19 18,12.5 18,8 L18,8 Z M10,8 C10,6.9 10.9,6 12,6 C13.1,6 14,6.9 14,8 C14,9.1 13.11,10 12,10 C10.9,10 10,9.1 10,8 L10,8 Z M5,20 L5,22 L19,22 L19,20 L5,20 L5,20 Z" id="Shape" fill="#FF7500"></path>
                    </g>
                </g>
            </g>
        </g>
    </g>
</svg>