<?xml version="1.0" encoding="UTF-8"?>
<svg width="24px" height="24px" viewBox="0 0 24 24" version="1.1" xmlns="http://www.w3.org/2000/svg" xmlns:xlink="http://www.w3.org/1999/xlink">
    <!-- Generator: sketchtool 41.2 (35397) - http://www.bohemiancoding.com/sketch -->
    <title>142EEB5B-0A8A-400D-B4C3-5EE3F8E1209E</title>
    <desc>Created with sketchtool.</desc>
    <defs></defs>
    <g id="06-Search" stroke="none" stroke-width="1" fill="none" fill-rule="evenodd">
        <g id="04_TPi_Search_02" transform="translate(-1756.000000, -28.000000)">
            <g id="ic-search-24-px" transform="translate(1756.000000, 28.000000)">
                <g id="Group">
                    <polygon id="Shape" fill="#FFFFFF" points="0 0 24 0 24 24 0 24"></polygon>
                    <path d="M15.5,14.255 L14.705,14.255 L14.43,13.98 C15.41,12.845 16,11.37 16,9.755 C16,6.165 13.09,3.255 9.5,3.255 C5.91,3.255 3,6.165 3,9.755 C3,13.345 5.91,16.255 9.5,16.255 C11.115,16.255 12.59,15.665 13.725,14.69 L14,14.965 L14,15.755 L19,20.745 L20.49,19.255 L15.5,14.255 L15.5,14.255 Z M9.5,14.255 C7.015,14.255 5,12.24 5,9.755 C5,7.27 7.015,5.255 9.5,5.255 C11.985,5.255 14,7.27 14,9.755 C14,12.24 11.985,14.255 9.5,14.255 L9.5,14.255 Z" id="Shape" fill="#FF7500"></path>
                </g>
            </g>
        </g>
    </g>
</svg>