<?xml version="1.0" encoding="UTF-8"?>
<svg width="27px" height="27px" viewBox="0 0 27 27" version="1.1" xmlns="http://www.w3.org/2000/svg" xmlns:xlink="http://www.w3.org/1999/xlink">
    <!-- Generator: sketchtool 40.3 (33839) - http://www.bohemiancoding.com/sketch -->
    <title>E515798F-2CFC-4561-9394-A4B4F65EB244</title>
    <desc>Created with sketchtool.</desc>
    <defs></defs>
    <g id="Page-1" stroke="none" stroke-width="1" fill="none" fill-rule="evenodd">
        <g id="01_TPi_Homepage_scrolling" transform="translate(-1721.000000, -31.000000)">
            <g id="HEADER">
                <g id="ic-search-36-px" transform="translate(1717.000000, 27.000000)">
                    <g id="Group">
                        <polygon id="Shape" points="0 0 36 0 36 36 0 36"></polygon>
                        <path d="M23.25,21 L22.0575,21 L21.645,20.5875 C23.115,18.885 24,16.6725 24,14.25 C24,8.865 19.635,4.5 14.25,4.5 C8.865,4.5 4.5,8.865 4.5,14.25 C4.5,19.635 8.865,24 14.25,24 C16.6725,24 18.885,23.115 20.5875,21.6525 L21,22.065 L21,23.25 L28.5,30.735 L30.735,28.5 L23.25,21 L23.25,21 Z M14.25,21 C10.5225,21 7.5,17.9775 7.5,14.25 C7.5,10.5225 10.5225,7.5 14.25,7.5 C17.9775,7.5 21,10.5225 21,14.25 C21,17.9775 17.9775,21 14.25,21 L14.25,21 Z" id="Shape" fill="#333333"></path>
                    </g>
                </g>
            </g>
        </g>
    </g>
</svg>