<?xml version="1.0" encoding="UTF-8"?>
<svg width="18px" height="18px" viewBox="0 0 18 18" version="1.1" xmlns="http://www.w3.org/2000/svg" xmlns:xlink="http://www.w3.org/1999/xlink">
    <!-- Generator: Sketch 41.2 (35397) - http://www.bohemiancoding.com/sketch -->
    <title>Shape</title>
    <desc>Created with Sketch.</desc>
    <defs></defs>
    <g id="01-Home" stroke="none" stroke-width="1" fill="none" fill-rule="evenodd">
        <g id="01_TPi_Homepage" transform="translate(-1759.000000, -61.000000)" fill="#FF7500">
            <g id="HEADER" transform="translate(140.000000, 40.000000)">
                <g id="ic-search-24-px" transform="translate(1616.000000, 18.000000)">
                    <g id="Group">
                        <path d="M15.5,14 L14.705,14 L14.43,13.725 C15.41,12.59 16,11.115 16,9.5 C16,5.91 13.09,3 9.5,3 C5.91,3 3,5.91 3,9.5 C3,13.09 5.91,16 9.5,16 C11.115,16 12.59,15.41 13.725,14.435 L14,14.71 L14,15.5 L19,20.49 L20.49,19 L15.5,14 L15.5,14 Z M9.5,14 C7.015,14 5,11.985 5,9.5 C5,7.015 7.015,5 9.5,5 C11.985,5 14,7.015 14,9.5 C14,11.985 11.985,14 9.5,14 L9.5,14 Z" id="Shape"></path>
                    </g>
                </g>
            </g>
        </g>
    </g>
</svg>