<?xml version="1.0" encoding="UTF-8"?>
<svg width="79px" height="40px" viewBox="0 0 79 40" version="1.1" xmlns="http://www.w3.org/2000/svg" xmlns:xlink="http://www.w3.org/1999/xlink">
    <!-- Generator: sketchtool 40.3 (33839) - http://www.bohemiancoding.com/sketch -->
    <title>E4EB24C5-3D3E-45B0-825C-7CB37ED23858</title>
    <desc>Created with sketchtool.</desc>
    <defs></defs>
    <g id="Page-1" stroke="none" stroke-width="1" fill="none" fill-rule="evenodd">
        <g id="01_TPi_Homepage_scrolling" transform="translate(-146.000000, -25.000000)" fill="#F58221">
            <g id="HEADER">
                <path d="M220.826129,45.5120442 C218.668788,42.7675398 215.984067,40.6640779 213.016395,39.2260103 L212.259864,41.0780571 C214.913367,42.3864683 217.311151,44.2780045 219.245983,46.7362117 C221.103767,49.0956957 222.344504,51.7441095 223.004061,54.4919047 L225,54.2167961 C224.285314,51.1320258 222.909079,48.1551928 220.826129,45.5120442 Z M211.664071,42.5319205 L210.909533,44.382651 C212.992484,45.4613663 214.879493,46.9790707 216.411152,48.92655 C217.869084,50.7785968 218.871371,52.8412531 219.44126,54.9881532 L221.432549,54.710412 C220.810188,52.2291694 219.672404,49.8400684 217.990634,47.7036988 C216.234473,45.4712386 214.063848,43.7442411 211.664071,42.5319205 Z M210.313076,45.8398052 L209.557874,47.6925102 C211.074257,48.534948 212.449163,49.6781624 213.578313,51.1182046 C214.635065,52.4595235 215.388275,53.9410294 215.857204,55.485718 L217.855136,55.2079768 C217.327092,53.3296038 216.434399,51.5223114 215.155803,49.8960116 C213.800822,48.1749375 212.143628,46.818481 210.313076,45.8398052 L210.313076,45.8398052 Z M205.811752,49.3122285 C201.396111,49.3122285 197.81604,52.8596815 197.81604,57.2377254 C197.81604,58.3230222 198.036557,59.356983 198.43508,60.298144 L196.533458,64.5504805 L201.654487,64.007503 C202.424966,64.4741345 203.281127,64.812426 204.193746,65 L204.193746,59.2457549 L202.510648,59.2457549 C202.269542,59.2457549 202.14932,59.1259708 202.14932,58.8850862 L202.14932,57.2186389 C202.14932,56.9784125 202.269542,56.8586284 202.510648,56.8586284 L207.120238,56.8586284 C207.361345,56.8586284 207.48223,56.9784125 207.48223,57.2186389 L207.48223,64.9881532 C211.096175,64.2273266 213.807464,61.0471239 213.807464,57.2377254 C213.807464,52.8596815 210.228722,49.3122285 205.811752,49.3122285 Z M207.325478,54.5629854 C206.912342,54.9815717 206.410866,55.191523 205.825036,55.191523 C205.237878,55.191523 204.73441,54.9815717 204.311311,54.5629854 C203.887547,54.1430828 203.675666,53.6428853 203.675666,53.0604186 C203.675666,52.4799263 203.883562,51.9836778 204.297363,51.5729893 C204.712491,51.1623009 205.222602,50.9556404 205.825036,50.9556404 C206.410866,50.9556404 206.912342,51.1623009 207.325478,51.5729893 C207.741271,51.9836778 207.947175,52.4799263 207.947175,53.0604186 C207.947175,53.6428853 207.741271,54.1430828 207.325478,54.5629854 Z M200.42172,36.7658286 C200.308141,33.5454785 199.121869,30.7588522 196.864897,28.411215 C194.609918,26.1359747 191.854791,25 188.606159,25 L174.583442,25 L170.307948,25 L146,25 L146,26.8744241 L146,27.159405 L146,33.5270502 L148.122138,33.5270502 L148.122138,31.4216138 L158.964637,31.4216138 L158.964637,62.2094248 L156.726927,62.2094248 L156.726927,64.3135448 L160.566702,64.3135448 L161.02899,64.3135448 L167.568762,64.3135448 L167.568762,62.2094248 L165.331052,62.2094248 L165.331052,31.4216138 L172.429422,31.4216138 L172.429422,62.2094248 L170.307948,62.2094248 L170.307948,64.3135448 L174.353627,64.3135448 L174.665803,64.3135448 L181.032882,64.3135448 L181.032882,62.2094248 L178.910744,62.2094248 L178.910744,51.0892458 L188.606159,51.0892458 C191.971027,51.0892458 194.780619,49.8966697 197.038255,47.5082269 C199.332423,45.1211004 200.480171,42.2225879 200.480171,38.8107148 L200.480171,36.7658286 L200.42172,36.7658286 Z M192.42003,42.9610373 C191.941138,43.492168 191.377227,43.9186521 190.727633,44.2398315 C190.077376,44.5616691 189.369332,44.7235751 188.606159,44.7235751 L178.910744,44.7235751 L178.910744,31.4216138 L188.606159,31.4216138 C189.369332,31.4216138 190.077376,31.5848361 190.727633,31.9046992 C191.377227,32.2278531 191.941138,32.6530209 192.42003,33.1848098 C192.898923,33.7159405 193.271543,34.3299987 193.539218,35.0322496 C193.806228,35.7331842 193.941062,36.4808477 193.941062,37.2772147 L193.941062,38.8107148 C193.941062,39.6083981 193.806228,40.3652758 193.539218,41.0846387 C193.271543,41.8046597 192.898923,42.4312229 192.42003,42.9610373 L192.42003,42.9610373 Z" id="Minimal-Logo"></path>
            </g>
        </g>
    </g>
</svg>