<?xml version="1.0" encoding="UTF-8"?>
<svg width="99px" height="60px" viewBox="0 0 99 60" version="1.1" xmlns="http://www.w3.org/2000/svg" xmlns:xlink="http://www.w3.org/1999/xlink">
    <!-- Generator: sketchtool 40.3 (33839) - http://www.bohemiancoding.com/sketch -->
    <title>57E3036D-3934-473E-861F-A92FAE0A7A51</title>
    <desc>Created with sketchtool.</desc>
    <defs></defs>
    <g id="Page-1" stroke="none" stroke-width="1" fill="none" fill-rule="evenodd">
        <g id="01_TPi_Homepage" transform="translate(-371.000000, -3387.000000)" fill="#F58221">
            <g id="FOOTER" transform="translate(0.000000, 3333.000000)">
                <path d="M466.470912,113.962796 L466.470912,111.544508 L468.406003,113.962796 L470,113.962796 L470,110.635893 L468.973386,110.635893 L468.973386,113.052527 L467.039958,110.635893 L465.445962,110.635893 L465.445962,113.962796 L466.470912,113.962796 Z M460.228867,112.795403 L460.228867,111.801631 C460.228867,111.34443 460.359482,111.020338 460.623207,110.832663 C460.844503,110.677231 461.203069,110.598688 461.703897,110.598688 L463.349474,110.598688 C463.849469,110.598688 464.211363,110.677231 464.436819,110.832663 C464.695552,111.020338 464.824503,111.34443 464.824503,111.801631 L464.824503,112.795403 C464.824503,113.255085 464.695552,113.577523 464.436819,113.761892 C464.211363,113.919804 463.849469,113.999173 463.349474,113.999173 L461.703897,113.999173 C461.203069,113.999173 460.844503,113.919804 460.623207,113.761892 C460.359482,113.577523 460.228867,113.255085 460.228867,112.795403 L460.228867,112.795403 Z M461.282103,112.120763 L461.282103,112.477925 C461.282103,112.729262 461.321204,112.900402 461.393583,112.993827 C461.475945,113.094692 461.635678,113.145125 461.869453,113.145125 L463.183918,113.145125 C463.417693,113.145125 463.576593,113.094692 463.658955,112.993827 C463.73383,112.900402 463.770435,112.729262 463.770435,112.477925 L463.770435,112.120763 C463.770435,111.892576 463.730502,111.73053 463.649804,111.632971 C463.556627,111.51309 463.382751,111.452737 463.128178,111.452737 L461.926025,111.452737 C461.674779,111.452737 461.498408,111.51309 461.403566,111.632971 C461.322868,111.73053 461.282103,111.892576 461.282103,112.120763 L461.282103,112.120763 Z M458.525055,113.962796 L459.5525,113.962796 L459.5525,110.635893 L458.525055,110.635893 L458.525055,113.962796 Z M455.554198,111.462658 L455.554198,113.963622 L456.581644,113.963622 L456.581644,111.462658 L458.022563,111.462658 L458.022563,110.636719 L454.109951,110.636719 L454.109951,111.462658 L455.554198,111.462658 Z M449.000176,113.962796 L450.812973,110.635893 L452.150732,110.635893 L453.989319,113.962796 L452.84873,113.962796 L452.529265,113.374139 L450.44692,113.374139 L450.145758,113.962796 L449.000176,113.962796 Z M451.478525,111.408918 L450.832108,112.657333 L452.143245,112.657333 L451.478525,111.408918 Z M444.158287,113.962796 L444.158287,111.573444 L445.511853,113.962796 L446.281397,113.962796 L447.634963,111.573444 L447.634963,113.962796 L448.635787,113.962796 L448.635787,110.635893 L447.057597,110.635893 L445.897041,112.776388 L444.735653,110.635893 L443.160791,110.635893 L443.160791,113.962796 L444.158287,113.962796 Z M438.363827,113.962796 L438.363827,110.635893 L441.46197,110.635893 C441.835511,110.635893 442.102564,110.72601 442.262296,110.906245 C442.397071,111.060023 442.46529,111.298132 442.46529,111.622223 L442.46529,111.836356 C442.46529,112.073637 442.429516,112.252218 442.355474,112.368792 C442.27228,112.506035 442.118371,112.601113 441.892083,112.6532 L441.892083,112.663121 C442.069286,112.697018 442.202397,112.757372 442.285591,112.845009 C442.396239,112.961583 442.451979,113.147605 442.451979,113.396461 L442.451979,113.962796 L441.425365,113.962796 L441.425365,113.563468 C441.425365,113.388194 441.394583,113.268313 441.335515,113.200518 C441.276448,113.132723 441.1658,113.099653 441.003571,113.099653 L439.389608,113.099653 L439.389608,113.962796 L438.363827,113.962796 Z M439.389608,111.461831 L439.389608,112.271234 L441.089261,112.271234 C441.339675,112.271234 441.468626,112.153833 441.468626,111.922339 L441.468626,111.812379 C441.468626,111.670176 441.427029,111.575925 441.351322,111.528799 C441.283935,111.48498 441.166632,111.461831 440.996084,111.461831 L439.389608,111.461831 Z M433.147564,112.795403 L433.147564,111.801631 C433.147564,111.34443 433.279843,111.020338 433.54024,110.832663 C433.762368,110.677231 434.122598,110.598688 434.623425,110.598688 L436.269002,110.598688 C436.768998,110.598688 437.130892,110.677231 437.355516,110.832663 C437.613417,111.020338 437.742368,111.34443 437.742368,111.801631 L437.742368,112.795403 C437.742368,113.255085 437.613417,113.577523 437.355516,113.761892 C437.130892,113.919804 436.768998,113.999173 436.269002,113.999173 L434.623425,113.999173 C434.122598,113.999173 433.762368,113.919804 433.54024,113.761892 C433.279843,113.577523 433.147564,113.255085 433.147564,112.795403 L433.147564,112.795403 Z M434.199968,112.120763 L434.199968,112.477925 C434.199968,112.729262 434.239069,112.900402 434.313112,112.993827 C434.39381,113.094692 434.555206,113.145125 434.788149,113.145125 L436.101782,113.145125 C436.336389,113.145125 436.49529,113.094692 436.579316,112.993827 C436.651695,112.900402 436.689132,112.729262 436.689132,112.477925 L436.689132,112.120763 C436.689132,111.892576 436.650031,111.73053 436.568501,111.632971 C436.474491,111.51309 436.299784,111.452737 436.047706,111.452737 L434.844721,111.452737 C434.592644,111.452737 434.418768,111.51309 434.322263,111.632971 C434.241565,111.73053 434.199968,111.892576 434.199968,112.120763 L434.199968,112.120763 Z M430.130951,113.962796 L430.130951,112.82682 L432.48534,112.82682 L432.48534,112.056275 L430.130951,112.056275 L430.130951,111.435375 L432.60098,111.435375 L432.60098,110.635893 L429.105169,110.635893 L429.105169,113.962796 L430.130951,113.962796 Z M424.882243,113.962796 L424.882243,111.544508 L426.815671,113.962796 L428.409667,113.962796 L428.409667,110.635893 L427.385549,110.635893 L427.385549,113.052527 L425.452121,110.635893 L423.856461,110.635893 L423.856461,113.962796 L424.882243,113.962796 Z M422.08027,113.962796 L423.106883,113.962796 L423.106883,110.635893 L422.08027,110.635893 L422.08027,113.962796 Z M417.100278,111.462658 L417.100278,113.963622 L418.12606,113.963622 L418.12606,111.462658 L419.570307,111.462658 L419.570307,110.636719 L415.656031,110.636719 L415.656031,111.462658 L417.100278,111.462658 Z M410.684359,113.962796 L412.497987,110.635893 L413.834915,110.635893 L415.674333,113.962796 L414.53624,113.962796 L414.213447,113.374139 L412.133598,113.374139 L411.830772,113.962796 L410.684359,113.962796 Z M413.163539,111.408918 L412.51629,112.657333 L413.830755,112.657333 L413.163539,111.408918 Z M407.267582,113.962796 L407.267582,112.705286 L409.433121,112.705286 L409.433121,113.962796 L410.458903,113.962796 L410.458903,110.635893 L409.433121,110.635893 L409.433121,111.820647 L407.267582,111.820647 L407.267582,110.635893 L406.2418,110.635893 L406.2418,113.962796 L407.267582,113.962796 Z M401.815881,113.962796 L401.815881,110.635893 L404.614526,110.635893 C405.068765,110.635893 405.393222,110.745026 405.5854,110.961638 C405.745132,111.138566 405.82583,111.410572 405.82583,111.775175 L405.82583,112.060409 C405.82583,112.35143 405.758443,112.591192 405.625333,112.776388 C405.462273,113.009535 405.213523,113.126109 404.882411,113.126109 L402.840831,113.126109 L402.840831,113.962796 L401.815881,113.962796 Z M402.840831,111.461831 L402.840831,112.298517 L404.436491,112.298517 C404.659451,112.298517 404.771763,112.181943 404.771763,111.943835 L404.771763,111.816513 C404.771763,111.579232 404.631165,111.461831 404.350801,111.461831 L402.840831,111.461831 Z M394.823427,112.795403 C394.823427,113.255085 394.955706,113.577523 395.216935,113.761892 C395.438231,113.919804 395.800124,113.999173 396.296792,113.999173 L397.533887,113.999173 C398.176976,113.999173 398.59877,113.951221 398.796771,113.857796 C399.058,113.728821 399.190279,113.44276 399.190279,112.997961 L399.190279,112.050488 L396.884974,112.050488 L396.884974,112.74001 L398.163665,112.74001 L398.163665,112.836741 C398.163665,113.078984 397.982302,113.200518 397.626232,113.200518 L396.530567,113.200518 C396.266843,113.200518 396.094631,113.155046 396.005613,113.064929 C395.920756,112.973984 395.877495,112.788789 395.877495,112.506035 L395.877495,112.091826 C395.877495,111.810726 395.920756,111.624704 396.005613,111.53376 C396.094631,111.444469 396.266843,111.39817 396.530567,111.39817 L397.642871,111.39817 C397.820074,111.39817 397.942369,111.413879 398.008924,111.450256 C398.110421,111.502343 398.163665,111.606515 398.163665,111.771041 L399.168648,111.771041 L399.168648,111.664388 C399.168648,111.296478 399.094606,111.0377 398.944025,110.888056 C398.751015,110.694593 398.383297,110.598688 397.845032,110.598688 L396.296792,110.598688 C395.800124,110.598688 395.438231,110.677231 395.216935,110.832663 C394.955706,111.020338 394.823427,111.34443 394.823427,111.801631 L394.823427,112.795403 L394.823427,112.795403 Z M390.814309,113.962796 L390.814309,111.544508 L392.747737,113.962796 L394.341734,113.962796 L394.341734,110.635893 L393.315952,110.635893 L393.315952,113.052527 L391.383356,110.635893 L389.786864,110.635893 L389.786864,113.962796 L390.814309,113.962796 Z M384.708703,112.795403 L384.708703,111.801631 C384.708703,111.34443 384.840982,111.020338 385.102211,110.832663 C385.325171,110.677231 385.683737,110.598688 386.184565,110.598688 L387.832637,110.598688 C388.330969,110.598688 388.693695,110.677231 388.918319,110.832663 C389.177052,111.020338 389.306835,111.34443 389.306835,111.801631 L389.306835,112.795403 C389.306835,113.255085 389.177052,113.577523 388.918319,113.761892 C388.693695,113.919804 388.330969,113.999173 387.832637,113.999173 L386.184565,113.999173 C385.683737,113.999173 385.325171,113.919804 385.102211,113.761892 C384.840982,113.577523 384.708703,113.255085 384.708703,112.795403 L384.708703,112.795403 Z M385.762771,112.120763 L385.762771,112.477925 C385.762771,112.729262 385.800208,112.900402 385.874251,112.993827 C385.956613,113.094692 386.117177,113.145125 386.350121,113.145125 L387.664585,113.145125 C387.899192,113.145125 388.058093,113.094692 388.140455,112.993827 C388.213666,112.900402 388.251103,112.729262 388.251103,112.477925 L388.251103,112.120763 C388.251103,111.892576 388.21117,111.73053 388.131304,111.632971 C388.036462,111.51309 387.862587,111.452737 387.609677,111.452737 L386.407524,111.452737 C386.153783,111.452737 385.980739,111.51309 385.883402,111.632971 C385.804368,111.73053 385.762771,111.892576 385.762771,112.120763 L385.762771,112.120763 Z M380.01074,112.777214 C380.01074,113.194731 380.123883,113.500634 380.346011,113.700711 C380.570635,113.900788 380.916722,114 381.385104,114 L382.855974,114 C383.323524,114 383.670443,113.900788 383.892571,113.700711 C384.117194,113.500634 384.227842,113.194731 384.227842,112.777214 L384.227842,110.635893 L383.202892,110.635893 L383.202892,112.556468 C383.202892,112.768947 383.159632,112.920245 383.072278,113.009535 C382.984924,113.101306 382.840167,113.145125 382.628022,113.145125 L381.611392,113.145125 C381.401743,113.145125 381.253658,113.101306 381.166304,113.009535 C381.080614,112.920245 381.036521,112.768947 381.036521,112.556468 L381.036521,110.635893 L380.01074,110.635893 L380.01074,112.777214 L380.01074,112.777214 Z M375.354373,113.962796 L375.354373,110.635893 L378.452516,110.635893 C378.823562,110.635893 379.09311,110.72601 379.253674,110.906245 C379.387617,111.060023 379.455836,111.298132 379.455836,111.622223 L379.455836,111.836356 C379.455836,112.073637 379.420062,112.252218 379.346852,112.368792 C379.261162,112.506035 379.108085,112.601113 378.883461,112.6532 L378.883461,112.663121 C379.060664,112.697018 379.191279,112.757372 379.276137,112.845009 C379.385953,112.961583 379.442525,113.147605 379.442525,113.396461 L379.442525,113.962796 L378.415911,113.962796 L378.415911,113.563468 C378.415911,113.388194 378.385129,113.268313 378.326062,113.200518 C378.264498,113.132723 378.156346,113.099653 377.99495,113.099653 L376.380154,113.099653 L376.380154,113.962796 L375.354373,113.962796 Z M376.380154,111.461831 L376.380154,112.271234 L378.077312,112.271234 C378.330221,112.271234 378.457508,112.153833 378.457508,111.922339 L378.457508,111.812379 C378.457508,111.670176 378.417575,111.575925 378.341868,111.528799 C378.276977,111.48498 378.15801,111.461831 377.98663,111.461831 L376.380154,111.461831 Z M372.575694,111.462658 L372.575694,113.963622 L373.602308,113.963622 L373.602308,111.462658 L375.044059,111.462658 L375.044059,110.636719 L371.131446,110.636719 L371.131446,111.462658 L372.575694,111.462658 Z M464.722174,79.7669625 C462.020034,76.3193518 458.657333,73.6770104 454.940226,71.8705286 L453.992647,74.1970457 C457.316246,75.8406548 460.319549,78.2167778 462.742989,81.3047456 C465.069925,84.2686987 466.623988,87.5956016 467.450105,91.0473461 L469.950084,90.7017583 C469.054916,86.82671 467.331137,83.0872513 464.722174,79.7669625 Z M453.246397,76.0233699 L452.301313,78.3482335 C454.910277,79.7033015 457.273817,81.609822 459.192271,84.05622 C461.018378,86.3827371 462.273775,88.9738191 462.98758,91.670727 L465.481735,91.3218321 C464.702208,88.2049275 463.277095,85.20377 461.170623,82.5200904 C458.970975,79.715703 456.252195,77.5462713 453.246397,76.0233699 Z M451.554232,80.1786915 L450.608316,82.5060354 C452.507635,83.5642948 454.22975,85.0003858 455.644047,86.809348 C456.967664,88.4942953 457.911083,90.3553437 458.498433,92.2957615 L461.000908,91.9468666 C460.339515,89.5872788 459.221388,87.3169818 457.619904,85.2740451 C455.922747,83.1120542 453.847058,81.4080913 451.554232,80.1786915 L451.554232,80.1786915 Z M445.916176,84.5407044 C440.38544,84.5407044 435.901285,88.9969685 435.901285,94.4966103 C435.901285,95.859946 436.177489,97.158794 436.676653,98.3410682 L434.294809,103.682798 L440.709065,103.000717 C441.674115,103.586893 442.746485,104.01185 443.889571,104.247478 L443.889571,97.0190707 L441.781435,97.0190707 C441.479441,97.0190707 441.32886,96.8685995 441.32886,96.5660034 L441.32886,94.4726341 C441.32886,94.1708648 441.479441,94.0203935 441.781435,94.0203935 L447.555097,94.0203935 C447.857091,94.0203935 448.008504,94.1708648 448.008504,94.4726341 L448.008504,104.232597 C452.535089,103.276856 455.931067,99.2819269 455.931067,94.4966103 C455.931067,88.9969685 451.448575,84.5407044 445.916176,84.5407044 Z M447.812166,91.1366367 C447.2947,91.6624594 446.666585,91.9261974 445.932815,91.9261974 C445.19738,91.9261974 444.566769,91.6624594 444.036824,91.1366367 C443.506046,90.6091606 443.240657,89.980819 443.240657,89.2491319 C443.240657,88.519925 443.501055,87.8965441 444.019353,87.3806427 C444.539315,86.8647412 445.178245,86.605137 445.932815,86.605137 C446.666585,86.605137 447.2947,86.8647412 447.812166,87.3806427 C448.332961,87.8965441 448.590862,88.519925 448.590862,89.2491319 C448.590862,89.980819 448.332961,90.6091606 447.812166,91.1366367 Z M439.164985,68.7800805 C439.022723,64.7347186 437.536878,61.234195 434.709947,58.2851237 C431.885512,55.4269966 428.434626,54 424.365608,54 L406.801696,54 L401.4465,54 L371,54 L371,56.3546271 L371,56.7126164 L371,64.7115692 L373.658048,64.7115692 L373.658048,62.0667475 L387.238632,62.0667475 L387.238632,100.741994 L384.435827,100.741994 L384.435827,103.385162 L389.245271,103.385162 L389.824301,103.385162 L398.01558,103.385162 L398.01558,100.741994 L395.212775,100.741994 L395.212775,62.0667475 L404.103715,62.0667475 L404.103715,100.741994 L401.4465,100.741994 L401.4465,103.385162 L406.513845,103.385162 L406.904856,103.385162 L414.879831,103.385162 L414.879831,100.741994 L412.221783,100.741994 L412.221783,86.7729703 L424.365608,86.7729703 C428.580215,86.7729703 432.09932,85.2748719 434.927083,82.2745411 C437.800603,79.275864 439.238195,75.6347903 439.238195,71.3488398 L439.238195,68.7800805 L439.164985,68.7800805 Z M429.142606,76.5624208 C428.542778,77.2296202 427.836461,77.7653641 427.022824,78.1688254 C426.208355,78.5731136 425.321507,78.7764978 424.365608,78.7764978 L412.221783,78.7764978 L412.221783,62.0667475 L424.365608,62.0667475 C425.321507,62.0667475 426.208355,62.2717853 427.022824,62.6735931 C427.836461,63.0795348 428.542778,63.6136251 429.142606,64.2816513 C429.742435,64.9488508 430.209153,65.7202227 430.544425,66.6023811 C430.878865,67.482886 431.047748,68.4220912 431.047748,69.422477 L431.047748,71.3488398 C431.047748,72.3508791 430.878865,73.301659 430.544425,74.2053133 C430.209153,75.1097944 429.742435,75.8968748 429.142606,76.5624208 L429.142606,76.5624208 Z" id="Logo"></path>
            </g>
        </g>
    </g>
</svg>