<?xml version="1.0" encoding="UTF-8"?>
<svg width="99px" height="60px" viewBox="0 0 99 60" version="1.1" xmlns="http://www.w3.org/2000/svg" xmlns:xlink="http://www.w3.org/1999/xlink">
    <!-- Generator: sketchtool 40.3 (33839) - http://www.bohemiancoding.com/sketch -->
    <title>065171CB-9ECF-469A-A187-1AA1381DDD3C</title>
    <desc>Created with sketchtool.</desc>
    <defs></defs>
    <g id="Page-1" stroke="none" stroke-width="1" fill="none" fill-rule="evenodd">
        <g id="01_TPi_Homepage" transform="translate(-136.000000, -34.000000)" fill="#FFFFFF">
            <g id="HEADER" transform="translate(136.000000, 34.000000)">
                <path d="M95.4709115,59.9627956 L95.4709115,57.5445075 L97.4060034,59.9627956 L99,59.9627956 L99,56.6358926 L97.9733863,56.6358926 L97.9733863,59.0525271 L96.0399583,56.6358926 L94.4459617,56.6358926 L94.4459617,59.9627956 L95.4709115,59.9627956 Z M89.2288675,58.7954032 L89.2288675,57.8016315 C89.2288675,57.3444304 89.359482,57.0203384 89.6232069,56.8326627 C89.8445029,56.6772309 90.2030689,56.5986882 90.7038967,56.5986882 L92.3494735,56.5986882 C92.8494693,56.5986882 93.2113631,56.6772309 93.4368188,56.8326627 C93.6955521,57.0203384 93.8245027,57.3444304 93.8245027,57.8016315 L93.8245027,58.7954032 C93.8245027,59.2550846 93.6955521,59.577523 93.4368188,59.7618916 C93.2113631,59.9198038 92.8494693,59.9991732 92.3494735,59.9991732 L90.7038967,59.9991732 C90.2030689,59.9991732 89.8445029,59.9198038 89.6232069,59.7618916 C89.359482,59.577523 89.2288675,59.2550846 89.2288675,58.7954032 L89.2288675,58.7954032 Z M90.2821032,58.1207628 L90.2821032,58.4779254 C90.2821032,58.729262 90.3212044,58.9004024 90.3935831,58.9938268 C90.4759452,59.0946922 90.6356776,59.1451248 90.8694527,59.1451248 L92.1839175,59.1451248 C92.4176926,59.1451248 92.5765931,59.0946922 92.6589551,58.9938268 C92.7338297,58.9004024 92.770435,58.729262 92.770435,58.4779254 L92.770435,58.1207628 C92.770435,57.8925756 92.7305019,57.7305297 92.6498038,57.6329714 C92.5566265,57.5130904 92.3827511,57.4527366 92.1281775,57.4527366 L90.9260246,57.4527366 C90.6747788,57.4527366 90.4984075,57.5130904 90.4035664,57.6329714 C90.3228683,57.7305297 90.2821032,57.8925756 90.2821032,58.1207628 L90.2821032,58.1207628 Z M87.5250548,59.9627956 L88.5525004,59.9627956 L88.5525004,56.6358926 L87.5250548,56.6358926 L87.5250548,59.9627956 Z M84.5541979,57.4626578 L84.5541979,59.9636223 L85.5816435,59.9636223 L85.5816435,57.4626578 L87.0225632,57.4626578 L87.0225632,56.6367194 L83.1099505,56.6367194 L83.1099505,57.4626578 L84.5541979,57.4626578 Z M78.0001765,59.9627956 L79.8129732,56.6358926 L81.1507324,56.6358926 L82.9893192,59.9627956 L81.8487298,59.9627956 L81.529265,59.3741388 L79.4469197,59.3741388 L79.1457575,59.9627956 L78.0001765,59.9627956 Z M80.478525,57.408918 L79.8321078,58.6573334 L81.1432449,58.6573334 L80.478525,57.408918 Z M73.158287,59.9627956 L73.158287,57.5734443 L74.511853,59.9627956 L75.2813973,59.9627956 L76.6349633,57.5734443 L76.6349633,59.9627956 L77.6357869,59.9627956 L77.6357869,56.6358926 L76.0575971,56.6358926 L74.8970412,58.7763876 L73.7356532,56.6358926 L72.1607913,56.6358926 L72.1607913,59.9627956 L73.158287,59.9627956 Z M67.3638266,59.9627956 L67.3638266,56.6358926 L70.4619703,56.6358926 C70.8355112,56.6358926 71.1025639,56.72601 71.2622963,56.9062448 C71.3970706,57.0600231 71.4652896,57.2981315 71.4652896,57.6222234 L71.4652896,57.8363556 C71.4652896,58.0736372 71.4295162,58.2522185 71.3554736,58.3687924 C71.2722796,58.5060354 71.1183707,58.6011134 70.8920831,58.6531996 L70.8920831,58.6631208 C71.0692863,58.6970181 71.2023967,58.757372 71.2855906,58.8450091 C71.3962386,58.961583 71.4519786,59.1476051 71.4519786,59.3964614 L71.4519786,59.9627956 L70.4253649,59.9627956 L70.4253649,59.563468 C70.4253649,59.3881938 70.3945831,59.2683128 70.3355154,59.2005181 C70.2764477,59.1327234 70.1657997,59.0996528 70.0035715,59.0996528 L68.3896083,59.0996528 L68.3896083,59.9627956 L67.3638266,59.9627956 Z M68.3896083,57.461831 L68.3896083,58.2712341 L70.0892613,58.2712341 C70.3396751,58.2712341 70.4686258,58.1538334 70.4686258,57.9223392 L70.4686258,57.8123794 C70.4686258,57.6701758 70.4270288,57.5759246 70.3513223,57.528799 C70.2839352,57.4849804 70.1666317,57.461831 69.996084,57.461831 L68.3896083,57.461831 Z M62.1475643,58.7954032 L62.1475643,57.8016315 C62.1475643,57.3444304 62.2798427,57.0203384 62.5402398,56.8326627 C62.7623678,56.6772309 63.1225977,56.5986882 63.6234254,56.5986882 L65.2690023,56.5986882 C65.7689981,56.5986882 66.1308919,56.6772309 66.3555156,56.8326627 C66.6134169,57.0203384 66.7423676,57.3444304 66.7423676,57.8016315 L66.7423676,58.7954032 C66.7423676,59.2550846 66.6134169,59.577523 66.3555156,59.7618916 C66.1308919,59.9198038 65.7689981,59.9991732 65.2690023,59.9991732 L63.6234254,59.9991732 C63.1225977,59.9991732 62.7623678,59.9198038 62.5402398,59.7618916 C62.2798427,59.577523 62.1475643,59.2550846 62.1475643,58.7954032 L62.1475643,58.7954032 Z M63.1999681,58.1207628 L63.1999681,58.4779254 C63.1999681,58.729262 63.2390692,58.9004024 63.3131119,58.9938268 C63.39381,59.0946922 63.5552063,59.1451248 63.7881495,59.1451248 L65.1017824,59.1451248 C65.3363894,59.1451248 65.4952899,59.0946922 65.5793158,58.9938268 C65.6516946,58.9004024 65.6891318,58.729262 65.6891318,58.4779254 L65.6891318,58.1207628 C65.6891318,57.8925756 65.6500307,57.7305297 65.5685006,57.6329714 C65.4744914,57.5130904 65.299784,57.4527366 65.0477063,57.4527366 L63.8447214,57.4527366 C63.5926436,57.4527366 63.4187682,57.5130904 63.3222632,57.6329714 C63.2415651,57.7305297 63.1999681,57.8925756 63.1999681,58.1207628 L63.1999681,58.1207628 Z M59.1309507,59.9627956 L59.1309507,58.8268203 L61.4853402,58.8268203 L61.4853402,58.0562751 L59.1309507,58.0562751 L59.1309507,57.4353745 L61.6009798,57.4353745 L61.6009798,56.6358926 L58.105169,56.6358926 L58.105169,59.9627956 L59.1309507,59.9627956 Z M53.8822427,59.9627956 L53.8822427,57.5445075 L55.8156707,59.9627956 L57.4096673,59.9627956 L57.4096673,56.6358926 L56.3855495,56.6358926 L56.3855495,59.0525271 L54.4521214,56.6358926 L52.856461,56.6358926 L52.856461,59.9627956 L53.8822427,59.9627956 Z M51.0802696,59.9627956 L52.1068833,59.9627956 L52.1068833,56.6358926 L51.0802696,56.6358926 L51.0802696,59.9627956 Z M46.1002782,57.4626578 L46.1002782,59.9636223 L47.1260599,59.9636223 L47.1260599,57.4626578 L48.5703073,57.4626578 L48.5703073,56.6367194 L44.6560307,56.6367194 L44.6560307,57.4626578 L46.1002782,57.4626578 Z M39.6843587,59.9627956 L41.4979874,56.6358926 L42.8349146,56.6358926 L44.6743334,59.9627956 L43.5362398,59.9627956 L43.2134472,59.3741388 L41.1335978,59.3741388 L40.8307717,59.9627956 L39.6843587,59.9627956 Z M42.1635392,57.408918 L41.5162901,58.6573334 L42.8307549,58.6573334 L42.1635392,57.408918 Z M36.2675821,59.9627956 L36.2675821,58.7052858 L38.4331213,58.7052858 L38.4331213,59.9627956 L39.458903,59.9627956 L39.458903,56.6358926 L38.4331213,56.6358926 L38.4331213,57.8206471 L36.2675821,57.8206471 L36.2675821,56.6358926 L35.2418004,56.6358926 L35.2418004,59.9627956 L36.2675821,59.9627956 Z M30.8158808,59.9627956 L30.8158808,56.6358926 L33.6145262,56.6358926 C34.0687653,56.6358926 34.3932218,56.7450256 34.5853999,56.9616381 C34.7451323,57.1385658 34.8258305,57.4105716 34.8258305,57.775175 L34.8258305,58.060409 C34.8258305,58.3514303 34.7584433,58.5911922 34.625333,58.7763876 C34.4622728,59.0095354 34.2135228,59.1261092 33.8824108,59.1261092 L31.8408306,59.1261092 L31.8408306,59.9627956 L30.8158808,59.9627956 Z M31.8408306,57.461831 L31.8408306,58.2985173 L33.4364911,58.2985173 C33.6594509,58.2985173 33.7717628,58.1819434 33.7717628,57.9438351 L33.7717628,57.8165133 C33.7717628,57.5792317 33.631165,57.461831 33.3508013,57.461831 L31.8408306,57.461831 Z M23.8234271,58.7954032 C23.8234271,59.2550846 23.9557055,59.577523 24.2169346,59.7618916 C24.4382306,59.9198038 24.8001244,59.9991732 25.2967924,59.9991732 L26.5338868,59.9991732 C27.1769763,59.9991732 27.5987697,59.9512209 27.7967714,59.8577964 C28.0580005,59.728821 28.1902789,59.4427603 28.1902789,58.9979606 L28.1902789,58.0504878 L25.8849738,58.0504878 L25.8849738,58.7400099 L27.1636652,58.7400099 L27.1636652,58.8367414 C27.1636652,59.0789836 26.9823024,59.2005181 26.6262322,59.2005181 L25.5305675,59.2005181 C25.2668426,59.2005181 25.094631,59.155046 25.0056135,59.0649286 C24.9207556,58.9739845 24.8774948,58.7887891 24.8774948,58.5060354 L24.8774948,58.091826 C24.8774948,57.8107259 24.9207556,57.6247037 25.0056135,57.5337596 C25.094631,57.4444689 25.2668426,57.3981701 25.5305675,57.3981701 L26.6428709,57.3981701 C26.8200741,57.3981701 26.9423693,57.4138786 27.0089244,57.4502563 C27.1104211,57.5023425 27.1636652,57.6065149 27.1636652,57.7710412 L28.1686485,57.7710412 L28.1686485,57.6643885 C28.1686485,57.296478 28.0946058,57.0377005 27.9440247,56.888056 C27.7510147,56.694593 27.3832973,56.5986882 26.8450323,56.5986882 L25.2967924,56.5986882 C24.8001244,56.5986882 24.4382306,56.6772309 24.2169346,56.8326627 C23.9557055,57.0203384 23.8234271,57.3444304 23.8234271,57.8016315 L23.8234271,58.7954032 L23.8234271,58.7954032 Z M19.8143094,59.9627956 L19.8143094,57.5445075 L21.7477374,59.9627956 L23.341734,59.9627956 L23.341734,56.6358926 L22.3159522,56.6358926 L22.3159522,59.0525271 L20.3833562,56.6358926 L18.7868638,56.6358926 L18.7868638,59.9627956 L19.8143094,59.9627956 Z M13.7087034,58.7954032 L13.7087034,57.8016315 C13.7087034,57.3444304 13.8409819,57.0203384 14.1022109,56.8326627 C14.3251708,56.6772309 14.6837368,56.5986882 15.1845646,56.5986882 L16.8326372,56.5986882 C17.3309692,56.5986882 17.6936949,56.6772309 17.9183186,56.8326627 C18.1770519,57.0203384 18.3068345,57.3444304 18.3068345,57.8016315 L18.3068345,58.7954032 C18.3068345,59.2550846 18.1770519,59.577523 17.9183186,59.7618916 C17.6936949,59.9198038 17.3309692,59.9991732 16.8326372,59.9991732 L15.1845646,59.9991732 C14.6837368,59.9991732 14.3251708,59.9198038 14.1022109,59.7618916 C13.8409819,59.577523 13.7087034,59.2550846 13.7087034,58.7954032 L13.7087034,58.7954032 Z M14.7627711,58.1207628 L14.7627711,58.4779254 C14.7627711,58.729262 14.8002084,58.9004024 14.874251,58.9938268 C14.9566131,59.0946922 15.1171775,59.1451248 15.3501206,59.1451248 L16.6645854,59.1451248 C16.8991924,59.1451248 17.0580929,59.0946922 17.140455,58.9938268 C17.2136657,58.9004024 17.251103,58.729262 17.251103,58.4779254 L17.251103,58.1207628 C17.251103,57.8925756 17.2111698,57.7305297 17.1313036,57.6329714 C17.0364625,57.5130904 16.8625871,57.4527366 16.6096774,57.4527366 L15.4075244,57.4527366 C15.1537828,57.4527366 14.9807393,57.5130904 14.8834024,57.6329714 C14.8043681,57.7305297 14.7627711,57.8925756 14.7627711,58.1207628 L14.7627711,58.1207628 Z M9.01073959,58.7772144 C9.01073959,59.1947308 9.12388339,59.5006339 9.34601131,59.700711 C9.57063505,59.9007882 9.91672199,60 10.3851041,60 L11.8559736,60 C12.3235237,60 12.6704426,59.9007882 12.8925705,59.700711 C13.1171943,59.5006339 13.2278423,59.1947308 13.2278423,58.7772144 L13.2278423,56.6358926 L12.2028925,56.6358926 L12.2028925,58.5564681 C12.2028925,58.7689467 12.1596316,58.9202447 12.0722779,59.0095354 C11.9849242,59.1013063 11.8401667,59.1451248 11.6280221,59.1451248 L10.6113917,59.1451248 C10.4017429,59.1451248 10.2536576,59.1013063 10.1663039,59.0095354 C10.0806141,58.9202447 10.0365213,58.7689467 10.0365213,58.5564681 L10.0365213,56.6358926 L9.01073959,56.6358926 L9.01073959,58.7772144 L9.01073959,58.7772144 Z M4.35437273,59.9627956 L4.35437273,56.6358926 L7.45251641,56.6358926 C7.82356154,56.6358926 8.09311003,56.72601 8.2536744,56.9062448 C8.3876167,57.0600231 8.45583576,57.2981315 8.45583576,57.6222234 L8.45583576,57.8363556 C8.45583576,58.0736372 8.42006235,58.2522185 8.34685165,58.3687924 C8.26116186,58.5060354 8.10808494,58.6011134 7.88346121,58.6531996 L7.88346121,58.6631208 C8.06066438,58.6970181 8.19127892,58.757372 8.27613677,58.8450091 C8.38595282,58.961583 8.44252473,59.1476051 8.44252473,59.3964614 L8.44252473,59.9627956 L7.41591106,59.9627956 L7.41591106,59.563468 C7.41591106,59.3881938 7.38512929,59.2683128 7.32606156,59.2005181 C7.26449802,59.1327234 7.15634585,59.0996528 6.99494954,59.0996528 L5.38015446,59.0996528 L5.38015446,59.9627956 L4.35437273,59.9627956 Z M5.38015446,57.461831 L5.38015446,58.2712341 L7.07731157,58.2712341 C7.33022126,58.2712341 7.45750805,58.1538334 7.45750805,57.9223392 L7.45750805,57.8123794 C7.45750805,57.6701758 7.41757494,57.5759246 7.34186842,57.528799 C7.27697712,57.4849804 7.15800973,57.461831 6.98663014,57.461831 L5.38015446,57.461831 Z M1.57569391,57.4626578 L1.57569391,59.9636223 L2.60230758,59.9636223 L2.60230758,57.4626578 L4.04405919,57.4626578 L4.04405919,56.6367194 L0.131446483,56.6367194 L0.131446483,57.4626578 L1.57569391,57.4626578 Z M93.7221741,25.7669625 C91.0200338,22.3193518 87.6573333,19.6770104 83.9402264,17.8705286 L82.992647,20.1970457 C86.3162464,21.8406548 89.3195489,24.2167778 91.7429894,27.3047456 C94.069925,30.2686987 95.6239884,33.5956016 96.4501046,37.0473461 L98.9500836,36.7017583 C98.0549164,32.82671 96.3311372,29.0872513 93.7221741,25.7669625 Z M82.246397,22.0233699 L81.3013135,24.3482335 C83.9102766,25.7033015 86.2738174,27.609822 88.1922705,30.05622 C90.0183783,32.3827371 91.2737754,34.9738191 91.9875797,37.670727 L94.4817351,37.3218321 C93.7022076,34.2049275 92.2770948,31.20377 90.1706233,28.5200904 C87.9709745,25.715703 85.2521954,23.5462713 82.246397,22.0233699 Z M80.5542315,26.1786915 L79.608316,28.5060354 C81.5076345,29.5642948 83.2297498,31.0003858 84.6440474,32.809348 C85.9676636,34.4942953 86.9110833,36.3553437 87.4984328,38.2957615 L90.0009076,37.9468666 C89.3395155,35.5872788 88.2213884,33.3169818 86.6199044,31.2740451 C84.9227472,29.1120542 82.8470575,27.4080913 80.5542315,26.1786915 L80.5542315,26.1786915 Z M74.9161758,30.5407044 C69.3854402,30.5407044 64.9012849,34.9969685 64.9012849,40.4966103 C64.9012849,41.859946 65.1774889,43.158794 65.6766527,44.3410682 L63.2948092,49.6827978 L69.7090648,49.0007165 C70.6741149,49.586893 71.7464853,50.0118503 72.8895705,50.2474784 L72.8895705,43.0190707 L70.7814351,43.0190707 C70.479441,43.0190707 70.3288599,42.8685995 70.3288599,42.5660034 L70.3288599,40.4726341 C70.3288599,40.1708648 70.479441,40.0203935 70.7814351,40.0203935 L76.5550971,40.0203935 C76.8570912,40.0203935 77.0085043,40.1708648 77.0085043,40.4726341 L77.0085043,50.2325966 C81.5350885,49.2768561 84.9310666,45.2819269 84.9310666,40.4966103 C84.9310666,34.9969685 80.4485752,30.5407044 74.9161758,30.5407044 Z M76.8121665,37.1366367 C76.2947,37.6624594 75.6665854,37.9261974 74.9328146,37.9261974 C74.1973798,37.9261974 73.5667695,37.6624594 73.0368238,37.1366367 C72.5060463,36.6091606 72.2406575,35.980819 72.2406575,35.2491319 C72.2406575,34.519925 72.5010546,33.8965441 73.0193531,33.3806427 C73.5393155,32.8647412 74.1782452,32.605137 74.9328146,32.605137 C75.6665854,32.605137 76.2947,32.8647412 76.8121665,33.3806427 C77.3329608,33.8965441 77.5908621,34.519925 77.5908621,35.2491319 C77.5908621,35.980819 77.3329608,36.6091606 76.8121665,37.1366367 Z M68.1649846,14.7800805 C68.0227229,10.7347186 66.5368785,7.23419501 63.7099471,4.28512374 C60.8855116,1.42699664 57.4346255,0 53.3656081,0 L35.8016958,0 L30.4464996,0 L0,0 L0,2.35462713 L0,2.71261644 L0,10.7115692 L2.65804755,10.7115692 L2.65804755,8.06674751 L16.2386323,8.06674751 L16.2386323,46.7419942 L13.4358272,46.7419942 L13.4358272,49.3851623 L18.245271,49.3851623 L18.824301,49.3851623 L27.01558,49.3851623 L27.01558,46.7419942 L24.2127749,46.7419942 L24.2127749,8.06674751 L33.1037152,8.06674751 L33.1037152,46.7419942 L30.4464996,46.7419942 L30.4464996,49.3851623 L35.5138447,49.3851623 L35.9048563,49.3851623 L43.8798309,49.3851623 L43.8798309,46.7419942 L41.2217834,46.7419942 L41.2217834,32.7729703 L53.3656081,32.7729703 C57.580215,32.7729703 61.0993202,31.2748719 63.9270834,28.2745411 C66.8006034,25.275864 68.2381953,21.6347903 68.2381953,17.3488398 L68.2381953,14.7800805 L68.1649846,14.7800805 Z M58.1426062,22.5624208 C57.5427777,23.2296202 56.8364608,23.7653641 56.0228237,24.1688254 C55.2083547,24.5731136 54.3215069,24.7764978 53.3656081,24.7764978 L41.2217834,24.7764978 L41.2217834,8.06674751 L53.3656081,8.06674751 C54.3215069,8.06674751 55.2083547,8.27178526 56.0228237,8.67359312 C56.8364608,9.07953481 57.5427777,9.61362509 58.1426062,10.2816513 C58.7424348,10.9488508 59.209153,11.7202227 59.5444247,12.6023811 C59.8788645,13.482886 60.0477483,14.4220912 60.0477483,15.422477 L60.0477483,17.3488398 C60.0477483,18.3508791 59.8788645,19.301659 59.5444247,20.2053133 C59.209153,21.1097944 58.7424348,21.8968748 58.1426062,22.5624208 L58.1426062,22.5624208 Z" id="Logo_TPi_white"></path>
            </g>
        </g>
    </g>
</svg>