<?xml version="1.0" standalone="no"?>
<!DOCTYPE svg PUBLIC "-//W3C//DTD SVG 20010904//EN"
 "http://www.w3.org/TR/2001/REC-SVG-20010904/DTD/svg10.dtd">
<svg version="1.0" xmlns="http://www.w3.org/2000/svg"
 width="54.000000pt" height="36.000000pt" viewBox="0 0 54.000000 36.000000"
 preserveAspectRatio="xMidYMid meet">

<g transform="translate(0.000000,36.000000) scale(0.100000,-0.100000)"
fill="#000000" stroke="none">
<path d="M0 290 l0 -70 201 0 c223 0 211 -5 150 62 l-25 28 24 25 23 25 -186
0 -187 0 0 -70z"/>
<path d="M400 353 c1 -5 32 -42 70 -83 l69 -75 1 83 0 82 -70 0 c-38 0 -70 -3
-70 -7z"/>
<path d="M466 86 c-36 -41 -66 -77 -66 -80 0 -3 32 -6 70 -6 l70 0 0 80 c0 44
-2 80 -4 80 -2 0 -33 -33 -70 -74z"/>
<path d="M0 70 l0 -70 187 0 186 0 -23 25 -24 25 25 28 c61 67 73 62 -150 62
l-201 0 0 -70z"/>
</g>
</svg>
