<?xml version="1.0" standalone="no"?>
<!DOCTYPE svg PUBLIC "-//W3C//DTD SVG 20010904//EN"
 "http://www.w3.org/TR/2001/REC-SVG-20010904/DTD/svg10.dtd">
<svg version="1.0" xmlns="http://www.w3.org/2000/svg"
 width="54.000000pt" height="36.000000pt" viewBox="0 0 54.000000 36.000000"
 preserveAspectRatio="xMidYMid meet">

<g transform="translate(0.000000,36.000000) scale(0.100000,-0.100000)"
fill="#000000" stroke="none">
<path d="M0 278 l1 -83 69 75 c38 41 69 78 70 83 0 4 -31 7 -70 7 l-70 0 0
-82z"/>
<path d="M190 335 l24 -25 -25 -28 c-61 -67 -73 -62 150 -62 l201 0 0 70 0 70
-187 0 -186 0 23 -25z"/>
<path d="M0 83 l0 -83 70 0 c39 0 70 3 70 8 -1 4 -32 41 -70 82 l-69 75 -1
-82z"/>
<path d="M151 123 c7 -10 24 -30 38 -45 l25 -28 -24 -25 -23 -25 186 0 187 0
0 70 0 70 -201 0 c-190 0 -201 -1 -188 -17z"/>
</g>
</svg>
