<?xml version="1.0" encoding="UTF-8"?>
<svg width="18px" height="15px" viewBox="0 0 18 15" version="1.1" xmlns="http://www.w3.org/2000/svg" xmlns:xlink="http://www.w3.org/1999/xlink">
    <!-- Generator: sketchtool 40.1 (33804) - http://www.bohemiancoding.com/sketch -->
    <title>A2478CBA-DFAC-48C0-A6CB-017D7A4FA673</title>
    <desc>Created with sketchtool.</desc>
    <defs></defs>
    <g id="Page-1" stroke="none" stroke-width="1" fill="none" fill-rule="evenodd">
        <g id="01_TPi_Homepage" transform="translate(-1424.000000, -3442.000000)" fill="#1DA1F2">
            <g id="FOOTER" transform="translate(0.000000, 3333.000000)">
                <g id="Group-3" transform="translate(1370.000000, 47.000000)">
                    <g id="twitter-black.1-copy" transform="translate(54.000000, 62.000000)">
                        <path d="M18,1.77573113 C17.3386159,2.07692325 16.6265186,2.28060675 15.8795561,2.37161438 C16.6423665,1.90357537 17.2276807,1.16143013 17.5034336,0.277356375 C16.7892236,0.710725875 16.0000001,1.02600225 15.156894,1.19501625 C14.4849446,0.459371625 13.524564,0 12.4617011,0 C10.4236661,0 8.770206,1.695558 8.770206,3.7865655 C8.770206,4.08342375 8.80190175,4.37161425 8.86529325,4.64897063 C5.79609075,4.49079075 3.0755415,2.984832 1.25303737,0.691224375 C0.935023875,1.25243775 0.7533015,1.90357537 0.7533015,2.5969665 C0.7533015,3.91007588 1.40517713,5.06933925 2.39619638,5.74864575 C1.79186475,5.73022763 1.22134163,5.55796313 0.7226625,5.27627288 L0.7226625,5.32286025 C0.7226625,7.15818 1.995774,8.6890575 3.6862125,9.03575287 C3.37665075,9.12459375 3.05018475,9.169014 2.71315387,9.169014 C2.47543575,9.169014 2.24300063,9.14626237 2.01796088,9.10184175 C2.48811413,10.6056337 3.85103025,11.700975 5.467512,11.7302276 C4.203909,12.7464788 2.61067088,13.3521128 0.881140875,13.3521128 C0.583201125,13.3521128 0.288430875,13.334778 0,13.3001085 C1.63444275,14.3726977 3.57633375,15 5.66085563,15 C12.4543054,15 16.1679874,9.23076938 16.1679874,4.22643563 C16.1679874,4.06175512 16.1648179,3.89707463 16.1584785,3.73564462 C16.8800846,3.20151675 17.5066031,2.53521112 18,1.77573113" id="Twitter"></path>
                    </g>
                </g>
            </g>
        </g>
    </g>
</svg>