<?xml version="1.0" encoding="UTF-8"?>
<svg width="24px" height="17px" viewBox="0 0 24 17" version="1.1" xmlns="http://www.w3.org/2000/svg" xmlns:xlink="http://www.w3.org/1999/xlink">
    <!-- Generator: sketchtool 41.2 (35397) - http://www.bohemiancoding.com/sketch -->
    <title>49ADA326-7E06-4923-96FC-E489CD1F17A9</title>
    <desc>Created with sketchtool.</desc>
    <defs></defs>
    <g id="01-Home" stroke="none" stroke-width="1" fill="none" fill-rule="evenodd">
        <g id="01_TPi_Homepage" transform="translate(-395.000000, -3305.000000)" fill="#CE1312">
            <g id="KHÁCH-HÀNG" transform="translate(0.000000, 2757.000000)">
                <g id="Group-18-Copy-5" transform="translate(370.000000, 278.000000)">
                    <g id="Group-19" transform="translate(25.000000, 255.000000)">
                        <g id="youtube-color.1" transform="translate(0.000000, 15.000000)">
                            <g id="Youtube-color">
                                <g id="Icons">
                                    <g id="Color-">
                                        <path d="M9.522,11.634958 L9.52125,4.843871 L16.00575,8.251122 L9.522,11.634958 Z M23.76,3.6670815 C23.76,3.6670815 23.52525,2.0015995 22.806,1.268183 C21.89325,0.3051495 20.87025,0.3006175 20.4015,0.244724 C17.043,0 12.00525,0 12.00525,0 L11.99475,0 C11.99475,0 6.957,0 3.5985,0.244724 C3.129,0.3006175 2.10675,0.3051495 1.19325,1.268183 C0.474,2.0015995 0.24,3.6670815 0.24,3.6670815 C0.24,3.6670815 0,5.6233615 0,7.5788865 L0,9.412805 C0,11.369085 0.24,13.32461 0.24,13.32461 C0.24,13.32461 0.474,14.990092 1.19325,15.723508 C2.10675,16.686542 3.306,16.656329 3.84,16.756787 C5.76,16.9425955 12,17 12,17 C12,17 17.043,16.992447 20.4015,16.747723 C20.87025,16.691074 21.89325,16.686542 22.806,15.723508 C23.52525,14.990092 23.76,13.32461 23.76,13.32461 C23.76,13.32461 24,11.369085 24,9.412805 L24,7.5788865 C24,5.6233615 23.76,3.6670815 23.76,3.6670815 L23.76,3.6670815 Z" id="Youtube"></path>
                                    </g>
                                </g>
                            </g>
                        </g>
                    </g>
                </g>
            </g>
        </g>
    </g>
</svg>