<?xml version="1.0" encoding="UTF-8"?>
<svg width="18px" height="13px" viewBox="0 0 18 13" version="1.1" xmlns="http://www.w3.org/2000/svg" xmlns:xlink="http://www.w3.org/1999/xlink">
    <!-- Generator: sketchtool 40.1 (33804) - http://www.bohemiancoding.com/sketch -->
    <title>01DBDB7F-368D-4208-BE97-C6CDAE88F920</title>
    <desc>Created with sketchtool.</desc>
    <defs></defs>
    <g id="Page-1" stroke="none" stroke-width="1" fill="none" fill-rule="evenodd">
        <g id="01_TPi_Homepage" transform="translate(-1478.000000, -3443.000000)" fill="#E62217">
            <g id="FOOTER" transform="translate(0.000000, 3333.000000)">
                <g id="Group-3" transform="translate(1370.000000, 47.000000)">
                    <g id="youtube-black.1-copy" transform="translate(108.000000, 63.000000)">
                        <path d="M7.1415,8.89732082 L7.1409375,3.70413665 L12.0043125,6.30968153 L7.1415,8.89732082 L7.1415,8.89732082 Z M17.82,2.80423879 C17.82,2.80423879 17.6439375,1.53063491 17.1045,0.969787 C16.4199375,0.233349618 15.6526875,0.229883971 15.301125,0.187141882 C12.78225,0 9.0039375,0 9.0039375,0 L8.9960625,0 C8.9960625,0 5.21775,0 2.698875,0.187141882 C2.34675,0.229883971 1.5800625,0.233349618 0.8949375,0.969787 C0.3555,1.53063491 0.18,2.80423879 0.18,2.80423879 C0.18,2.80423879 0,4.30021762 0,5.79561909 L0,7.19802735 C0,8.69400618 0.18,10.1894076 0.18,10.1894076 C0.18,10.1894076 0.3555,11.4630115 0.8949375,12.0238591 C1.5800625,12.7602968 2.4795,12.7371928 2.88,12.8140136 C4.32,12.9561024 9,13 9,13 C9,13 12.78225,12.9942242 15.301125,12.8070823 C15.6526875,12.7637625 16.4199375,12.7602968 17.1045,12.0238591 C17.6439375,11.4630115 17.82,10.1894076 17.82,10.1894076 C17.82,10.1894076 18,8.69400618 18,7.19802735 L18,5.79561909 C18,4.30021762 17.82,2.80423879 17.82,2.80423879 L17.82,2.80423879 L17.82,2.80423879 Z" id="Youtube-Copy"></path>
                    </g>
                </g>
            </g>
        </g>
    </g>
</svg>