<svg xmlns="http://www.w3.org/2000/svg" width="165" height="260" viewBox="0 0 165 260">
    <path fill="#FFF" fill-rule="nonzero" d="M165 144.506C165 102.343 151.073 8.4 150.48 4.423a5.176 5.176 0 0 0-2.51-3.701 5.274 5.274 0 0 0-4.484-.398c-1.455.536-36.032 13.385-71.181 37.333-20.795 14.167-37.4 29.28-49.358 44.92C7.721 102.492 0 123.327 0 144.505c0 39.602 28.594 72.71 66.406 80.145 1.837 11.543 4.374 22.225 7.554 31.788.725 2.18 2.77 3.561 4.966 3.561a5.27 5.27 0 0 0 1.636-.262c2.744-.895 4.235-3.822 3.331-6.539-2.727-8.204-4.959-17.318-6.657-27.153 1.742.11 3.496.17 5.264.17 45.49 0 82.5-36.654 82.5-81.71zm-154.541 0c0-43.038 36.764-77.157 67.605-98.2 20.23-13.805 40.646-23.95 53.978-29.949-11.063 15.823-32.758 48.875-45.69 81.928-1.045 2.667.293 5.667 2.986 6.7.62.24 1.26.352 1.888.352 2.096 0 4.074-1.257 4.877-3.309 13.002-33.229 35.866-67.439 46.059-81.9 3.97 28.485 12.379 92.583 12.379 124.377 0 39.344-32.318 71.353-72.042 71.353-39.723 0-72.04-32.009-72.04-71.352zm73.68-19.904c-2.578-.546-5.066 1.325-5.559 4.175-.98 5.68-1.511 11.074-1.58 16.031-.04 2.9 2.056 5.288 4.68 5.332h.073c2.59.001 4.71-2.298 4.749-5.172.06-4.351.535-9.136 1.413-14.222.491-2.85-1.2-5.6-3.777-6.144z"/>
</svg>
