<svg width="132" height="24" viewBox="0 0 132 24" fill="none" xmlns="http://www.w3.org/2000/svg">
<path d="M27.7761 0H23.9768V7.57529H3.79923V0H0V10.1004H27.7761V0ZM3.79923 13.8996H24V21.4749H27.7992V11.3745H0V21.4749H3.79923V13.8996ZM6.32432 0H5.05019V6.32432H6.32432V0ZM29.0502 22.7259H24V24H30.3243V0H29.0502V22.7259ZM5.05019 22.7259H0V24H6.32432V16.4247H22.749V15.1506H5.05019V22.7259ZM35.3514 22.7259H31.5521V24H36.6023V18.9498H35.3282V22.7259H35.3514ZM58.0772 0H56.8031V17.6757H58.0772V0ZM50.5019 3.79923H42.9266V22.749H37.8764V24.0232H44.2008V5.05019H50.5019V3.79923ZM41.6757 2.5251H51.7761V21.4749H64.4016V7.57529H60.6023V18.9498H55.5521V0H37.8764V21.4749H41.6757V2.5251ZM65.6525 22.7259H50.5019V24H66.9266V7.57529H65.6525V22.7259ZM79.5521 3.79923H60.6023V5.07336H79.5521V3.79923ZM80.8263 7.57529H68.2008V21.4749H84.6255V0H60.6023V2.5251H80.8031V7.57529H80.8263ZM80.8263 18.9498H71.9768V10.1004H80.8263V18.9498ZM85.8765 22.7259H68.2008V24H87.1506V0H85.8765V22.7259ZM75.7761 12.6255H79.5753V11.3514H74.5251V17.6757H75.7992V12.6255H75.7761ZM92.1776 2.5251H99.7529V12.6255H108.602V2.5251H116.178V21.4749H119.977V0H104.826V10.1004H103.552V0H88.4016V21.4749H92.2008V2.5251H92.1776ZM93.4517 22.7259H88.4016V24H94.7259V5.05019H98.5251V3.77606H93.4749V22.7259H93.4517ZM109.853 13.8996H99.7529V15.1737H111.127V5.05019H114.903V3.77606H109.853V13.8996ZM121.228 22.7259H116.178V24H122.502V0H121.228V22.7259ZM34.1004 18.9498H31.5753V21.4749H34.1004V18.9498ZM128.27 4.00772C128.409 3.98456 128.525 3.89189 128.595 3.79923C128.664 3.6834 128.71 3.52124 128.71 3.28958V2.64093C128.71 2.3166 128.641 2.08494 128.479 1.92278C128.317 1.78378 128.085 1.69112 127.784 1.69112H126.278V5.90734H126.741V4.23938H127.784C127.946 4.23938 128.085 4.28571 128.178 4.40154C128.27 4.49421 128.317 4.6332 128.317 4.79537V5.9305H128.78V4.7722C128.78 4.56371 128.734 4.37838 128.641 4.23938C128.525 4.10039 128.409 4.03089 128.27 4.00772ZM128.178 3.66023C128.108 3.72973 127.992 3.77606 127.853 3.77606H126.764V2.15444H127.807C128.131 2.15444 128.293 2.33977 128.293 2.71042V3.31274C128.27 3.4749 128.247 3.59073 128.178 3.66023ZM131.027 2.3166C130.819 1.85328 130.541 1.45946 130.216 1.11197C129.869 0.764479 129.475 0.509653 129.012 0.301158C128.548 0.0926641 128.062 0 127.529 0C127.019 0 126.51 0.0926641 126.046 0.301158C125.583 0.509653 125.189 0.764479 124.842 1.11197C124.494 1.45946 124.216 1.85328 124.031 2.3166C123.822 2.77992 123.73 3.26641 123.73 3.79923C123.73 4.30888 123.822 4.81853 124.031 5.28185C124.239 5.74517 124.494 6.139 124.842 6.48649C125.189 6.83398 125.583 7.11197 126.046 7.2973C126.51 7.50579 126.996 7.59846 127.529 7.59846C128.062 7.59846 128.548 7.50579 129.012 7.2973C129.475 7.0888 129.869 6.83398 130.216 6.48649C130.564 6.139 130.842 5.74517 131.027 5.28185C131.236 4.81853 131.328 4.33205 131.328 3.79923C131.328 3.28958 131.236 2.77992 131.027 2.3166ZM130.448 5.02703C130.286 5.42085 130.054 5.74517 129.776 6.02317C129.498 6.30116 129.151 6.53282 128.78 6.69498C128.386 6.85714 127.992 6.94981 127.529 6.94981C127.089 6.94981 126.672 6.85714 126.301 6.69498C125.907 6.53282 125.583 6.30116 125.305 6.02317C125.027 5.74517 124.795 5.39768 124.633 5.02703C124.471 4.6332 124.378 4.23938 124.378 3.79923C124.378 3.35907 124.471 2.96525 124.633 2.59459C124.795 2.20077 125.027 1.87645 125.305 1.59846C125.583 1.32046 125.931 1.0888 126.301 0.926641C126.695 0.764479 127.112 0.671815 127.529 0.671815C127.969 0.671815 128.386 0.741313 128.78 0.926641C129.151 1.0888 129.498 1.32046 129.776 1.59846C130.054 1.87645 130.286 2.20077 130.448 2.59459C130.61 2.96525 130.703 3.38224 130.703 3.79923C130.68 4.23938 130.61 4.65637 130.448 5.02703Z" fill="#F15A25"/>
</svg>
