<svg xmlns="http://www.w3.org/2000/svg" width="338" height="259" viewBox="0 0 338 259">
    <g fill="#FFF" fill-rule="nonzero">
        <path d="M337.39 86.674c-.309-2.741-3.505-4.801-6.268-4.801-8.936 0-16.864-5.247-20.19-13.36-3.397-8.31-1.206-18.002 5.453-24.11a5.415 5.415 0 0 0 .593-7.353 96.481 96.481 0 0 0-15.447-15.599 5.426 5.426 0 0 0-7.41.599c-5.812 6.436-16.251 8.828-24.318 5.462-8.394-3.53-13.688-12.037-13.17-21.168a5.409 5.409 0 0 0-4.785-5.695 97.346 97.346 0 0 0-21.935-.058 5.426 5.426 0 0 0-4.828 5.579c.318 9.04-5.04 17.398-13.351 20.803-7.97 3.255-18.336.883-24.137-5.496a5.437 5.437 0 0 0-7.358-.619 96.845 96.845 0 0 0-15.773 15.595 5.424 5.424 0 0 0 .582 7.41c6.786 6.146 8.977 15.921 5.452 24.328-3.366 8.014-11.688 13.18-21.216 13.18-3.091-.1-5.293 1.975-5.632 4.785a97.669 97.669 0 0 0-.042 22.174c.307 2.752 3.6 4.794 6.394 4.794 8.49-.217 16.642 5.04 20.062 13.36 3.408 8.311 1.217 17.997-5.452 24.11a5.419 5.419 0 0 0-.593 7.348 96.831 96.831 0 0 0 15.425 15.604 5.422 5.422 0 0 0 7.42-.587c5.834-6.452 16.273-8.84 24.308-5.468 8.415 3.52 13.71 12.026 13.191 21.162a5.416 5.416 0 0 0 4.785 5.695 96.917 96.917 0 0 0 21.936.06 5.426 5.426 0 0 0 4.827-5.585c-.327-9.035 5.04-17.393 13.34-20.791 8.024-3.278 18.347-.879 24.148 5.493a5.448 5.448 0 0 0 7.358.616 97.07 97.07 0 0 0 15.774-15.595 5.413 5.413 0 0 0-.583-7.41c-6.786-6.145-8.988-15.923-5.462-24.323 3.314-7.908 11.327-13.217 19.946-13.217l1.206.03c2.795.228 5.367-1.925 5.706-4.779.86-7.332.87-14.789.044-22.173zm-96.735 43.554c-17.935 0-32.523-14.588-32.523-32.522 0-17.933 14.588-32.521 32.523-32.521 17.933 0 32.521 14.588 32.521 32.521 0 17.934-14.588 32.522-32.521 32.522zM97.693 204.56c-.155-1.378-1.76-2.414-3.15-2.414-4.49 0-8.475-2.636-10.146-6.714-1.707-4.176-.607-9.047 2.74-12.117a2.721 2.721 0 0 0 .298-3.695 48.488 48.488 0 0 0-7.763-7.84 2.727 2.727 0 0 0-3.724.301c-2.92 3.235-8.167 4.437-12.221 2.746-4.22-1.775-6.88-6.05-6.62-10.639a2.718 2.718 0 0 0-2.404-2.862 48.922 48.922 0 0 0-11.024-.029 2.727 2.727 0 0 0-2.426 2.804c.16 4.543-2.533 8.744-6.71 10.454-4.005 1.637-9.215.445-12.13-2.761a2.733 2.733 0 0 0-3.698-.311 48.671 48.671 0 0 0-7.927 7.837 2.726 2.726 0 0 0 .292 3.724c3.41 3.088 4.512 8.002 2.74 12.226-1.691 4.028-5.874 6.624-10.662 6.624-1.554-.05-2.66.993-2.83 2.405a49.085 49.085 0 0 0-.021 11.144c.154 1.383 1.809 2.41 3.213 2.41 4.267-.11 8.364 2.532 10.082 6.714 1.713 4.176.612 9.044-2.74 12.116a2.723 2.723 0 0 0-.298 3.693 48.664 48.664 0 0 0 7.752 7.842 2.725 2.725 0 0 0 3.73-.295c2.932-3.243 8.178-4.443 12.216-2.748 4.23 1.77 6.89 6.044 6.63 10.635a2.722 2.722 0 0 0 2.404 2.863 48.707 48.707 0 0 0 11.024.03 2.727 2.727 0 0 0 2.426-2.807c-.164-4.541 2.533-8.741 6.704-10.45 4.033-1.646 9.22-.44 12.136 2.762a2.738 2.738 0 0 0 3.698.309 48.784 48.784 0 0 0 7.927-7.838 2.72 2.72 0 0 0-.292-3.724c-3.41-3.088-4.518-8.002-2.746-12.223 1.666-3.975 5.693-6.643 10.025-6.643l.606.016c1.405.114 2.697-.968 2.867-2.402.432-3.685.437-7.433.022-11.144zm-48.615 21.888c-9.013 0-16.345-7.331-16.345-16.344 0-9.013 7.332-16.345 16.345-16.345 9.013 0 16.344 7.332 16.344 16.345 0 9.013-7.331 16.344-16.344 16.344z"/>
    </g>
</svg>
