<svg xmlns="http://www.w3.org/2000/svg" width="24" height="31" viewBox="0 0 24 31">
    <path fill="#35612E" fill-rule="nonzero" d="M4 11.625c0 3.875 4 7.69 4 11.625h8c0-3.814 4-7.75 4-11.625 0-4.28-3.582-7.75-8-7.75s-8 3.47-8 7.75zm5 15.5h6c.553 0 1 .433 1 .969 0 .535-.447.968-1 .968h-.184A2.983 2.983 0 0 1 12 31a2.983 2.983 0 0 1-2.816-1.938H9c-.553 0-1-.433-1-.968 0-.536.447-.969 1-.969zm0-2.906h6c.553 0 1 .433 1 .968 0 .536-.447.97-1 .97H9c-.553 0-1-.434-1-.97 0-.535.447-.968 1-.968zM22.893 6.653l-1.795 1.002a9.577 9.577 0 0 0-1.006-1.674l1.8-1.009 1 1.68zM11 2.036V0h2v2.036c-.334-.034-.656-.099-1-.099s-.666.065-1 .099zm5.098.776l1.035-1.74 1.734.97-1.04 1.744a10.031 10.031 0 0 0-1.73-.974zm-14.99 3.84l1-1.68 1.8 1.009c-.39.524-.73 1.08-1.008 1.674L1.107 6.653zm4.027-4.61l1.73-.97L7.9 2.813c-.61.268-1.187.596-1.726.972l-1.04-1.742zM22 11.625c0-.333-.066-.645-.102-.969H24v1.938h-2.106c.04-.322.106-.64.106-.969zm-19.898-.969c-.036.324-.102.636-.102.969 0 .33.066.647.105.969H0v-1.938h2.102zm1.642 6.704l-1.637.916-1-1.679 1.817-1.014c.252.602.525 1.192.82 1.777zm19.149-.763l-1 1.679-1.624-.907c.294-.586.567-1.18.815-1.782l1.809 1.01z"/>
</svg>
