<svg xmlns="http://www.w3.org/2000/svg" width="41" height="79" viewBox="0 0 41 79">
    <path fill="#B8D432" fill-rule="evenodd" d="M17.467 60c0-3.327.3-6.281.899-8.862.599-2.582 1.348-4.953 2.246-7.113a64.782 64.782 0 0 1 2.893-6.08 102.506 102.506 0 0 0 2.892-5.737 39.985 39.985 0 0 0 2.247-6.109c.599-2.141.898-4.55.898-7.227 0-2.486-.3-4.646-.898-6.482-.6-1.836-1.442-3.365-2.528-4.589a10.407 10.407 0 0 0-3.847-2.753c-1.479-.612-3.08-.918-4.802-.918-1.535 0-2.949.182-4.24.545-1.292.363-2.406.88-3.342 1.549-.936.669-1.666 1.453-2.19 2.352a5.653 5.653 0 0 0-.787 2.896c0 1.11.187 2.008.562 2.696.374.689.777 1.32 1.207 1.893.431.574.834 1.157 1.208 1.75.374.592.562 1.348.562 2.265 0 1.607-.431 2.878-1.292 3.815-.861.937-1.91 1.405-3.145 1.405-.862 0-1.657-.2-2.387-.602a5.695 5.695 0 0 1-1.882-1.692c-.524-.727-.945-1.597-1.264-2.61C.16 19.379 0 18.279 0 17.094c0-3.098.618-5.727 1.853-7.887C3.09 7.046 4.671 5.287 6.6 3.929c1.929-1.357 4.082-2.352 6.46-2.983C15.435.316 17.766 0 20.05 0c3.033 0 5.831.411 8.396 1.233 2.565.822 4.774 2.008 6.628 3.557 1.853 1.548 3.304 3.441 4.352 5.678C40.476 12.706 41 15.22 41 18.011c0 2.754-.515 5.306-1.545 7.658a36.974 36.974 0 0 1-3.875 6.769 87.174 87.174 0 0 1-5.055 6.367 83.666 83.666 0 0 0-5.054 6.396 36.272 36.272 0 0 0-3.876 6.912c-1.03 2.428-1.544 5.057-1.544 7.887h-2.584zm1.588 6a5.23 5.23 0 0 1 2.312.534 6.098 6.098 0 0 1 1.9 1.425 6.833 6.833 0 0 1 1.265 2.078c.312.791.468 1.622.468 2.493a6.67 6.67 0 0 1-.468 2.523 6.93 6.93 0 0 1-1.266 2.047 5.725 5.725 0 0 1-1.899 1.395 5.486 5.486 0 0 1-2.312.505 5.613 5.613 0 0 1-2.367-.505 6.028 6.028 0 0 1-1.927-1.395 6.646 6.646 0 0 1-1.293-2.047A6.67 6.67 0 0 1 13 72.53c0-.87.156-1.702.468-2.493a6.559 6.559 0 0 1 1.293-2.078 6.435 6.435 0 0 1 1.927-1.425A5.35 5.35 0 0 1 19.055 66z"/>
</svg>
