<svg xmlns="http://www.w3.org/2000/svg" width="1440" height="462" viewBox="0 0 1440 462">
    <g fill="#DEDEDE" fill-rule="evenodd">
        <path d="M1545.288 403.255s-129.777 13.846-221.522-30.064-288.812-216.72-390.12-184.207c-101.309 32.513-207.244 249.452-344.75 173.029C451.389 285.59 393.913 88.639 323.43 88.639S140.783 431.195 18.766 443.994c-122.017 12.8-182.21 17.562-182.21 17.562l15.548 38.168h1692.93l.254-96.469z" opacity=".174"/>
        <path fill-opacity=".301" d="M1971.432 451.408s-233.935 9.897-321.508-131.596C1562.35 178.32 1497.572-86.323 1418.996 20.434c-78.577 106.757-250.385 371.753-437.088 319.135-186.703-52.618-197.5-197.658-345.829-139.2C487.75 258.824 320.663 474.1 8.392 445.218c-312.272-28.88 66.943 50.766 66.943 50.766l1896.097 5.079v-49.656z"/>
    </g>
</svg>
