<svg xmlns="http://www.w3.org/2000/svg" width="60" height="70" viewBox="0 0 60 70">
    <path fill="#B8D432" fill-rule="nonzero" d="M59.218.181a.26.26 0 0 1 0 .16 56.472 56.472 0 0 1-3.25 9.66 27.72 27.72 0 0 1-4.253 6.868 14.748 14.748 0 0 1-2.993 2.657 9.714 9.714 0 0 1-3.21 1.393 8.089 8.089 0 0 1-2.889.111 8.701 8.701 0 0 1-2.816-.923 10.119 10.119 0 0 1-1.068-.644c-.35-.246-.684-.512-1.003-.796a.269.269 0 0 1 0-.374h.04a19.456 19.456 0 0 1 3.026-1.798c1.027-.502 2.054-.923 3.081-1.345a39.102 39.102 0 0 0 4.574-2.117 15.136 15.136 0 0 0 4.06-3.294 1.155 1.155 0 0 0-.124-1.545 1.178 1.178 0 0 0-1.657.04c-2.134 2.46-4.895 3.597-7.752 4.775-1.155.478-2.319.955-3.458 1.512-.952.466-1.869.998-2.745 1.592-2.279 1.878-4.277 4.6-5.569 9.167a22.49 22.49 0 0 1 8.386 2.22c-2.207 6.923 1.027 8.897 5.409 11.57 2.279 1.393 4.927 3.008 7.03 5.897.902 7.86-2.456 15.605-8.828 20.364-1.838.246-4.646-.55-7.342-1.345-3.644-1.082-7.158-2.117-9.26-.59a5.782 5.782 0 0 0-2.6 5.707c-3.17-.82-6.12-2.32-8.643-4.393a4.387 4.387 0 0 0 4.1-2.913c.843-1.957.747-4.551.658-6.787-.087-.984-.07-1.973.048-2.953a9.862 9.862 0 0 1 2.295-3.979c1.268-1.535 2.408-2.928 2.368-5.252-.089-3.119-2.11-4.814-4.43-6.652-1.854-1.576-3.868-3.318-4.67-6.128a22.472 22.472 0 0 1 11.01-4.56 15.652 15.652 0 0 0-4.23-5.57 22.512 22.512 0 0 0-2.744-1.591c-1.14-.557-2.303-1.035-3.458-1.512-2.857-1.178-5.634-2.316-7.752-4.775A1.179 1.179 0 0 0 7 11.914a1.155 1.155 0 0 0-.224 1.628 15.125 15.125 0 0 0 4.06 3.295 39.102 39.102 0 0 0 4.575 2.117c1.019.421 2.054.843 3.081 1.344a19.513 19.513 0 0 1 3.026 1.799h.04c.1.104.1.27 0 .374-.319.284-.654.55-1.003.796-.342.239-.699.457-1.068.652a8.717 8.717 0 0 1-2.816.923 8.089 8.089 0 0 1-2.89-.111 9.714 9.714 0 0 1-3.21-1.393 14.751 14.751 0 0 1-3-2.658 27.726 27.726 0 0 1-4.245-6.867A56.474 56.474 0 0 1 .012 4.136a.26.26 0 0 1 0-.159.273.273 0 0 1 .338-.167 31.523 31.523 0 0 0 5.617 1.273 20.09 20.09 0 0 0 6.82-.183c1.71-.402 3.47-.552 5.225-.445a9.999 9.999 0 0 1 4.165 1.177 7.183 7.183 0 0 1 2.375 2.109c.314.422.583.876.802 1.353.216.49.382.998.498 1.52a10.416 10.416 0 0 1 0 4.17 13.404 13.404 0 0 1-1.02 3.183 17.278 17.278 0 0 1 4.013 4.957 18.796 18.796 0 0 1 5.617-8.681 13.382 13.382 0 0 1-1.059-3.2 10.416 10.416 0 0 1 0-4.17c.116-.52.282-1.03.498-1.52.219-.476.488-.93.802-1.352a7.183 7.183 0 0 1 2.375-2.109A10.005 10.005 0 0 1 41.243.715c1.741-.12 3.49.015 5.192.397 2.246.45 4.554.512 6.821.184A31.526 31.526 0 0 0 58.873.014a.273.273 0 0 1 .345.167zm-37.68 42.903c.023 1.284-.78 2.29-1.679 3.4a12.198 12.198 0 0 0-2.771 5.055 15.286 15.286 0 0 0-.125 3.708c.07 1.942.156 4.176-.422 5.547-.491 1.165-1.795 1.648-4.879.373-6.55-8.711-5.853-20.97 1.64-28.86 1.085 2.806 3.138 4.597 4.988 6.181 1.687 1.482 3.248 2.805 3.248 4.596zm13.82 23.74c1.396.408 2.783.817 4.13 1.11A23.276 23.276 0 0 1 29.832 70c-.889 0-1.777-.048-2.66-.147a3.382 3.382 0 0 1 1.248-4.082c.974-.702 3.881.155 6.937 1.053zm7.098-38.106a23.054 23.054 0 0 1 8.698 10.77 39.33 39.33 0 0 0-4.25-2.884c-3.171-1.94-5.56-3.406-4.448-7.886z"/>
</svg>
