<svg xmlns="http://www.w3.org/2000/svg" width="30" height="23" viewBox="0 0 30 23">
    <path fill="#454545" fill-rule="nonzero" d="M29.464 0H.536A.542.542 0 0 0 0 .548v21.904c0 .303.24.548.536.548h28.928a.542.542 0 0 0 .536-.548V.548A.542.542 0 0 0 29.464 0zM9.5 13.516l-7.5 8.215a.529.529 0 0 1-.517.17.54.54 0 0 1-.397-.379.556.556 0 0 1 .13-.538l7.5-8.215a.529.529 0 0 1 .517-.17.54.54 0 0 1 .397.379.556.556 0 0 1-.13.538zm19.26 8.241a.528.528 0 0 1-.758-.026l-7.5-8.215a.556.556 0 0 1-.13-.538.54.54 0 0 1 .397-.379.529.529 0 0 1 .516.17l7.5 8.215a.556.556 0 0 1-.026.773zm-.022-19.695L16.378 12.675a2.11 2.11 0 0 1-1.378.514 2.11 2.11 0 0 1-1.378-.514L1.262 2.062a.554.554 0 0 1 .162-.934.527.527 0 0 1 .528.095L14.31 11.836c.398.343.98.343 1.379 0L28.048 1.223a.528.528 0 0 1 .755.068c.19.231.16.577-.066.771z"/>
</svg>
