<svg xmlns="http://www.w3.org/2000/svg" width="47" height="47" viewBox="0 0 47 47">
    <path fill="#B8D432" fill-rule="nonzero" d="M44.06 19.51a.7.7 0 0 0-1.283.556l2.211 5.061c1.981 4.533-1.018 9.8-6.057 10.161v-7.884l2.794-2.108a.694.694 0 0 0 .135-.976.7.7 0 0 0-.98-.134l-1.949 1.471v-5.723a.698.698 0 0 0-.699-.696.698.698 0 0 0-.699.696v9.693c-1.793-2.215-2.688-3.332-2.997-3.689a11.029 11.029 0 0 0-.543-6.571v-.001l3.215-7.36c.387-.89 1.657-.9 2.048 0l2.405 5.506a.7.7 0 0 0 1.283-.555l-2.405-5.507c-.876-2.005-3.734-2.011-4.613 0l-2.693 6.165-3.25-7.442a.7.7 0 0 0-1.283.556l.002.006.001.002.005.01-.004-.009.005.013.002.004.001.002.002.004 3.873 8.867a9.745 9.745 0 0 1-1.503 10.231v.001a9.511 9.511 0 0 1-6.802 3.326v-10.61l3.727-2.812a.694.694 0 0 0 .135-.976.7.7 0 0 0-.98-.134l-2.882 2.176v-7.89a.698.698 0 0 0-.7-.696.698.698 0 0 0-.698.697v13.247l-3.901-4.904A.7.7 0 0 0 18 21.17a.695.695 0 0 0-.114.979c2.992 3.745 4.428 5.563 4.997 6.27v4.768a9.665 9.665 0 0 1-2.169-.354.696.696 0 0 0-.384 1.339c.823.234 1.681.371 2.553.408v11.724c0 .384.313.696.699.696a.698.698 0 0 0 .698-.696V34.579a10.806 10.806 0 0 0 6.277-2.315c1.388 2.5 3.935 4.236 6.975 4.419v9.62c0 .385.313.697.699.697a.698.698 0 0 0 .699-.697v-9.62c4.637-.278 8.069-4.179 8.069-8.64 0-2.816-1.217-4.23-2.94-8.533zm-6.527 15.778a7.15 7.15 0 0 1-5.915-3.978 11.213 11.213 0 0 0 2.445-3.804c1.863 2.338 2.987 3.76 3.47 4.368v3.414zM29.205 7.514a.694.694 0 0 1-.367.919.711.711 0 0 1-.932-.361l-2.502-5.673c-.593-1.341-2.51-1.34-3.102 0-8.128 18.422-7.889 17.679-8.181 19.025-.887 4.06.987 8.203 4.429 10.32.603.371.334 1.291-.376 1.291a.709.709 0 0 1-.373-.106 10.917 10.917 0 0 1-1.109-.78 8.762 8.762 0 0 1-2.146 2.59.716.716 0 0 1-.997-.094.69.69 0 0 1 .095-.983 7.365 7.365 0 0 0 1.97-2.498c-2.724-2.835-3.005-6.105-3.011-6.123-.127.209-.052.079-3.01 2.311v7.904c.293-.039.92-.059 1.816-.36a.71.71 0 0 1 .899.435.696.696 0 0 1-.442.886c-1.17.395-2.071.414-2.272.44v9.645a.703.703 0 0 1-.708.698.703.703 0 0 1-.708-.698v-9.646C2.174 36.3-1.704 30.054.744 24.512L6.55 11.355c.886-2.011 3.782-2.016 4.672 0l2.792 6.327 6.99-15.84c1.083-2.455 4.614-2.458 5.698 0l2.503 5.672zm-16.692 16.69a10.9 10.9 0 0 1 .735-4.758l-3.325-7.533c-.395-.899-1.68-.897-2.075 0L2.042 25.069C.028 29.632 3.09 34.896 8.178 35.257V31.8c-.121-.095.103.147-3.846-4.757a.692.692 0 0 1 .115-.98.715.715 0 0 1 .995.113l2.736 3.405v-9.72c0-.385.317-.697.708-.697.39 0 .708.312.708.698V25.6l1.975-1.476a.715.715 0 0 1 .944.08z"/>
</svg>
