<svg xmlns="http://www.w3.org/2000/svg" width="142" height="45" viewBox="0 0 142 45">
    <g fill="none" fill-rule="evenodd">
        <path fill="#FFF" d="M7.244 2.557v13.606c0 2.344 1.155 3.625 3.265 3.625 2.11 0 3.264-1.28 3.264-3.625V2.557h6.529v14.33c0 5.076-3.927 8.315-9.793 8.315-5.867 0-9.793-3.24-9.793-8.314V2.557h6.528zm17.35 0h10.147c4.943 0 8.269 3.162 8.269 8.114 0 4.905-3.526 8.068-8.715 8.068h-3.172v6.077h-6.529V2.557zm6.529 4.92v6.433h1.832c2.171 0 3.465-1.095 3.465-3.224 0-2.113-1.294-3.208-3.419-3.208h-1.878zm30.653 12.14v5.2H46.533V2.556h6.528v17.06h8.715zm10.206 5.2h-6.529V2.556h6.529v22.26zm10.82 0h-6.528V2.556h15.614v5.199h-9.085v4.272h8.222v4.906h-8.222v7.882zm24.141 0h-6.528V7.755h-5.852V2.557h18.231v5.199h-5.85v17.06zM2.503 44.121H.587V31.756h1.916v12.366zm7.443 0H8.08V31.756h1.736l6.4 9.118h.068v-9.118h1.864v12.366h-1.728l-6.398-9.11h-.077v9.11zm19.367 0h-2.095l-4.406-12.366h2.079l3.362 10.207h.05l3.371-10.207h2.045l-4.406 12.366zm16.904-1.662v1.662h-7.836V31.756h7.836v1.654h-5.92v3.617h5.604v1.594h-5.603v3.839h5.92zm4.723-1.783h1.89c.137 1.226 1.326 2.031 2.951 2.031 1.557 0 2.678-.805 2.678-1.91 0-.96-.676-1.535-2.276-1.929l-1.6-.386c-2.266-.548-3.318-1.61-3.318-3.333 0-2.134 1.856-3.6 4.49-3.6 2.61 0 4.398 1.466 4.458 3.6h-1.865c-.111-1.234-1.13-1.98-2.618-1.98s-2.506.754-2.506 1.851c0 .874.65 1.389 2.24 1.783l1.361.334c2.532.6 3.584 1.62 3.584 3.428 0 2.314-1.839 3.762-4.764 3.762-2.738 0-4.586-1.414-4.705-3.65zm19.47 3.445h-1.916V33.41h-3.781v-1.654h9.47v1.654H70.41v10.712zm10.548 0h-1.916V31.756h1.916v12.366zm7.443 0h-1.865V31.756h1.736l6.399 9.118h.068v-9.118h1.865v12.366h-1.728l-6.398-9.11H88.4v9.11zm24.414-5.141c0 3.35-1.976 5.347-5.32 5.347-3.534 0-5.758-2.477-5.758-6.444 0-3.9 2.216-6.333 5.732-6.333 2.746 0 4.824 1.628 5.252 4.096h-1.967c-.462-1.534-1.669-2.417-3.277-2.417-2.36 0-3.78 1.731-3.78 4.636 0 2.957 1.462 4.782 3.814 4.782 2.002 0 3.388-1.285 3.414-3.162v-.214h-3.191V37.72h5.081v1.26z"/>
        <path fill="#B8D432" fill-rule="nonzero" d="M117.11 15.764c5.393-8.174 16.005-2.106 21.314-15.636 0 0 7.638 14.508-.128 26.285-7.767 11.777-16.821 6.207-17.863 5.521a2.994 2.994 0 0 1-.27-.206c7.134-4.478 12.666-12.825 12.666-12.825-3.207 4.046-11.243 7.409-15.765 9.06-1.814-3.036-3.073-7.467.047-12.199z"/>
    </g>
</svg>
