<svg xmlns="http://www.w3.org/2000/svg" width="33" height="33" viewBox="0 0 33 33">
    <path fill="#DFDFDF" fill-rule="nonzero" d="M32.897 14.668c-.052-.464-.593-.813-1.061-.813-1.512 0-2.854-.887-3.417-2.26a3.675 3.675 0 0 1 .923-4.08.916.916 0 0 0 .1-1.245 16.328 16.328 0 0 0-2.614-2.64.918.918 0 0 0-1.254.102c-.983 1.089-2.75 1.494-4.115.924a3.665 3.665 0 0 1-2.229-3.582.915.915 0 0 0-.81-.964A16.474 16.474 0 0 0 14.708.1a.918.918 0 0 0-.817.944 3.671 3.671 0 0 1-2.26 3.52c-1.348.552-3.102.15-4.084-.93a.92.92 0 0 0-1.245-.104 16.39 16.39 0 0 0-2.67 2.639.918.918 0 0 0 .1 1.254 3.656 3.656 0 0 1 .922 4.117c-.57 1.356-1.978 2.23-3.59 2.23a.897.897 0 0 0-.954.81 16.529 16.529 0 0 0-.007 3.753c.052.466.61.811 1.082.811 1.437-.037 2.817.853 3.395 2.261a3.669 3.669 0 0 1-.922 4.08.917.917 0 0 0-.1 1.244 16.387 16.387 0 0 0 2.61 2.64.918.918 0 0 0 1.256-.1c.987-1.091 2.753-1.495 4.113-.924a3.66 3.66 0 0 1 2.232 3.58.916.916 0 0 0 .81.965 16.401 16.401 0 0 0 3.712.01.918.918 0 0 0 .817-.945 3.667 3.667 0 0 1 2.258-3.519c1.358-.554 3.105-.149 4.086.93a.922.922 0 0 0 1.246.104 16.427 16.427 0 0 0 2.67-2.64.916.916 0 0 0-.1-1.253 3.656 3.656 0 0 1-.924-4.116 3.694 3.694 0 0 1 3.376-2.237l.204.005c.473.039.908-.326.965-.809.146-1.24.147-2.502.008-3.752zm-16.37 7.37a5.51 5.51 0 0 1-5.505-5.503 5.51 5.51 0 0 1 5.504-5.504 5.51 5.51 0 0 1 5.504 5.504 5.51 5.51 0 0 1-5.504 5.504z"/>
</svg>
