<?xml version="1.0" encoding="UTF-8"?>
<svg width="40px" height="40px" viewBox="0 0 40 40" version="1.1" xmlns="http://www.w3.org/2000/svg" xmlns:xlink="http://www.w3.org/1999/xlink">
    <!-- Generator: sketchtool 41.2 (35397) - http://www.bohemiancoding.com/sketch -->
    <title>D7E038C7-6AAD-4726-8CC8-28906A4E0C2B</title>
    <desc>Created with sketchtool.</desc>
    <defs></defs>
    <g id="02-News" stroke="none" stroke-width="1" fill="none" fill-rule="evenodd">
        <g id="02_TPi_News-Details" transform="translate(-247.000000, -849.000000)">
            <g id="Group-8" transform="translate(247.000000, 729.000000)">
                <g id="linkedin-copy" transform="translate(0.000000, 120.000000)">
                    <g id="Capa_1">
                        <g id="Group">
                            <ellipse id="Oval" fill="#0C84BE" cx="19.8576991" cy="20.0340351" rx="19.8576991" ry="19.6835088"></ellipse>
                            <path d="M31,21.6479505 L31,29 L26.7124129,29 L26.7124129,22.1406726 C26.7124129,20.4183704 26.0933683,19.2421951 24.5409605,19.2421951 C23.3562704,19.2421951 22.6524909,20.0340472 22.3416896,20.8007863 C22.2288163,21.0748034 22.1997186,21.455312 22.1997186,21.8396353 L22.1997186,28.9996821 L17.9118117,28.9996821 C17.9118117,28.9996821 17.9693675,17.3822486 17.9118117,16.1796888 L22.2000384,16.1796888 L22.2000384,17.9964029 C22.191405,18.0107077 22.1792543,18.0246947 22.1715802,18.0383637 L22.2000384,18.0383637 L22.2000384,17.9964029 C22.7698408,17.1247616 23.7860203,15.8786515 26.0642706,15.8786515 C28.8851442,15.8786515 31,17.7109419 31,21.6479505 L31,21.6479505 L31,21.6479505 Z M13.4262966,10 C11.959583,10 11,10.9571524 11,12.2147064 C11,13.445558 11.9317644,14.4303664 13.3700198,14.4303664 L13.3978385,14.4303664 C14.8933299,14.4303664 15.8231758,13.445558 15.8231758,12.2147064 C15.7947177,10.9571524 14.8933299,10 13.4262966,10 L13.4262966,10 L13.4262966,10 Z M11.2548443,29 L15.5411524,29 L15.5411524,16.1796888 L11.2548443,16.1796888 L11.2548443,29 L11.2548443,29 Z" id="Shape" fill="#F1F2F2"></path>
                        </g>
                    </g>
                </g>
            </g>
        </g>
    </g>
</svg>