<?xml version="1.0" encoding="UTF-8"?>
<svg width="40px" height="40px" viewBox="0 0 40 40" version="1.1" xmlns="http://www.w3.org/2000/svg" xmlns:xlink="http://www.w3.org/1999/xlink">
    <!-- Generator: sketchtool 41.2 (35397) - http://www.bohemiancoding.com/sketch -->
    <title>039C806F-CE0B-4B61-983E-F6B40F9BA7F1</title>
    <desc>Created with sketchtool.</desc>
    <defs></defs>
    <g id="02-News" stroke="none" stroke-width="1" fill="none" fill-rule="evenodd">
        <g id="02_TPi_News-Details" transform="translate(-247.000000, -789.000000)">
            <g id="Group-8" transform="translate(247.000000, 729.000000)">
                <g id="twitter-copy" transform="translate(0.000000, 60.000000)">
                    <g id="Capa_1">
                        <g id="Group">
                            <circle id="Oval" fill="#3CA9FB" cx="19.8580531" cy="19.8576991" r="19.8576991"></circle>
                            <path d="M30,14.8941542 C29.2643594,15.2152688 28.4730255,15.4324579 27.6431347,15.529455 C28.4904679,15.0297091 29.1407326,14.238972 29.4476575,13.2952085 C28.6547936,13.7582039 27.7762477,14.0940789 26.8420086,14.27512 C26.0935157,13.4904076 25.0270816,13 23.8462009,13 C21.5805257,13 19.7429542,14.8089052 19.7429542,17.0392356 C19.7429542,17.3558317 19.779369,17.6639932 19.8497506,17.9598042 C16.4396095,17.7914149 13.4159552,16.1834322 11.3920255,13.738925 C11.0388935,14.3353667 10.8363169,15.0297091 10.8363169,15.769839 C10.8363169,17.1708745 11.5612473,18.4077379 12.6616482,19.1319025 C11.989351,19.1111174 11.3562227,18.9294738 10.8032682,18.626132 C10.8029621,18.6433023 10.8029621,18.6604726 10.8029621,18.6773416 C10.8029621,20.6344535 12.2179381,22.2668361 14.0946785,22.6376541 C13.7507268,22.730434 13.3874966,22.779535 13.0138621,22.779535 C12.7488601,22.779535 12.4921203,22.7545326 12.2418067,22.7075402 C12.7638545,24.3119081 14.2788947,25.4797891 16.0748493,25.5126236 C14.6702775,26.5961593 12.9012516,27.241702 10.9783041,27.241702 C10.6478166,27.241702 10.3203892,27.2227243 10,27.1850701 C11.814927,28.3315636 13.9722758,29 16.2893601,29 C23.8367147,29 27.964136,22.8452038 27.964136,17.5070507 C27.964136,17.3320343 27.9601579,17.1576203 27.9522017,16.9847124 C28.7545519,16.4153817 29.4501056,15.7041702 30,14.8941542 L30,14.8941542 L30,14.8941542 Z" id="Shape" fill="#F1F2F2"></path>
                        </g>
                    </g>
                </g>
            </g>
        </g>
    </g>
</svg>