<svg width="16" height="12" viewBox="0 0 16 12" fill="none" xmlns="http://www.w3.org/2000/svg">
<path d="M2.66667 0.666664C1.93133 0.666664 1.33333 1.26466 1.33333 2V8.66666C1.33333 9.402 1.93133 10 2.66667 10H0.666667C0.298667 10 0 10.2987 0 10.6667C0 11.0347 0.298667 11.3333 0.666667 11.3333H15.3333C15.7013 11.3333 16 11.0347 16 10.6667C16 10.2987 15.7013 10 15.3333 10H13.3333C14.0687 10 14.6667 9.402 14.6667 8.66666V2C14.6667 1.26466 14.0687 0.666664 13.3333 0.666664H2.66667ZM2.66667 2H13.3333L13.3346 8.66666H2.66667V2Z" fill="#F15A25"/>
</svg>
