<svg width="10" height="15" viewBox="0 0 10 15" fill="none" xmlns="http://www.w3.org/2000/svg">
<path d="M7.66667 0H1.66667C0.746667 0 0 0.746667 0 1.66667V13C0 13.92 0.746667 14.6667 1.66667 14.6667H7.66667C8.58667 14.6667 9.33333 13.92 9.33333 13V1.66667C9.33333 0.746667 8.58667 0 7.66667 0ZM4.66667 13.4167C4.252 13.4167 3.91667 13.0813 3.91667 12.6667C3.91667 12.252 4.252 11.9167 4.66667 11.9167C5.08133 11.9167 5.41667 12.252 5.41667 12.6667C5.41667 13.0813 5.08133 13.4167 4.66667 13.4167ZM7.33333 11.3333H2C1.632 11.3333 1.33333 11.0347 1.33333 10.6667V2.66667C1.33333 2.29867 1.632 2 2 2H7.33333C7.70133 2 8 2.29867 8 2.66667V10.6667C8 11.0347 7.70133 11.3333 7.33333 11.3333Z" fill="#F15A25"/>
</svg>
