<svg width="13" height="16" viewBox="0 0 13 16" fill="none" xmlns="http://www.w3.org/2000/svg">
<path d="M2.00004 0.666664C1.07937 0.666664 0.333374 1.41266 0.333374 2.33333V13.6667C0.333374 14.5873 1.07937 15.3333 2.00004 15.3333H8.00004C8.92071 15.3333 9.66671 14.5873 9.66671 13.6667V12.3333C9.66671 12.1493 9.51737 12 9.33337 12H1.66671V2.66666H9.33337C9.51737 2.66666 9.66671 2.51733 9.66671 2.33333C9.66671 1.41266 8.92071 0.666664 8.00004 0.666664H2.00004ZM5.00004 12.5833C5.41471 12.5833 5.75004 12.9187 5.75004 13.3333C5.75004 13.748 5.41471 14.0833 5.00004 14.0833C4.58537 14.0833 4.25004 13.748 4.25004 13.3333C4.25004 12.9187 4.58537 12.5833 5.00004 12.5833Z" fill="#F15A25"/>
<path d="M9.00004 3.33333C6.80004 3.33333 5.00004 5.13333 5.00004 7.33333C5.00004 9.53333 6.80004 11.3333 9.00004 11.3333C11.2 11.3333 13 9.53333 13 7.33333C13 5.13333 11.2 3.33333 9.00004 3.33333ZM9.00004 4.66666C10.4667 4.66666 11.6667 5.86666 11.6667 7.33333C11.6667 8.8 10.4667 10 9.00004 10C7.53337 10 6.33337 8.8 6.33337 7.33333C6.33337 5.86666 7.53337 4.66666 9.00004 4.66666ZM9.79431 5.59114C9.61381 5.56889 9.42857 5.65411 9.33207 5.82161L8.5964 7.10026C8.48973 7.28559 8.52249 7.5193 8.67582 7.66797L9.57817 8.54297C9.66883 8.63097 9.78505 8.67578 9.90238 8.67578C10.0244 8.67578 10.1457 8.62722 10.237 8.53255C10.4164 8.34722 10.4126 8.05173 10.2279 7.87239L9.58598 7.2513L10.1407 6.28776C10.2693 6.06442 10.1921 5.77971 9.96879 5.65104C9.91296 5.61887 9.85448 5.59856 9.79431 5.59114Z" fill="#F15A25"/>
</svg>
