<svg width="16" height="15" viewBox="0 0 16 15" fill="none" xmlns="http://www.w3.org/2000/svg">
<path d="M6.66663 0.666664C5.56196 0.666664 4.66663 1.562 4.66663 2.66666C4.66663 3.18133 4.86682 3.64533 5.18616 4H8.14709C8.46643 3.64533 8.66663 3.18133 8.66663 2.66666C8.66663 1.562 7.77129 0.666664 6.66663 0.666664ZM12.8333 4.38541C12.7489 4.38262 12.662 4.40299 12.5807 4.45182L11.375 5.17578C10.8641 4.8593 10.2886 4.59219 9.64709 4.39453L9.48564 4.8776C9.39497 5.1496 9.14016 5.33333 8.85282 5.33333H4.48043C4.19309 5.33333 3.93828 5.15027 3.84762 4.8776L3.79553 4.72005C2.65275 5.32103 1.8759 6.2592 1.53381 7.36458C1.46896 7.34399 1.40134 7.33345 1.33329 7.33333C1.15648 7.33333 0.986912 7.40357 0.861888 7.52859C0.736864 7.65362 0.666626 7.82319 0.666626 8C0.666626 8.17681 0.736864 8.34638 0.861888 8.4714C0.986912 8.59643 1.15648 8.66666 1.33329 8.66666C1.33329 9.44285 1.59448 10.2338 2.04944 10.9622L2.44788 13.3516C2.57454 14.1109 3.23063 14.6667 3.99996 14.6667C4.67313 14.6667 5.26067 14.2401 5.48173 13.625C6.16386 13.8604 6.89727 14 7.66663 14C8.12965 14 8.57952 13.9614 9.01428 13.8919L9.04423 13.9414C9.31423 14.3907 9.80081 14.6667 10.3255 14.6667C11.2675 14.6667 11.9737 13.8042 11.789 12.8802L11.7877 12.8724C12.4557 12.4496 13.0002 11.9257 13.3828 11.3333H13.4088C14.1475 11.3333 14.792 10.8312 14.9713 10.1146C15.1753 9.29791 14.7179 8.46131 13.9192 8.19531L13.8164 8.16146C13.6358 7.57425 13.3234 7.00145 12.8893 6.47786C13.0578 6.04056 13.2067 5.52053 13.2812 4.89323C13.3147 4.61073 13.0866 4.39379 12.8333 4.38541ZM12 8C12.368 8 12.6666 8.29866 12.6666 8.66666C12.6666 9.03466 12.368 9.33333 12 9.33333C11.632 9.33333 11.3333 9.03466 11.3333 8.66666C11.3333 8.29866 11.632 8 12 8Z" fill="#F15A25"/>
</svg>
