<svg width="13" height="12" viewBox="0 0 13 12" fill="none" xmlns="http://www.w3.org/2000/svg">
<path d="M9.97137 -6.82412e-07C9.77095 0.00216598 9.56451 0.0270931 9.35418 0.0794264C8.31085 0.340093 7.49678 1.23802 7.35678 2.30469C7.28805 2.8277 7.37467 3.32571 7.57163 3.76172L1.0573 10.276C0.689304 10.644 0.689304 11.2414 1.0573 11.6094C1.4253 11.9774 2.02264 11.9774 2.39064 11.6094L6.08595 7.91406L9.63543 11.4648C10.1401 11.9695 10.9595 11.9695 11.4649 11.4648C11.9695 10.9595 11.9695 10.1401 11.4649 9.63542L7.91407 6.08594L8.90496 5.09505C9.34095 5.29191 9.83912 5.37841 10.362 5.3099C11.4287 5.1699 12.3266 4.35583 12.5873 3.3125C12.6926 2.89183 12.6888 2.48795 12.6068 2.11328C12.5508 1.85861 12.2224 1.77757 12.0378 1.96224L11.3333 2.66667C10.9653 3.03467 10.368 3.03467 10 2.66667C9.63201 2.29867 9.63201 1.70133 10 1.33333L10.7044 0.628906C10.8891 0.444239 10.8081 0.115895 10.5534 0.0598952C10.3661 0.0188951 10.1718 -0.00216735 9.97137 -6.82412e-07ZM1.35288 0.19401C1.20371 0.208843 1.05896 0.274385 0.946627 0.386718L0.386731 0.946614C0.162065 1.17128 0.126731 1.52309 0.303398 1.78776L0.937512 2.73958C1.18485 3.11092 1.60155 3.33333 2.04689 3.33333H2.39064L4.19532 5.13802L5.13803 4.19531L3.33335 2.39062V2.04687C3.33335 1.60154 3.11093 1.18417 2.7396 0.937499L1.78777 0.303385C1.65544 0.215051 1.50204 0.179176 1.35288 0.19401Z" fill="#F15A25"/>
</svg>
