<svg width="16" height="12" viewBox="0 0 16 12" fill="none" xmlns="http://www.w3.org/2000/svg">
<path d="M15.3334 9.66666V2.33333C15.3334 1.41333 14.5867 0.666664 13.6667 0.666664H2.33341C1.41341 0.666664 0.666748 1.41333 0.666748 2.33333V9.66666C0.666748 10.5867 1.41341 11.3333 2.33341 11.3333H13.6667C14.5867 11.3333 15.3334 10.5867 15.3334 9.66666ZM1.25008 6C1.25008 5.58533 1.58541 5.25 2.00008 5.25C2.41475 5.25 2.75008 5.58533 2.75008 6C2.75008 6.41466 2.41475 6.75 2.00008 6.75C1.58541 6.75 1.25008 6.41466 1.25008 6ZM3.33341 9.66666V2.33333C3.33341 2.14933 3.48275 2 3.66675 2H13.6667C13.8507 2 14.0001 2.14933 14.0001 2.33333V9.66666C14.0001 9.85066 13.8507 10 13.6667 10H3.66675C3.48275 10 3.33341 9.85066 3.33341 9.66666Z" fill="#F15A25"/>
</svg>
