<svg xmlns="http://www.w3.org/2000/svg" width="294" height="294" viewBox="0 0 294 294">
    <path fill="#FFF" fill-rule="nonzero" d="M140.789 248.015c-10.84-2.698-18.666-12.343-18.666-24.123 0-13.93 10.946-24.877 24.877-24.877s24.877 10.946 24.877 24.877c0 11.78-7.826 21.425-18.666 24.123h49.833l-56.503-91.969-23.428 39.547c-1.379 1.84-4.135 2.759-6.432 1.38-1.837-1.38-2.756-4.14-1.378-6.438l23.428-39.087H4.594c-2.757 0-4.594-1.84-4.594-4.599 0-2.759 1.837-4.598 4.594-4.598H36.75v-9.197H18.375c-1.378 0-2.756-.46-3.675-1.84-.919-.92-.919-2.299-.919-3.678l13.781-82.773c.46-1.839 2.297-3.678 4.594-3.678h55.125V22.69c0-2.76 1.838-4.599 4.594-4.599 2.756 0 4.594 1.84 4.594 4.599v22.992c0 2.76-1.838 4.599-4.594 4.599H74.419l16.997 76.334c.459.46.459 1.38.459 1.84 0 2.758-1.838 4.598-4.594 4.598H64.312v9.197H225.094v-36.788c0-2.759 1.837-4.598 4.594-4.598 2.756 0 4.593 1.839 4.593 4.598v36.788h9.188v-36.788c0-2.759 1.837-4.598 4.594-4.598 2.756 0 4.593 1.839 4.593 4.598v36.788h36.75c2.757 0 4.594 1.84 4.594 4.598 0 2.76-1.837 4.599-4.594 4.599H155.27l58.8 96.567h24.806c1.838 0 3.216.92 4.134 2.3l18.375 36.787a4.18 4.18 0 0 1 0 4.599c-.918 1.38-2.756 2.299-4.134 2.299H36.75c-1.378 0-3.675-.46-4.134-1.84-.46-1.379-.92-3.218 0-4.598l18.375-36.788c.918-1.839 2.297-2.759 4.134-2.759h24.806l12.863-21.153c1.378-1.839 4.134-2.759 6.431-1.38 1.838 1.38 2.756 4.14 1.378 6.439l-9.647 16.094h14.7c2.756 0 4.594 1.84 4.594 4.599 0 2.759-1.838 4.598-4.594 4.598H57.881L44.1 284.803h205.8l-13.781-27.59H124.03c-2.756 0-4.594-1.84-4.594-4.6 0-2.758 1.838-4.598 4.594-4.598h16.758zm-32.385-26.384c-.93 0-1.394 0-1.859-.455-2.324-1.364-3.253-4.093-1.86-6.367l4.649-9.095c.93-1.819 3.718-2.728 6.042-1.819 1.86.91 2.789 3.638 1.86 5.912l-4.649 9.095c-.93 1.82-2.324 2.729-4.183 2.729zm-84.516-97.774h57.88L65.232 50.282h-29.4l-11.944 73.575zm31.237 18.394v-9.197h-9.188v9.197h9.188zM49.754 36.185c-9.95 0-18.092-8.142-18.092-18.093C31.662 8.142 39.803 0 49.754 0c9.95 0 18.092 8.142 18.092 18.092 0 9.951-8.141 18.093-18.092 18.093zm0-27.139c-4.976 0-9.046 4.07-9.046 9.046 0 4.976 4.07 9.046 9.046 9.046 4.975 0 9.046-4.07 9.046-9.046 0-4.975-4.07-9.046-9.046-9.046zm189.97 27.139c-9.952 0-18.093-8.142-18.093-18.093C221.63 8.142 229.772 0 239.723 0c9.95 0 18.092 8.142 18.092 18.092 0 9.951-8.141 18.093-18.092 18.093zm0-27.139c-4.976 0-9.047 4.07-9.047 9.046 0 4.976 4.07 9.046 9.046 9.046 4.975 0 9.046-4.07 9.046-9.046 0-4.975-4.07-9.046-9.046-9.046zm-45.232 42.57c-2.714 0-4.523-1.915-4.523-4.789V22.881c0-2.873 1.81-4.789 4.523-4.789 2.714 0 4.523 1.916 4.523 4.79v19.156h54.277c2.714 0 4.523 1.916 4.523 4.79v47.89c0 2.874-1.809 4.79-4.523 4.79h-36.184c-2.714 0-4.523-1.916-4.523-4.79V51.617h-18.093zm27.139 0V89.93h27.138V51.616h-27.138zm-80.842 196.4c1.98.492 4.06.753 6.211.753 2.151 0 4.232-.26 6.211-.754H140.79zm1.236-24.124c0-2.985 1.99-4.975 4.975-4.975 2.985 0 4.975 1.99 4.975 4.975v13.931c5.97-1.99 9.951-7.463 9.951-13.93 0-8.459-6.468-14.927-14.926-14.927s-14.926 6.468-14.926 14.926c0 6.468 3.98 11.941 9.95 13.931v-13.93zm56.99 47.493h-4.523c-2.714 0-4.523-1.81-4.523-4.523 0-2.714 1.81-4.524 4.523-4.524h4.523c2.714 0 4.523 1.81 4.523 4.524 0 2.713-1.809 4.523-4.523 4.523zm22.616 0h-4.523c-2.714 0-4.523-1.81-4.523-4.523 0-2.714 1.809-4.524 4.523-4.524h4.523c2.714 0 4.523 1.81 4.523 4.524 0 2.713-1.81 4.523-4.523 4.523zm-36.185 0h-4.523c-2.714 0-4.523-1.81-4.523-4.523 0-2.714 1.81-4.524 4.523-4.524h4.523c2.714 0 4.523 1.81 4.523 4.524 0 2.713-1.809 4.523-4.523 4.523z"/>
</svg>
