<?xml version="1.0" encoding="UTF-8"?>
<svg width="36px" height="33px" viewBox="0 0 36 33" version="1.1" xmlns="http://www.w3.org/2000/svg" xmlns:xlink="http://www.w3.org/1999/xlink">
    <!-- Generator: sketchtool 41.2 (35397) - http://www.bohemiancoding.com/sketch -->
    <title>BEB5E3C6-B599-40F8-B09A-B72B2C48A670</title>
    <desc>Created with sketchtool.</desc>
    <defs></defs>
    <g id="08-Khach-hang-Đối-tác" stroke="none" stroke-width="1" fill="none" fill-rule="evenodd">
        <g id="08_TPi_khach_hang" transform="translate(-421.000000, -380.000000)" fill="#FF7500">
            <g id="CARD-01" transform="translate(368.000000, 330.000000)">
                <g id="Group-9" transform="translate(53.000000, 50.000000)">
                    <path d="M30.4273649,7.89643389 C27.7252246,4.44882324 24.3625241,1.80648184 20.6454172,0 L19.6978378,2.32651711 C23.0214372,3.97012622 26.0247397,6.34624924 28.4481802,9.43421705 C30.7751158,12.3981701 32.3291792,15.725073 33.1552954,19.1768175 L35.6552744,18.8312297 C34.7601072,14.9561814 33.036328,11.2167227 30.4273649,7.89643389 Z M18.9515878,4.15284132 L18.0065043,6.4777049 C20.6154674,7.83277297 22.9790082,9.73929339 24.8974613,12.1856915 C26.7235691,14.5122086 27.9789662,17.1032905 28.6927705,19.8001984 L31.1869259,19.4513035 C30.4073984,16.3343989 28.9822856,13.3332415 26.8758141,10.6495618 C24.6761653,7.84517445 21.9573862,5.67574271 18.9515878,4.15284132 Z M17.2594223,8.30816293 L16.3135068,10.6355068 C18.2128253,11.6937662 19.9349406,13.1298572 21.3492382,14.9388194 C22.6728544,16.6237667 23.6162741,18.4848151 24.2036236,20.4252329 L26.7060984,20.076338 C26.0447063,17.7167503 24.9265792,15.4464532 23.3250952,13.4035165 C21.627938,11.2415257 19.5522483,9.5375627 17.2594223,8.30816293 Z M1.60647568,22.6260817 C1.60647568,23.9894174 1.88267969,25.2882654 2.38184354,26.4705396 L0,31.8122692 L6.41425558,31.130188 C7.37930571,31.7163644 8.45167606,32.1413217 9.5947613,32.3769498 L9.5947613,25.1485421 L7.48662594,25.1485421 C7.1846318,25.1485421 7.03405071,24.9980709 7.03405071,24.6954748 L7.03405071,22.6021055 C7.03405071,22.3003362 7.1846318,22.149865 7.48662594,22.149865 L13.2602879,22.149865 C13.562282,22.149865 13.7136951,22.3003362 13.7136951,22.6021055 L13.7136951,32.362068 C18.2402793,31.4063275 21.6362574,27.4113983 21.6362574,22.6260817 C21.6362574,17.1264399 17.153766,12.6701758 11.6213666,12.6701758 C6.09063101,12.6701758 1.60647568,17.1264399 1.60647568,22.6260817 Z M13.5173573,19.2661081 C12.9998908,19.7919308 12.3717762,20.0556689 11.6380054,20.0556689 C10.9025706,20.0556689 10.2719603,19.7919308 9.74201464,19.2661081 C9.21123707,18.738632 8.94584828,18.1102905 8.94584828,17.3786033 C8.94584828,16.6493965 9.20624543,16.0260155 9.7245439,15.5101141 C10.2445063,14.9942126 10.883436,14.7346084 11.6380054,14.7346084 C12.3717762,14.7346084 12.9998908,14.9942126 13.5173573,15.5101141 C14.0381516,16.0260155 14.2960529,16.6493965 14.2960529,17.3786033 C14.2960529,18.1102905 14.0381516,18.738632 13.5173573,19.2661081 Z" id="Combined-Shape"></path>
                </g>
            </g>
        </g>
    </g>
</svg>