<svg width="16" height="16" viewBox="0 0 16 16" fill="none" xmlns="http://www.w3.org/2000/svg">
<path d="M6.07999 1.60001C3.61333 1.60001 1.59998 3.61336 1.59998 6.08002C1.59998 8.54668 3.61333 10.56 6.07999 10.56C7.19871 10.56 8.2208 10.1428 9.0075 9.46003L9.28 9.73253V10.56L12.855 14.135C13.2083 14.4883 13.7817 14.4883 14.135 14.135C14.4883 13.7818 14.4883 13.2083 14.135 12.855L10.56 9.28003H9.7325L9.46 9.00753C10.1427 8.22083 10.56 7.19874 10.56 6.08002C10.56 3.61336 8.54665 1.60001 6.07999 1.60001ZM6.07999 2.88001C7.85489 2.88001 9.28 4.30512 9.28 6.08002C9.28 7.85492 7.85489 9.28003 6.07999 9.28003C4.30509 9.28003 2.87998 7.85492 2.87998 6.08002C2.87998 4.30512 4.30509 2.88001 6.07999 2.88001Z" fill="white"/>
</svg>
