<svg xmlns="http://www.w3.org/2000/svg" width="12" height="14" viewBox="0 0 12 14">
    <path fill="#0A2C4D" fill-rule="nonzero" d="M10.969 2.656c.224 0 .406.182.406.407v.406a.406.406 0 0 1-.406.406h-.407l-.538 8.607a1.235 1.235 0 0 1-1.216 1.143H2.567a1.235 1.235 0 0 1-1.216-1.143L.812 3.875H.406A.406.406 0 0 1 0 3.469v-.406c0-.225.182-.407.406-.407h2.092l.864-1.44C3.558.89 4.026.626 4.407.626h2.561c.381 0 .85.265 1.045.592l.864 1.44h2.092zm-6.561-.812l-.488.812h3.535l-.488-.812h-2.56zm4.4 10.562l.533-8.531H2.034l.533 8.531h6.241z" opacity=".3"/>
</svg>
