<?xml version="1.0" encoding="UTF-8"?>
<svg width="12px" height="14px" viewBox="0 0 12 14" version="1.1" xmlns="http://www.w3.org/2000/svg" xmlns:xlink="http://www.w3.org/1999/xlink">
    <!-- Generator: Sketch 55.1 (78136) - https://sketchapp.com -->
    <title>t</title>
    <desc>Created with Sketch.</desc>
    <g id="Phiếu-Thu" stroke="none" stroke-width="1" fill="none" fill-rule="evenodd">
        <g id="Phiếu-Thu_01" transform="translate(-1023.000000, -662.000000)" fill="#FA4242" fill-rule="nonzero">
            <g id="Group-6" transform="translate(375.000000, 153.000000)">
                <g id="Bảo-hiểm" transform="translate(30.000000, 366.000000)">
                    <g id="Group-5" transform="translate(154.000000, 144.000000)">
                        <path d="M474.968724,0.437525183 C475.192974,0.437525183 475.374973,0.619523956 475.374973,0.843774214 L475.374973,1.65627228 C475.374973,1.88052254 475.192974,2.06252131 474.968724,2.06252131 L464.406249,2.06252131 C464.181999,2.06252131 464,1.88052254 464,1.65627228 L464,0.843774214 C464,0.619523956 464.181999,0.437525183 464.406249,0.437525183 L467.453117,0.437525183 L467.691798,-0.0372833316 C467.782946,-0.223695698 468.025322,-0.37497288 468.232835,-0.37497288 L471.137724,-0.37497288 C471.345981,-0.37497288 471.590341,-0.223695698 471.683175,-0.0372833316 L471.921856,0.437525183 L474.968724,0.437525183 Z M465.350783,11.4824207 L464.812498,2.87501937 L474.562475,2.87501937 L474.02419,11.4824207 C473.984715,12.113044 473.439835,12.6249961 472.807997,12.6249961 L466.566976,12.6249961 C465.935138,12.6249961 465.390257,12.113044 465.350783,11.4824207 Z" id="t"></path>
                    </g>
                </g>
            </g>
        </g>
    </g>
</svg>